<?xml version="1.0" encoding="UTF-8" standalone="no"?><svg xmlns="http://www.w3.org/2000/svg" xmlns:xlink="http://www.w3.org/1999/xlink" contentScriptType="application/ecmascript" contentStyleType="text/css" height="1285px" preserveAspectRatio="none" style="width:430px;height:1285px;" version="1.1" viewBox="0 0 430 1285" width="430px" zoomAndPan="magnify"><defs><filter height="300%" id="fsu3zpce5sdbv" width="300%" x="-1" y="-1"><feGaussianBlur result="blurOut" stdDeviation="2.0"/><feColorMatrix in="blurOut" result="blurOut2" type="matrix" values="0 0 0 0 0 0 0 0 0 0 0 0 0 0 0 0 0 0 .4 0"/><feOffset dx="4.0" dy="4.0" in="blurOut2" result="blurOut3"/><feBlend in="SourceGraphic" in2="blurOut3" mode="normal"/></filter></defs><g><text fill="#000000" font-family="sans-serif" font-size="18" lengthAdjust="spacingAndGlyphs" textLength="406" x="12" y="26.708">Activity diagram sbws V3BWLine.from_results</text><ellipse cx="203" cy="40.9531" fill="#000000" filter="url(#fsu3zpce5sdbv)" rx="10" ry="10" style="stroke: none; stroke-width: 1.0;"/><rect fill="#FEFECE" filter="url(#fsu3zpce5sdbv)" height="33.9688" rx="12.5" ry="12.5" style="stroke: #A80036; stroke-width: 1.5;" width="120" x="143" y="70.9531"/><text fill="#000000" font-family="sans-serif" font-size="12" lengthAdjust="spacingAndGlyphs" textLength="100" x="153" y="92.0918">success_results</text><rect fill="#FEFECE" filter="url(#fsu3zpce5sdbv)" height="33.9688" rx="12.5" ry="12.5" style="stroke: #A80036; stroke-width: 1.5;" width="189" x="108.5" y="173.3242"/><text fill="#000000" font-family="sans-serif" font-size="12" lengthAdjust="spacingAndGlyphs" textLength="169" x="118.5" y="194.4629">return (, exclusion_reason)</text><ellipse cx="203" cy="244.8086" fill="none" filter="url(#fsu3zpce5sdbv)" rx="10" ry="10" style="stroke: #000000; stroke-width: 1.0;"/><ellipse cx="203.5" cy="245.3086" fill="#000000" filter="url(#fsu3zpce5sdbv)" rx="6" ry="6" style="stroke: none; stroke-width: 1.0;"/><polygon fill="#FEFECE" filter="url(#fsu3zpce5sdbv)" points="142.5,124.9219,263.5,124.9219,275.5,136.9219,263.5,148.9219,142.5,148.9219,130.5,136.9219,142.5,124.9219" style="stroke: #A80036; stroke-width: 1.5;"/><text fill="#000000" font-family="sans-serif" font-size="11" lengthAdjust="spacingAndGlyphs" textLength="20" x="207" y="159.1323">yes</text><text fill="#000000" font-family="sans-serif" font-size="11" lengthAdjust="spacingAndGlyphs" textLength="121" x="142.5" y="140.73">not success_results?</text><rect fill="#FEFECE" filter="url(#fsu3zpce5sdbv)" height="33.9688" rx="12.5" ry="12.5" style="stroke: #A80036; stroke-width: 1.5;" width="100" x="153" y="296.8086"/><text fill="#000000" font-family="sans-serif" font-size="12" lengthAdjust="spacingAndGlyphs" textLength="80" x="163" y="317.9473">results_away</text><rect fill="#FEFECE" filter="url(#fsu3zpce5sdbv)" height="33.9688" rx="12.5" ry="12.5" style="stroke: #A80036; stroke-width: 1.5;" width="189" x="108.5" y="399.1797"/><text fill="#000000" font-family="sans-serif" font-size="12" lengthAdjust="spacingAndGlyphs" textLength="169" x="118.5" y="420.3184">return (, exclusion_reason)</text><ellipse cx="203" cy="470.6641" fill="none" filter="url(#fsu3zpce5sdbv)" rx="10" ry="10" style="stroke: #000000; stroke-width: 1.0;"/><ellipse cx="203.5" cy="471.1641" fill="#000000" filter="url(#fsu3zpce5sdbv)" rx="6" ry="6" style="stroke: none; stroke-width: 1.0;"/><polygon fill="#FEFECE" filter="url(#fsu3zpce5sdbv)" points="151.5,350.7773,254.5,350.7773,266.5,362.7773,254.5,374.7773,151.5,374.7773,139.5,362.7773,151.5,350.7773" style="stroke: #A80036; stroke-width: 1.5;"/><text fill="#000000" font-family="sans-serif" font-size="11" lengthAdjust="spacingAndGlyphs" textLength="20" x="207" y="384.9878">yes</text><text fill="#000000" font-family="sans-serif" font-size="11" lengthAdjust="spacingAndGlyphs" textLength="103" x="151.5" y="366.5854">not results_away?</text><rect fill="#FEFECE" filter="url(#fsu3zpce5sdbv)" height="33.9688" rx="12.5" ry="12.5" style="stroke: #A80036; stroke-width: 1.5;" width="110" x="148" y="522.6641"/><text fill="#000000" font-family="sans-serif" font-size="12" lengthAdjust="spacingAndGlyphs" textLength="90" x="158" y="543.8027">results_recent</text><rect fill="#FEFECE" filter="url(#fsu3zpce5sdbv)" height="33.9688" rx="12.5" ry="12.5" style="stroke: #A80036; stroke-width: 1.5;" width="189" x="108.5" y="625.0352"/><text fill="#000000" font-family="sans-serif" font-size="12" lengthAdjust="spacingAndGlyphs" textLength="169" x="118.5" y="646.1738">return (, exclusion_reason)</text><ellipse cx="203" cy="696.5195" fill="none" filter="url(#fsu3zpce5sdbv)" rx="10" ry="10" style="stroke: #000000; stroke-width: 1.0;"/><ellipse cx="203.5" cy="697.0195" fill="#000000" filter="url(#fsu3zpce5sdbv)" rx="6" ry="6" style="stroke: none; stroke-width: 1.0;"/><polygon fill="#FEFECE" filter="url(#fsu3zpce5sdbv)" points="148,576.6328,258,576.6328,270,588.6328,258,600.6328,148,600.6328,136,588.6328,148,576.6328" style="stroke: #A80036; stroke-width: 1.5;"/><text fill="#000000" font-family="sans-serif" font-size="11" lengthAdjust="spacingAndGlyphs" textLength="20" x="207" y="610.8433">yes</text><text fill="#000000" font-family="sans-serif" font-size="11" lengthAdjust="spacingAndGlyphs" textLength="110" x="148" y="592.4409">not results_recent?</text><polygon fill="#FEFECE" filter="url(#fsu3zpce5sdbv)" points="117,748.5195,289,748.5195,301,760.5195,289,772.5195,117,772.5195,105,760.5195,117,748.5195" style="stroke: #A80036; stroke-width: 1.5;"/><text fill="#000000" font-family="sans-serif" font-size="11" lengthAdjust="spacingAndGlyphs" textLength="172" x="117" y="764.3276">node_id in router_statuses_d?</text><text fill="#000000" font-family="sans-serif" font-size="11" lengthAdjust="spacingAndGlyphs" textLength="20" x="85" y="757.9253">yes</text><text fill="#000000" font-family="sans-serif" font-size="11" lengthAdjust="spacingAndGlyphs" textLength="14" x="301" y="757.9253">no</text><rect fill="#FEFECE" filter="url(#fsu3zpce5sdbv)" height="33.9688" rx="12.5" ry="12.5" style="stroke: #A80036; stroke-width: 1.5;" width="159" x="15.5" y="782.5195"/><text fill="#000000" font-family="sans-serif" font-size="12" lengthAdjust="spacingAndGlyphs" textLength="139" x="25.5" y="803.6582">consensus_bandwidth</text><rect fill="#FEFECE" filter="url(#fsu3zpce5sdbv)" height="33.9688" rx="12.5" ry="12.5" style="stroke: #A80036; stroke-width: 1.5;" width="159" x="231.5" y="782.5195"/><text fill="#000000" font-family="sans-serif" font-size="12" lengthAdjust="spacingAndGlyphs" textLength="139" x="241.5" y="803.6582">consensus_bandwidth</text><polygon fill="#FEFECE" filter="url(#fsu3zpce5sdbv)" points="203,822.4883,215,834.4883,203,846.4883,191,834.4883,203,822.4883" style="stroke: #A80036; stroke-width: 1.5;"/><rect fill="#FEFECE" filter="url(#fsu3zpce5sdbv)" height="33.9688" rx="12.5" ry="12.5" style="stroke: #A80036; stroke-width: 1.5;" width="72" x="167" y="866.4883"/><text fill="#000000" font-family="sans-serif" font-size="12" lengthAdjust="spacingAndGlyphs" textLength="52" x="177" y="887.627">obs_last</text><rect fill="#FEFECE" filter="url(#fsu3zpce5sdbv)" height="33.9688" rx="12.5" ry="12.5" style="stroke: #A80036; stroke-width: 1.5;" width="378" x="14" y="968.8594"/><text fill="#000000" font-family="sans-serif" font-size="12" lengthAdjust="spacingAndGlyphs" textLength="358" x="24" y="989.998">return(cls(node_id, 1), "no_consensus_no_observed_bw")</text><ellipse cx="203" cy="1040.3438" fill="none" filter="url(#fsu3zpce5sdbv)" rx="10" ry="10" style="stroke: #000000; stroke-width: 1.0;"/><ellipse cx="203.5" cy="1040.8438" fill="#000000" filter="url(#fsu3zpce5sdbv)" rx="6" ry="6" style="stroke: none; stroke-width: 1.0;"/><polygon fill="#FEFECE" filter="url(#fsu3zpce5sdbv)" points="51.5,920.457,354.5,920.457,366.5,932.457,354.5,944.457,51.5,944.457,39.5,932.457,51.5,920.457" style="stroke: #A80036; stroke-width: 1.5;"/><text fill="#000000" font-family="sans-serif" font-size="11" lengthAdjust="spacingAndGlyphs" textLength="20" x="207" y="954.6675">yes</text><text fill="#000000" font-family="sans-serif" font-size="11" lengthAdjust="spacingAndGlyphs" textLength="303" x="51.5" y="936.2651">obs_last is None and consensus_bandwidth is None?</text><rect fill="#FEFECE" filter="url(#fsu3zpce5sdbv)" height="33.9688" rx="12.5" ry="12.5" style="stroke: #A80036; stroke-width: 1.5;" width="37" x="184.5" y="1092.3438"/><text fill="#000000" font-family="sans-serif" font-size="12" lengthAdjust="spacingAndGlyphs" textLength="17" x="194.5" y="1113.4824">bw</text><rect fill="#FEFECE" filter="url(#fsu3zpce5sdbv)" height="33.9688" rx="12.5" ry="12.5" style="stroke: #A80036; stroke-width: 1.5;" width="86" x="160" y="1146.3125"/><text fill="#000000" font-family="sans-serif" font-size="12" lengthAdjust="spacingAndGlyphs" textLength="66" x="170" y="1167.4512">kwargs[...]</text><rect fill="#FEFECE" filter="url(#fsu3zpce5sdbv)" height="33.9688" rx="12.5" ry="12.5" style="stroke: #A80036; stroke-width: 1.5;" width="252" x="77" y="1200.2813"/><text fill="#000000" font-family="sans-serif" font-size="12" lengthAdjust="spacingAndGlyphs" textLength="232" x="87" y="1221.4199">return (node_id, bw, **kwargs), None</text><ellipse cx="203" cy="1264.25" fill="none" filter="url(#fsu3zpce5sdbv)" rx="10" ry="10" style="stroke: #000000; stroke-width: 1.0;"/><ellipse cx="203.5" cy="1264.75" fill="#000000" filter="url(#fsu3zpce5sdbv)" rx="6" ry="6" style="stroke: none; stroke-width: 1.0;"/><line style="stroke: #A80036; stroke-width: 1.5;" x1="203" x2="203" y1="50.9531" y2="70.9531"/><polygon fill="#A80036" points="199,60.9531,203,70.9531,207,60.9531,203,64.9531" style="stroke: #A80036; stroke-width: 1.0;"/><line style="stroke: #A80036; stroke-width: 1.5;" x1="203" x2="203" y1="207.293" y2="234.8086"/><polygon fill="#A80036" points="199,224.8086,203,234.8086,207,224.8086,203,228.8086" style="stroke: #A80036; stroke-width: 1.0;"/><line style="stroke: #A80036; stroke-width: 1.5;" x1="203" x2="203" y1="148.9219" y2="173.3242"/><polygon fill="#A80036" points="199,163.3242,203,173.3242,207,163.3242,203,167.3242" style="stroke: #A80036; stroke-width: 1.0;"/><line style="stroke: #A80036; stroke-width: 1.5;" x1="275.5" x2="307.5" y1="136.9219" y2="136.9219"/><polygon fill="#A80036" points="303.5,204.8086,307.5,214.8086,311.5,204.8086,307.5,208.8086" style="stroke: #A80036; stroke-width: 1.5;"/><line style="stroke: #A80036; stroke-width: 1.5;" x1="307.5" x2="307.5" y1="136.9219" y2="276.8086"/><line style="stroke: #A80036; stroke-width: 1.5;" x1="307.5" x2="203" y1="276.8086" y2="276.8086"/><line style="stroke: #A80036; stroke-width: 1.5;" x1="203" x2="203" y1="276.8086" y2="296.8086"/><polygon fill="#A80036" points="199,286.8086,203,296.8086,207,286.8086,203,290.8086" style="stroke: #A80036; stroke-width: 1.0;"/><line style="stroke: #A80036; stroke-width: 1.5;" x1="203" x2="203" y1="104.9219" y2="124.9219"/><polygon fill="#A80036" points="199,114.9219,203,124.9219,207,114.9219,203,118.9219" style="stroke: #A80036; stroke-width: 1.0;"/><line style="stroke: #A80036; stroke-width: 1.5;" x1="203" x2="203" y1="433.1484" y2="460.6641"/><polygon fill="#A80036" points="199,450.6641,203,460.6641,207,450.6641,203,454.6641" style="stroke: #A80036; stroke-width: 1.0;"/><line style="stroke: #A80036; stroke-width: 1.5;" x1="203" x2="203" y1="374.7773" y2="399.1797"/><polygon fill="#A80036" points="199,389.1797,203,399.1797,207,389.1797,203,393.1797" style="stroke: #A80036; stroke-width: 1.0;"/><line style="stroke: #A80036; stroke-width: 1.5;" x1="266.5" x2="307.5" y1="362.7773" y2="362.7773"/><polygon fill="#A80036" points="303.5,430.6641,307.5,440.6641,311.5,430.6641,307.5,434.6641" style="stroke: #A80036; stroke-width: 1.5;"/><line style="stroke: #A80036; stroke-width: 1.5;" x1="307.5" x2="307.5" y1="362.7773" y2="502.6641"/><line style="stroke: #A80036; stroke-width: 1.5;" x1="307.5" x2="203" y1="502.6641" y2="502.6641"/><line style="stroke: #A80036; stroke-width: 1.5;" x1="203" x2="203" y1="502.6641" y2="522.6641"/><polygon fill="#A80036" points="199,512.6641,203,522.6641,207,512.6641,203,516.6641" style="stroke: #A80036; stroke-width: 1.0;"/><line style="stroke: #A80036; stroke-width: 1.5;" x1="203" x2="203" y1="330.7773" y2="350.7773"/><polygon fill="#A80036" points="199,340.7773,203,350.7773,207,340.7773,203,344.7773" style="stroke: #A80036; stroke-width: 1.0;"/><line style="stroke: #A80036; stroke-width: 1.5;" x1="203" x2="203" y1="659.0039" y2="686.5195"/><polygon fill="#A80036" points="199,676.5195,203,686.5195,207,676.5195,203,680.5195" style="stroke: #A80036; stroke-width: 1.0;"/><line style="stroke: #A80036; stroke-width: 1.5;" x1="203" x2="203" y1="600.6328" y2="625.0352"/><polygon fill="#A80036" points="199,615.0352,203,625.0352,207,615.0352,203,619.0352" style="stroke: #A80036; stroke-width: 1.0;"/><line style="stroke: #A80036; stroke-width: 1.5;" x1="270" x2="307.5" y1="588.6328" y2="588.6328"/><polygon fill="#A80036" points="303.5,656.5195,307.5,666.5195,311.5,656.5195,307.5,660.5195" style="stroke: #A80036; stroke-width: 1.5;"/><line style="stroke: #A80036; stroke-width: 1.5;" x1="307.5" x2="307.5" y1="588.6328" y2="728.5195"/><line style="stroke: #A80036; stroke-width: 1.5;" x1="307.5" x2="203" y1="728.5195" y2="728.5195"/><line style="stroke: #A80036; stroke-width: 1.5;" x1="203" x2="203" y1="728.5195" y2="748.5195"/><polygon fill="#A80036" points="199,738.5195,203,748.5195,207,738.5195,203,742.5195" style="stroke: #A80036; stroke-width: 1.0;"/><line style="stroke: #A80036; stroke-width: 1.5;" x1="203" x2="203" y1="556.6328" y2="576.6328"/><polygon fill="#A80036" points="199,566.6328,203,576.6328,207,566.6328,203,570.6328" style="stroke: #A80036; stroke-width: 1.0;"/><line style="stroke: #A80036; stroke-width: 1.5;" x1="105" x2="95" y1="760.5195" y2="760.5195"/><line style="stroke: #A80036; stroke-width: 1.5;" x1="95" x2="95" y1="760.5195" y2="782.5195"/><polygon fill="#A80036" points="91,772.5195,95,782.5195,99,772.5195,95,776.5195" style="stroke: #A80036; stroke-width: 1.0;"/><line style="stroke: #A80036; stroke-width: 1.5;" x1="301" x2="311" y1="760.5195" y2="760.5195"/><line style="stroke: #A80036; stroke-width: 1.5;" x1="311" x2="311" y1="760.5195" y2="782.5195"/><polygon fill="#A80036" points="307,772.5195,311,782.5195,315,772.5195,311,776.5195" style="stroke: #A80036; stroke-width: 1.0;"/><line style="stroke: #A80036; stroke-width: 1.5;" x1="95" x2="95" y1="816.4883" y2="834.4883"/><line style="stroke: #A80036; stroke-width: 1.5;" x1="95" x2="191" y1="834.4883" y2="834.4883"/><polygon fill="#A80036" points="181,830.4883,191,834.4883,181,838.4883,185,834.4883" style="stroke: #A80036; stroke-width: 1.0;"/><line style="stroke: #A80036; stroke-width: 1.5;" x1="311" x2="311" y1="816.4883" y2="834.4883"/><line style="stroke: #A80036; stroke-width: 1.5;" x1="311" x2="215" y1="834.4883" y2="834.4883"/><polygon fill="#A80036" points="225,830.4883,215,834.4883,225,838.4883,221,834.4883" style="stroke: #A80036; stroke-width: 1.0;"/><line style="stroke: #A80036; stroke-width: 1.5;" x1="203" x2="203" y1="846.4883" y2="866.4883"/><polygon fill="#A80036" points="199,856.4883,203,866.4883,207,856.4883,203,860.4883" style="stroke: #A80036; stroke-width: 1.0;"/><line style="stroke: #A80036; stroke-width: 1.5;" x1="203" x2="203" y1="1002.8281" y2="1030.3438"/><polygon fill="#A80036" points="199,1020.3438,203,1030.3438,207,1020.3438,203,1024.3438" style="stroke: #A80036; stroke-width: 1.0;"/><line style="stroke: #A80036; stroke-width: 1.5;" x1="203" x2="203" y1="944.457" y2="968.8594"/><polygon fill="#A80036" points="199,958.8594,203,968.8594,207,958.8594,203,962.8594" style="stroke: #A80036; stroke-width: 1.0;"/><line style="stroke: #A80036; stroke-width: 1.5;" x1="366.5" x2="402" y1="932.457" y2="932.457"/><polygon fill="#A80036" points="398,1000.3438,402,1010.3438,406,1000.3438,402,1004.3438" style="stroke: #A80036; stroke-width: 1.5;"/><line style="stroke: #A80036; stroke-width: 1.5;" x1="402" x2="402" y1="932.457" y2="1072.3438"/><line style="stroke: #A80036; stroke-width: 1.5;" x1="402" x2="203" y1="1072.3438" y2="1072.3438"/><line style="stroke: #A80036; stroke-width: 1.5;" x1="203" x2="203" y1="1072.3438" y2="1092.3438"/><polygon fill="#A80036" points="199,1082.3438,203,1092.3438,207,1082.3438,203,1086.3438" style="stroke: #A80036; stroke-width: 1.0;"/><line style="stroke: #A80036; stroke-width: 1.5;" x1="203" x2="203" y1="900.457" y2="920.457"/><polygon fill="#A80036" points="199,910.457,203,920.457,207,910.457,203,914.457" style="stroke: #A80036; stroke-width: 1.0;"/><line style="stroke: #A80036; stroke-width: 1.5;" x1="203" x2="203" y1="1126.3125" y2="1146.3125"/><polygon fill="#A80036" points="199,1136.3125,203,1146.3125,207,1136.3125,203,1140.3125" style="stroke: #A80036; stroke-width: 1.0;"/><line style="stroke: #A80036; stroke-width: 1.5;" x1="203" x2="203" y1="1180.2813" y2="1200.2813"/><polygon fill="#A80036" points="199,1190.2813,203,1200.2813,207,1190.2813,203,1194.2813" style="stroke: #A80036; stroke-width: 1.0;"/><line style="stroke: #A80036; stroke-width: 1.5;" x1="203" x2="203" y1="1234.25" y2="1254.25"/><polygon fill="#A80036" points="199,1244.25,203,1254.25,207,1244.25,203,1248.25" style="stroke: #A80036; stroke-width: 1.0;"/><!--
@startuml

title Activity diagram sbws V3BWLine.from_results

start
:success_results;
if (not success_results?) then (yes)
    :return (, exclusion_reason);
    stop
endif
:results_away;
if (not results_away?) then (yes)
    :return (, exclusion_reason);
    stop
endif
:results_recent;
if (not results_recent?) then (yes)
    :return (, exclusion_reason);
    stop
endif
if (node_id in router_statuses_d?) then (yes)
    :consensus_bandwidth;
else (no)
    :consensus_bandwidth;
endif
:obs_last;
if (obs_last is None and consensus_bandwidth is None?) then (yes)
    :return(cls(node_id, 1), "no_consensus_no_observed_bw");
    stop
endif
:bw;
:kwargs[...];
:return (node_id, bw, **kwargs), None;
stop

@enduml

PlantUML version 1.2018.13(Mon Nov 26 17:11:51 GMT 2018)
(GPL source distribution)
Java Runtime: OpenJDK Runtime Environment
JVM: OpenJDK 64-Bit Server VM
Java Version: 11.0.9.1+1-post-Debian-1deb10u2
Operating System: Linux
OS Version: 4.19.0-13-amd64
Default Encoding: UTF-8
Language: en
Country: US
--></g></svg>