<?xml version="1.0" encoding="UTF-8" standalone="no"?><svg xmlns="http://www.w3.org/2000/svg" xmlns:xlink="http://www.w3.org/1999/xlink" contentScriptType="application/ecmascript" contentStyleType="text/css" height="1237px" preserveAspectRatio="none" style="width:483px;height:1237px;" version="1.1" viewBox="0 0 483 1237" width="483px" zoomAndPan="magnify"><defs><filter height="300%" id="fq8tw0sgtkabn" width="300%" x="-1" y="-1"><feGaussianBlur result="blurOut" stdDeviation="2.0"/><feColorMatrix in="blurOut" result="blurOut2" type="matrix" values="0 0 0 0 0 0 0 0 0 0 0 0 0 0 0 0 0 0 .4 0"/><feOffset dx="4.0" dy="4.0" in="blurOut2" result="blurOut3"/><feBlend in="SourceGraphic" in2="blurOut3" mode="normal"/></filter></defs><g><text fill="#000000" font-family="sans-serif" font-size="18" lengthAdjust="spacingAndGlyphs" textLength="352" x="64.75" y="26.708">Activity diagram sbws bw_torflow_scale</text><ellipse cx="244.5" cy="40.9531" fill="#000000" filter="url(#fq8tw0sgtkabn)" rx="10" ry="10" style="stroke: none; stroke-width: 1.0;"/><rect fill="#FEFECE" filter="url(#fq8tw0sgtkabn)" height="33.9688" rx="12.5" ry="12.5" style="stroke: #A80036; stroke-width: 1.5;" width="276" x="106.5" y="70.9531"/><text fill="#000000" font-family="sans-serif" font-size="12" lengthAdjust="spacingAndGlyphs" textLength="256" x="116.5" y="92.0918">mu = mean([l.bw_mean for l in bw_lines])</text><rect fill="#FEFECE" filter="url(#fq8tw0sgtkabn)" height="33.9688" rx="12.5" ry="12.5" style="stroke: #A80036; stroke-width: 1.5;" width="260" x="114.5" y="124.9219"/><text fill="#000000" font-family="sans-serif" font-size="12" lengthAdjust="spacingAndGlyphs" textLength="240" x="124.5" y="146.0605">muf = mean([l.bw_filt for l in bw_lines])</text><rect fill="#FEFECE" filter="url(#fq8tw0sgtkabn)" height="33.9688" rx="12.5" ry="12.5" style="stroke: #A80036; stroke-width: 1.5;" width="95" x="197" y="178.8906"/><text fill="#000000" font-family="sans-serif" font-size="12" lengthAdjust="spacingAndGlyphs" textLength="75" x="207" y="200.0293">sum_bw = 0</text><rect fill="#FEFECE" filter="url(#fq8tw0sgtkabn)" height="33.9688" rx="12.5" ry="12.5" style="stroke: #A80036; stroke-width: 1.5;" width="66" x="211.5" y="276.8594"/><text fill="#000000" font-family="sans-serif" font-size="12" lengthAdjust="spacingAndGlyphs" textLength="46" x="221.5" y="297.998">bw_obs</text><rect fill="#FEFECE" filter="url(#fq8tw0sgtkabn)" height="33.9688" rx="12.5" ry="12.5" style="stroke: #A80036; stroke-width: 1.5;" width="396" x="46.5" y="330.8281"/><text fill="#000000" font-family="sans-serif" font-size="12" lengthAdjust="spacingAndGlyphs" textLength="376" x="56.5" y="351.9668">desc_bw = min(desc_bw_obs, l.desc_bw_bur, l.desc_bw_avg)</text><rect fill="#FEFECE" filter="url(#fq8tw0sgtkabn)" height="33.9688" rx="12.5" ry="12.5" style="stroke: #A80036; stroke-width: 1.5;" width="370" x="59.5" y="384.7969"/><text fill="#000000" font-family="sans-serif" font-size="12" lengthAdjust="spacingAndGlyphs" textLength="350" x="69.5" y="405.9355">min_bandwidth = min(desc_bw, l.consensus_bandwidth)</text><rect fill="#FEFECE" filter="url(#fq8tw0sgtkabn)" height="33.9688" rx="12.5" ry="12.5" style="stroke: #A80036; stroke-width: 1.5;" width="213" x="138" y="438.7656"/><text fill="#000000" font-family="sans-serif" font-size="12" lengthAdjust="spacingAndGlyphs" textLength="193" x="148" y="459.9043">ratio_stream = l.bw_mean / mu</text><rect fill="#FEFECE" filter="url(#fq8tw0sgtkabn)" height="33.9688" rx="12.5" ry="12.5" style="stroke: #A80036; stroke-width: 1.5;" width="247" x="121" y="492.7344"/><text fill="#000000" font-family="sans-serif" font-size="12" lengthAdjust="spacingAndGlyphs" textLength="227" x="131" y="513.873">ratio_stream_filtered = l.bw_filt / muf</text><rect fill="#FEFECE" filter="url(#fq8tw0sgtkabn)" height="33.9688" rx="12.5" ry="12.5" style="stroke: #A80036; stroke-width: 1.5;" width="318" x="85.5" y="558.7695"/><text fill="#000000" font-family="sans-serif" font-size="12" lengthAdjust="spacingAndGlyphs" textLength="298" x="95.5" y="579.9082">ratio = max(ratio_stream, ratio_stream_filtered)</text><rect fill="#FEFECE" filter="url(#fq8tw0sgtkabn)" height="33.9688" rx="12.5" ry="12.5" style="stroke: #A80036; stroke-width: 1.5;" width="198" x="145.5" y="612.7383"/><text fill="#000000" font-family="sans-serif" font-size="12" lengthAdjust="spacingAndGlyphs" textLength="178" x="155.5" y="633.877">l.bw = ratio * min_bandwidth</text><polygon fill="#FEFECE" filter="url(#fq8tw0sgtkabn)" points="189.5,666.707,299.5,666.707,311.5,678.707,299.5,690.707,189.5,690.707,177.5,678.707,189.5,666.707" style="stroke: #A80036; stroke-width: 1.5;"/><text fill="#000000" font-family="sans-serif" font-size="11" lengthAdjust="spacingAndGlyphs" textLength="110" x="189.5" y="682.5151">router_statuses_d?</text><text fill="#000000" font-family="sans-serif" font-size="11" lengthAdjust="spacingAndGlyphs" textLength="20" x="157.5" y="676.1128">yes</text><text fill="#000000" font-family="sans-serif" font-size="11" lengthAdjust="spacingAndGlyphs" textLength="14" x="311.5" y="676.1128">no</text><rect fill="#FEFECE" filter="url(#fq8tw0sgtkabn)" height="33.9688" rx="12.5" ry="12.5" style="stroke: #A80036; stroke-width: 1.5;" width="121" x="87" y="749.1094"/><text fill="#000000" font-family="sans-serif" font-size="12" lengthAdjust="spacingAndGlyphs" textLength="101" x="97" y="770.248">sum_bw += l.bw</text><polygon fill="#FEFECE" filter="url(#fq8tw0sgtkabn)" points="58,700.707,237,700.707,249,712.707,237,724.707,58,724.707,46,712.707,58,700.707" style="stroke: #A80036; stroke-width: 1.5;"/><text fill="#000000" font-family="sans-serif" font-size="11" lengthAdjust="spacingAndGlyphs" textLength="20" x="151.5" y="734.9175">yes</text><text fill="#000000" font-family="sans-serif" font-size="11" lengthAdjust="spacingAndGlyphs" textLength="179" x="58" y="716.5151">l.node_id in router_statuses_d?</text><polygon fill="#FEFECE" filter="url(#fq8tw0sgtkabn)" points="147.5,803.0781,159.5,815.0781,147.5,827.0781,135.5,815.0781,147.5,803.0781" style="stroke: #A80036; stroke-width: 1.5;"/><rect fill="#FEFECE" filter="url(#fq8tw0sgtkabn)" height="33.9688" rx="12.5" ry="12.5" style="stroke: #A80036; stroke-width: 1.5;" width="121" x="281" y="700.707"/><text fill="#000000" font-family="sans-serif" font-size="12" lengthAdjust="spacingAndGlyphs" textLength="101" x="291" y="721.8457">sum_bw += l.bw</text><polygon fill="#FEFECE" filter="url(#fq8tw0sgtkabn)" points="244.5,833.0781,256.5,845.0781,244.5,857.0781,232.5,845.0781,244.5,833.0781" style="stroke: #A80036; stroke-width: 1.5;"/><polygon fill="#FEFECE" filter="url(#fq8tw0sgtkabn)" points="196.5,232.8594,292.5,232.8594,304.5,244.8594,292.5,256.8594,196.5,256.8594,184.5,244.8594,196.5,232.8594" style="stroke: #A80036; stroke-width: 1.5;"/><text fill="#000000" font-family="sans-serif" font-size="11" lengthAdjust="spacingAndGlyphs" textLength="96" x="196.5" y="248.6675">for l in bw_lines?</text><rect fill="#FEFECE" filter="url(#fq8tw0sgtkabn)" height="33.9688" rx="12.5" ry="12.5" style="stroke: #A80036; stroke-width: 1.5;" width="157" x="166" y="899.0781"/><text fill="#000000" font-family="sans-serif" font-size="12" lengthAdjust="spacingAndGlyphs" textLength="137" x="176" y="920.2168">hlimit = sum_bw * cap</text><rect fill="#FEFECE" filter="url(#fq8tw0sgtkabn)" height="33.9688" rx="12.5" ry="12.5" style="stroke: #A80036; stroke-width: 1.5;" width="199" x="145" y="997.0469"/><text fill="#000000" font-family="sans-serif" font-size="12" lengthAdjust="spacingAndGlyphs" textLength="179" x="155" y="1018.1855">bw_scaled = min(hlimit, l.bw)</text><rect fill="#FEFECE" filter="url(#fq8tw0sgtkabn)" height="33.9688" rx="12.5" ry="12.5" style="stroke: #A80036; stroke-width: 1.5;" width="402" x="43.5" y="1066.0156"/><text fill="#000000" font-family="sans-serif" font-size="12" lengthAdjust="spacingAndGlyphs" textLength="382" x="53.5" y="1087.1543">l.bw = kb_round_x_sig_dig(bw_scaled, digits=num_round_dig)</text><polygon fill="#FEFECE" filter="url(#fq8tw0sgtkabn)" points="196.5,953.0469,292.5,953.0469,304.5,965.0469,292.5,977.0469,196.5,977.0469,184.5,965.0469,196.5,953.0469" style="stroke: #A80036; stroke-width: 1.5;"/><text fill="#000000" font-family="sans-serif" font-size="11" lengthAdjust="spacingAndGlyphs" textLength="96" x="196.5" y="968.855">for l in bw_lines?</text><rect fill="#FEFECE" filter="url(#fq8tw0sgtkabn)" height="33.9688" rx="12.5" ry="12.5" style="stroke: #A80036; stroke-width: 1.5;" width="423" x="33" y="1141.9844"/><text fill="#000000" font-family="sans-serif" font-size="12" lengthAdjust="spacingAndGlyphs" textLength="403" x="43" y="1163.123">return sorted(bw_lines_tf, key=lambda x: x.bw, reverse=reverse)</text><ellipse cx="244.5" cy="1205.9531" fill="none" filter="url(#fq8tw0sgtkabn)" rx="10" ry="10" style="stroke: #000000; stroke-width: 1.0;"/><ellipse cx="245" cy="1206.4531" fill="#000000" filter="url(#fq8tw0sgtkabn)" rx="6" ry="6" style="stroke: none; stroke-width: 1.0;"/><line style="stroke: #A80036; stroke-width: 1.5;" x1="244.5" x2="244.5" y1="50.9531" y2="70.9531"/><polygon fill="#A80036" points="240.5,60.9531,244.5,70.9531,248.5,60.9531,244.5,64.9531" style="stroke: #A80036; stroke-width: 1.0;"/><line style="stroke: #A80036; stroke-width: 1.5;" x1="244.5" x2="244.5" y1="104.9219" y2="124.9219"/><polygon fill="#A80036" points="240.5,114.9219,244.5,124.9219,248.5,114.9219,244.5,118.9219" style="stroke: #A80036; stroke-width: 1.0;"/><line style="stroke: #A80036; stroke-width: 1.5;" x1="244.5" x2="244.5" y1="158.8906" y2="178.8906"/><polygon fill="#A80036" points="240.5,168.8906,244.5,178.8906,248.5,168.8906,244.5,172.8906" style="stroke: #A80036; stroke-width: 1.0;"/><line style="stroke: #A80036; stroke-width: 1.5;" x1="244.5" x2="244.5" y1="310.8281" y2="330.8281"/><polygon fill="#A80036" points="240.5,320.8281,244.5,330.8281,248.5,320.8281,244.5,324.8281" style="stroke: #A80036; stroke-width: 1.0;"/><line style="stroke: #A80036; stroke-width: 1.5;" x1="244.5" x2="244.5" y1="364.7969" y2="384.7969"/><polygon fill="#A80036" points="240.5,374.7969,244.5,384.7969,248.5,374.7969,244.5,378.7969" style="stroke: #A80036; stroke-width: 1.0;"/><line style="stroke: #A80036; stroke-width: 1.5;" x1="244.5" x2="244.5" y1="418.7656" y2="438.7656"/><polygon fill="#A80036" points="240.5,428.7656,244.5,438.7656,248.5,428.7656,244.5,432.7656" style="stroke: #A80036; stroke-width: 1.0;"/><line style="stroke: #A80036; stroke-width: 1.5;" x1="244.5" x2="244.5" y1="472.7344" y2="492.7344"/><polygon fill="#A80036" points="240.5,482.7344,244.5,492.7344,248.5,482.7344,244.5,486.7344" style="stroke: #A80036; stroke-width: 1.0;"/><line style="stroke: #A80036; stroke-width: 1.5;" x1="244.5" x2="244.5" y1="526.7031" y2="558.7695"/><polygon fill="#A80036" points="240.5,548.7695,244.5,558.7695,248.5,548.7695,244.5,552.7695" style="stroke: #A80036; stroke-width: 1.0;"/><line style="stroke: #A80036; stroke-width: 1.5;" x1="244.5" x2="244.5" y1="592.7383" y2="612.7383"/><polygon fill="#A80036" points="240.5,602.7383,244.5,612.7383,248.5,602.7383,244.5,606.7383" style="stroke: #A80036; stroke-width: 1.0;"/><line style="stroke: #A80036; stroke-width: 1.5;" x1="147.5" x2="147.5" y1="724.707" y2="749.1094"/><polygon fill="#A80036" points="143.5,739.1094,147.5,749.1094,151.5,739.1094,147.5,743.1094" style="stroke: #A80036; stroke-width: 1.0;"/><line style="stroke: #A80036; stroke-width: 1.5;" x1="249" x2="261" y1="712.707" y2="712.707"/><polygon fill="#A80036" points="257,756.0938,261,766.0938,265,756.0938,261,760.0938" style="stroke: #A80036; stroke-width: 1.5;"/><line style="stroke: #A80036; stroke-width: 1.5;" x1="261" x2="261" y1="712.707" y2="815.0781"/><line style="stroke: #A80036; stroke-width: 1.5;" x1="261" x2="159.5" y1="815.0781" y2="815.0781"/><polygon fill="#A80036" points="169.5,811.0781,159.5,815.0781,169.5,819.0781,165.5,815.0781" style="stroke: #A80036; stroke-width: 1.0;"/><line style="stroke: #A80036; stroke-width: 1.5;" x1="147.5" x2="147.5" y1="783.0781" y2="803.0781"/><polygon fill="#A80036" points="143.5,793.0781,147.5,803.0781,151.5,793.0781,147.5,797.0781" style="stroke: #A80036; stroke-width: 1.0;"/><line style="stroke: #A80036; stroke-width: 1.5;" x1="177.5" x2="147.5" y1="678.707" y2="678.707"/><line style="stroke: #A80036; stroke-width: 1.5;" x1="147.5" x2="147.5" y1="678.707" y2="700.707"/><polygon fill="#A80036" points="143.5,690.707,147.5,700.707,151.5,690.707,147.5,694.707" style="stroke: #A80036; stroke-width: 1.0;"/><line style="stroke: #A80036; stroke-width: 1.5;" x1="311.5" x2="341.5" y1="678.707" y2="678.707"/><line style="stroke: #A80036; stroke-width: 1.5;" x1="341.5" x2="341.5" y1="678.707" y2="700.707"/><polygon fill="#A80036" points="337.5,690.707,341.5,700.707,345.5,690.707,341.5,694.707" style="stroke: #A80036; stroke-width: 1.0;"/><line style="stroke: #A80036; stroke-width: 1.5;" x1="147.5" x2="147.5" y1="827.0781" y2="845.0781"/><line style="stroke: #A80036; stroke-width: 1.5;" x1="147.5" x2="232.5" y1="845.0781" y2="845.0781"/><polygon fill="#A80036" points="222.5,841.0781,232.5,845.0781,222.5,849.0781,226.5,845.0781" style="stroke: #A80036; stroke-width: 1.0;"/><line style="stroke: #A80036; stroke-width: 1.5;" x1="341.5" x2="341.5" y1="734.6758" y2="845.0781"/><line style="stroke: #A80036; stroke-width: 1.5;" x1="341.5" x2="256.5" y1="845.0781" y2="845.0781"/><polygon fill="#A80036" points="266.5,841.0781,256.5,845.0781,266.5,849.0781,262.5,845.0781" style="stroke: #A80036; stroke-width: 1.0;"/><line style="stroke: #A80036; stroke-width: 1.5;" x1="244.5" x2="244.5" y1="646.707" y2="666.707"/><polygon fill="#A80036" points="240.5,656.707,244.5,666.707,248.5,656.707,244.5,660.707" style="stroke: #A80036; stroke-width: 1.0;"/><line style="stroke: #A80036; stroke-width: 1.5;" x1="244.5" x2="244.5" y1="256.8594" y2="276.8594"/><polygon fill="#A80036" points="240.5,266.8594,244.5,276.8594,248.5,266.8594,244.5,270.8594" style="stroke: #A80036; stroke-width: 1.0;"/><line style="stroke: #A80036; stroke-width: 1.5;" x1="244.5" x2="244.5" y1="857.0781" y2="867.0781"/><line style="stroke: #A80036; stroke-width: 1.5;" x1="244.5" x2="454.5" y1="867.0781" y2="867.0781"/><polygon fill="#A80036" points="450.5,550.7031,454.5,540.7031,458.5,550.7031,454.5,546.7031" style="stroke: #A80036; stroke-width: 1.5;"/><line style="stroke: #A80036; stroke-width: 1.5;" x1="454.5" x2="454.5" y1="244.8594" y2="867.0781"/><line style="stroke: #A80036; stroke-width: 1.5;" x1="454.5" x2="304.5" y1="244.8594" y2="244.8594"/><polygon fill="#A80036" points="314.5,240.8594,304.5,244.8594,314.5,248.8594,310.5,244.8594" style="stroke: #A80036; stroke-width: 1.0;"/><line style="stroke: #A80036; stroke-width: 1.5;" x1="184.5" x2="24" y1="244.8594" y2="244.8594"/><polygon fill="#A80036" points="20,536.7031,24,546.7031,28,536.7031,24,540.7031" style="stroke: #A80036; stroke-width: 1.5;"/><line style="stroke: #A80036; stroke-width: 1.5;" x1="24" x2="24" y1="244.8594" y2="879.0781"/><line style="stroke: #A80036; stroke-width: 1.5;" x1="24" x2="244.5" y1="879.0781" y2="879.0781"/><line style="stroke: #A80036; stroke-width: 1.5;" x1="244.5" x2="244.5" y1="879.0781" y2="899.0781"/><polygon fill="#A80036" points="240.5,889.0781,244.5,899.0781,248.5,889.0781,244.5,893.0781" style="stroke: #A80036; stroke-width: 1.0;"/><line style="stroke: #A80036; stroke-width: 1.5;" x1="244.5" x2="244.5" y1="212.8594" y2="232.8594"/><polygon fill="#A80036" points="240.5,222.8594,244.5,232.8594,248.5,222.8594,244.5,226.8594" style="stroke: #A80036; stroke-width: 1.0;"/><line style="stroke: #A80036; stroke-width: 1.5;" x1="244.5" x2="244.5" y1="1031.0156" y2="1066.0156"/><polygon fill="#A80036" points="240.5,1056.0156,244.5,1066.0156,248.5,1056.0156,244.5,1060.0156" style="stroke: #A80036; stroke-width: 1.0;"/><line style="stroke: #A80036; stroke-width: 1.5;" x1="244.5" x2="244.5" y1="977.0469" y2="997.0469"/><polygon fill="#A80036" points="240.5,987.0469,244.5,997.0469,248.5,987.0469,244.5,991.0469" style="stroke: #A80036; stroke-width: 1.0;"/><line style="stroke: #A80036; stroke-width: 1.5;" x1="244.5" x2="244.5" y1="1099.9844" y2="1109.9844"/><line style="stroke: #A80036; stroke-width: 1.5;" x1="244.5" x2="457.5" y1="1109.9844" y2="1109.9844"/><polygon fill="#A80036" points="453.5,1046.5156,457.5,1036.5156,461.5,1046.5156,457.5,1042.5156" style="stroke: #A80036; stroke-width: 1.5;"/><line style="stroke: #A80036; stroke-width: 1.5;" x1="457.5" x2="457.5" y1="965.0469" y2="1109.9844"/><line style="stroke: #A80036; stroke-width: 1.5;" x1="457.5" x2="304.5" y1="965.0469" y2="965.0469"/><polygon fill="#A80036" points="314.5,961.0469,304.5,965.0469,314.5,969.0469,310.5,965.0469" style="stroke: #A80036; stroke-width: 1.0;"/><line style="stroke: #A80036; stroke-width: 1.5;" x1="184.5" x2="31.5" y1="965.0469" y2="965.0469"/><polygon fill="#A80036" points="27.5,1032.5156,31.5,1042.5156,35.5,1032.5156,31.5,1036.5156" style="stroke: #A80036; stroke-width: 1.5;"/><line style="stroke: #A80036; stroke-width: 1.5;" x1="31.5" x2="31.5" y1="965.0469" y2="1121.9844"/><line style="stroke: #A80036; stroke-width: 1.5;" x1="31.5" x2="244.5" y1="1121.9844" y2="1121.9844"/><line style="stroke: #A80036; stroke-width: 1.5;" x1="244.5" x2="244.5" y1="1121.9844" y2="1141.9844"/><polygon fill="#A80036" points="240.5,1131.9844,244.5,1141.9844,248.5,1131.9844,244.5,1135.9844" style="stroke: #A80036; stroke-width: 1.0;"/><line style="stroke: #A80036; stroke-width: 1.5;" x1="244.5" x2="244.5" y1="933.0469" y2="953.0469"/><polygon fill="#A80036" points="240.5,943.0469,244.5,953.0469,248.5,943.0469,244.5,947.0469" style="stroke: #A80036; stroke-width: 1.0;"/><line style="stroke: #A80036; stroke-width: 1.5;" x1="244.5" x2="244.5" y1="1175.9531" y2="1195.9531"/><polygon fill="#A80036" points="240.5,1185.9531,244.5,1195.9531,248.5,1185.9531,244.5,1189.9531" style="stroke: #A80036; stroke-width: 1.0;"/><text fill="#888888" font-family="sans-serif" font-size="10" lengthAdjust="spacingAndGlyphs" textLength="119" x="181.25" y="1224.2354">last updated 2021-01-08</text><!--
@startuml

title Activity diagram sbws bw_torflow_scale

start
:mu = mean([l.bw_mean for l in bw_lines]);
:muf = mean([l.bw_filt for l in bw_lines]);
:sum_bw = 0;
while (for l in bw_lines?)
    :bw_obs;
    :desc_bw = min(desc_bw_obs, l.desc_bw_bur, l.desc_bw_avg);
    :min_bandwidth = min(desc_bw, l.consensus_bandwidth);
    :ratio_stream = l.bw_mean / mu;
    :ratio_stream_filtered = l.bw_filt / muf;
    :ratio = max(ratio_stream, ratio_stream_filtered);
    :l.bw = ratio * min_bandwidth;
    if (router_statuses_d?) then (yes)
        if (l.node_id in router_statuses_d?) then (yes)
            :sum_bw += l.bw;
        endif
    else (no)
        :sum_bw += l.bw;
    endif
endwhile
:hlimit = sum_bw * cap;
while (for l in bw_lines?)
    :bw_scaled = min(hlimit, l.bw);
    :l.bw = kb_round_x_sig_dig(bw_scaled, digits=num_round_dig);
endwhile
:return sorted(bw_lines_tf, key=lambda x: x.bw, reverse=reverse);
stop

footer last updated 2021-01-08
@enduml

PlantUML version 1.2018.13(Mon Nov 26 17:11:51 GMT 2018)
(GPL source distribution)
Java Runtime: OpenJDK Runtime Environment
JVM: OpenJDK 64-Bit Server VM
Java Version: 11.0.9.1+1-post-Debian-1deb10u2
Operating System: Linux
OS Version: 4.19.0-13-amd64
Default Encoding: UTF-8
Language: en
Country: US
--></g></svg>