<?xml version="1.0" encoding="UTF-8" standalone="no"?>
<!DOCTYPE svg PUBLIC "-//W3C//DTD SVG 1.1//EN"
 "http://www.w3.org/Graphics/SVG/1.1/DTD/svg11.dtd">
<!-- Generated by graphviz version 2.38.0 (20140413.2041)
 -->
<!-- Title: classes_sbws Pages: 1 -->
<svg width="1965pt" height="619pt"
 viewBox="0.00 0.00 1965.00 619.00" xmlns="http://www.w3.org/2000/svg" xmlns:xlink="http://www.w3.org/1999/xlink">
<g id="graph0" class="graph" transform="scale(1 1) rotate(0) translate(4 615)">
<title>classes_sbws</title>
<polygon fill="white" stroke="none" points="-4,4 -4,-615 1961,-615 1961,4 -4,4"/>
<!-- 0 -->
<g id="node1" class="node"><title>0</title>
<polygon fill="none" stroke="black" points="0,-436.5 0,-610.5 173,-610.5 173,-436.5 0,-436.5"/>
<text text-anchor="middle" x="86.5" y="-595.3" font-family="Times,serif" font-size="14.00">CircuitBuilder</text>
<polyline fill="none" stroke="black" points="0,-587.5 173,-587.5 "/>
<text text-anchor="start" x="8" y="-572.3" font-family="Times,serif" font-size="14.00">built_circuits : set</text>
<text text-anchor="start" x="8" y="-557.3" font-family="Times,serif" font-size="14.00">circuit_timeout</text>
<text text-anchor="start" x="8" y="-542.3" font-family="Times,serif" font-size="14.00">close_circuits_on_exit : bool</text>
<text text-anchor="start" x="8" y="-527.3" font-family="Times,serif" font-size="14.00">controller</text>
<text text-anchor="start" x="8" y="-512.3" font-family="Times,serif" font-size="14.00">relay_list</text>
<text text-anchor="start" x="8" y="-497.3" font-family="Times,serif" font-size="14.00">relays</text>
<text text-anchor="start" x="8" y="-482.3" font-family="Times,serif" font-size="14.00">rng : SystemRandom</text>
<polyline fill="none" stroke="black" points="0,-474.5 173,-474.5 "/>
<text text-anchor="start" x="8" y="-459.3" font-family="Times,serif" font-size="14.00">build_circuit()</text>
<text text-anchor="start" x="8" y="-444.3" font-family="Times,serif" font-size="14.00">close_circuit()</text>
</g>
<!-- 1 -->
<g id="node2" class="node"><title>1</title>
<polygon fill="none" stroke="black" points="165.5,-135.5 165.5,-264.5 259.5,-264.5 259.5,-135.5 165.5,-135.5"/>
<text text-anchor="middle" x="212.5" y="-249.3" font-family="Times,serif" font-size="14.00">Destination</text>
<polyline fill="none" stroke="black" points="165.5,-241.5 259.5,-241.5 "/>
<text text-anchor="start" x="173.5" y="-226.3" font-family="Times,serif" font-size="14.00">hostname</text>
<text text-anchor="start" x="173.5" y="-211.3" font-family="Times,serif" font-size="14.00">port</text>
<text text-anchor="start" x="173.5" y="-196.3" font-family="Times,serif" font-size="14.00">url</text>
<text text-anchor="start" x="173.5" y="-181.3" font-family="Times,serif" font-size="14.00">verify</text>
<polyline fill="none" stroke="black" points="165.5,-173.5 259.5,-173.5 "/>
<text text-anchor="start" x="173.5" y="-158.3" font-family="Times,serif" font-size="14.00">from_config()</text>
<text text-anchor="start" x="173.5" y="-143.3" font-family="Times,serif" font-size="14.00">is_usable()</text>
</g>
<!-- 2 -->
<g id="node3" class="node"><title>2</title>
<polygon fill="none" stroke="black" points="277.5,-157.5 277.5,-242.5 377.5,-242.5 377.5,-157.5 277.5,-157.5"/>
<text text-anchor="middle" x="327.5" y="-227.3" font-family="Times,serif" font-size="14.00">DestinationList</text>
<polyline fill="none" stroke="black" points="277.5,-219.5 377.5,-219.5 "/>
<polyline fill="none" stroke="black" points="277.5,-195.5 377.5,-195.5 "/>
<text text-anchor="start" x="285.5" y="-180.3" font-family="Times,serif" font-size="14.00">from_config()</text>
<text text-anchor="start" x="285.5" y="-165.3" font-family="Times,serif" font-size="14.00">next()</text>
</g>
<!-- 3 -->
<g id="node4" class="node"><title>3</title>
<polygon fill="none" stroke="black" points="395.5,-165 395.5,-235 491.5,-235 491.5,-165 395.5,-165"/>
<text text-anchor="middle" x="443.5" y="-219.8" font-family="Times,serif" font-size="14.00">DirectoryLock</text>
<polyline fill="none" stroke="black" points="395.5,-212 491.5,-212 "/>
<polyline fill="none" stroke="black" points="395.5,-188 491.5,-188 "/>
<text text-anchor="middle" x="443.5" y="-172.8" font-family="Times,serif" font-size="14.00"> </text>
</g>
<!-- 14 -->
<g id="node15" class="node"><title>14</title>
<polygon fill="none" stroke="black" points="463,-488.5 463,-558.5 522,-558.5 522,-488.5 463,-488.5"/>
<text text-anchor="middle" x="492.5" y="-543.3" font-family="Times,serif" font-size="14.00">_FLock</text>
<polyline fill="none" stroke="black" points="463,-535.5 522,-535.5 "/>
<polyline fill="none" stroke="black" points="463,-511.5 522,-511.5 "/>
<text text-anchor="middle" x="492.5" y="-496.3" font-family="Times,serif" font-size="14.00"> </text>
</g>
<!-- 3&#45;&gt;14 -->
<g id="edge1" class="edge"><title>3&#45;&gt;14</title>
<path fill="none" stroke="black" d="M448.697,-235.102C457.628,-293.7 475.879,-413.445 485.769,-478.338"/>
<polygon fill="none" stroke="black" points="482.315,-478.906 487.282,-488.264 489.235,-477.851 482.315,-478.906"/>
</g>
<!-- 4 -->
<g id="node5" class="node"><title>4</title>
<polygon fill="none" stroke="black" points="510,-165 510,-235 575,-235 575,-165 510,-165"/>
<text text-anchor="middle" x="542.5" y="-219.8" font-family="Times,serif" font-size="14.00">FileLock</text>
<polyline fill="none" stroke="black" points="510,-212 575,-212 "/>
<polyline fill="none" stroke="black" points="510,-188 575,-188 "/>
<text text-anchor="middle" x="542.5" y="-172.8" font-family="Times,serif" font-size="14.00"> </text>
</g>
<!-- 4&#45;&gt;14 -->
<g id="edge2" class="edge"><title>4&#45;&gt;14</title>
<path fill="none" stroke="black" d="M537.196,-235.102C528.083,-293.7 509.46,-413.445 499.368,-478.338"/>
<polygon fill="none" stroke="black" points="495.903,-477.845 497.824,-488.264 502.82,-478.921 495.903,-477.845"/>
</g>
<!-- 5 -->
<g id="node6" class="node"><title>5</title>
<polygon fill="none" stroke="black" points="25.5,-165 25.5,-235 147.5,-235 147.5,-165 25.5,-165"/>
<text text-anchor="middle" x="86.5" y="-219.8" font-family="Times,serif" font-size="14.00">GapsCircuitBuilder</text>
<polyline fill="none" stroke="black" points="25.5,-212 147.5,-212 "/>
<polyline fill="none" stroke="black" points="25.5,-188 147.5,-188 "/>
<text text-anchor="start" x="33.5" y="-172.8" font-family="Times,serif" font-size="14.00">build_circuit()</text>
</g>
<!-- 5&#45;&gt;0 -->
<g id="edge3" class="edge"><title>5&#45;&gt;0</title>
<path fill="none" stroke="black" d="M86.5,-235.102C86.5,-280.201 86.5,-361.52 86.5,-426.176"/>
<polygon fill="none" stroke="black" points="83.0001,-426.402 86.5,-436.402 90.0001,-426.402 83.0001,-426.402"/>
</g>
<!-- 6 -->
<g id="node7" class="node"><title>6</title>
<polygon fill="none" stroke="black" points="593.5,-165.5 593.5,-234.5 727.5,-234.5 727.5,-165.5 593.5,-165.5"/>
<text text-anchor="middle" x="660.5" y="-219.3" font-family="Times,serif" font-size="14.00" fill="red">PathLengthException</text>
<polyline fill="none" stroke="black" points="593.5,-211.5 727.5,-211.5 "/>
<text text-anchor="start" x="601.5" y="-196.3" font-family="Times,serif" font-size="14.00" fill="red">errors : NoneType</text>
<polyline fill="none" stroke="black" points="593.5,-188.5 727.5,-188.5 "/>
<text text-anchor="middle" x="660.5" y="-173.3" font-family="Times,serif" font-size="14.00" fill="red"> </text>
</g>
<!-- 7 -->
<g id="node8" class="node"><title>7</title>
<polygon fill="none" stroke="black" points="746,-105.5 746,-294.5 879,-294.5 879,-105.5 746,-105.5"/>
<text text-anchor="middle" x="812.5" y="-279.3" font-family="Times,serif" font-size="14.00">Relay</text>
<polyline fill="none" stroke="black" points="746,-271.5 879,-271.5 "/>
<text text-anchor="start" x="754" y="-256.3" font-family="Times,serif" font-size="14.00">address</text>
<text text-anchor="start" x="754" y="-241.3" font-family="Times,serif" font-size="14.00">average_bandwidth</text>
<text text-anchor="start" x="754" y="-226.3" font-family="Times,serif" font-size="14.00">bandwidth</text>
<text text-anchor="start" x="754" y="-211.3" font-family="Times,serif" font-size="14.00">exit_policy</text>
<text text-anchor="start" x="754" y="-196.3" font-family="Times,serif" font-size="14.00">fingerprint</text>
<text text-anchor="start" x="754" y="-181.3" font-family="Times,serif" font-size="14.00">flags</text>
<text text-anchor="start" x="754" y="-166.3" font-family="Times,serif" font-size="14.00">master_key_ed25519</text>
<text text-anchor="start" x="754" y="-151.3" font-family="Times,serif" font-size="14.00">nickname</text>
<text text-anchor="start" x="754" y="-136.3" font-family="Times,serif" font-size="14.00">observed_bandwidth</text>
<polyline fill="none" stroke="black" points="746,-128.5 879,-128.5 "/>
<text text-anchor="start" x="754" y="-113.3" font-family="Times,serif" font-size="14.00">can_exit_to()</text>
</g>
<!-- 8 -->
<g id="node9" class="node"><title>8</title>
<polygon fill="none" stroke="black" points="897.5,-105.5 897.5,-294.5 1073.5,-294.5 1073.5,-105.5 897.5,-105.5"/>
<text text-anchor="middle" x="985.5" y="-279.3" font-family="Times,serif" font-size="14.00">RelayList</text>
<polyline fill="none" stroke="black" points="897.5,-271.5 1073.5,-271.5 "/>
<text text-anchor="start" x="905.5" y="-256.3" font-family="Times,serif" font-size="14.00">REFRESH_INTERVAL : int</text>
<text text-anchor="start" x="905.5" y="-241.3" font-family="Times,serif" font-size="14.00">authorities</text>
<text text-anchor="start" x="905.5" y="-226.3" font-family="Times,serif" font-size="14.00">bad_exits</text>
<text text-anchor="start" x="905.5" y="-211.3" font-family="Times,serif" font-size="14.00">exits</text>
<text text-anchor="start" x="905.5" y="-196.3" font-family="Times,serif" font-size="14.00">fast</text>
<text text-anchor="start" x="905.5" y="-181.3" font-family="Times,serif" font-size="14.00">guards</text>
<text text-anchor="start" x="905.5" y="-166.3" font-family="Times,serif" font-size="14.00">non_exits</text>
<text text-anchor="start" x="905.5" y="-151.3" font-family="Times,serif" font-size="14.00">relays</text>
<text text-anchor="start" x="905.5" y="-136.3" font-family="Times,serif" font-size="14.00">rng : SystemRandom</text>
<polyline fill="none" stroke="black" points="897.5,-128.5 1073.5,-128.5 "/>
<text text-anchor="start" x="905.5" y="-113.3" font-family="Times,serif" font-size="14.00">random_relay()</text>
</g>
<!-- 9 -->
<g id="node10" class="node"><title>9</title>
<polygon fill="none" stroke="black" points="1091.5,-128 1091.5,-272 1217.5,-272 1217.5,-128 1091.5,-128"/>
<text text-anchor="middle" x="1154.5" y="-256.8" font-family="Times,serif" font-size="14.00">RelayPrioritizer</text>
<polyline fill="none" stroke="black" points="1091.5,-249 1217.5,-249 "/>
<text text-anchor="start" x="1099.5" y="-233.8" font-family="Times,serif" font-size="14.00">fraction_to_return</text>
<text text-anchor="start" x="1099.5" y="-218.8" font-family="Times,serif" font-size="14.00">fresh_seconds</text>
<text text-anchor="start" x="1099.5" y="-203.8" font-family="Times,serif" font-size="14.00">measure_authorities</text>
<text text-anchor="start" x="1099.5" y="-188.8" font-family="Times,serif" font-size="14.00">min_to_return</text>
<text text-anchor="start" x="1099.5" y="-173.8" font-family="Times,serif" font-size="14.00">relay_list</text>
<text text-anchor="start" x="1099.5" y="-158.8" font-family="Times,serif" font-size="14.00">result_dump</text>
<polyline fill="none" stroke="black" points="1091.5,-151 1217.5,-151 "/>
<text text-anchor="start" x="1099.5" y="-135.8" font-family="Times,serif" font-size="14.00">best_priority()</text>
</g>
<!-- 10 -->
<g id="node11" class="node"><title>10</title>
<polygon fill="none" stroke="black" points="1235.5,-165 1235.5,-235 1289.5,-235 1289.5,-165 1235.5,-165"/>
<text text-anchor="middle" x="1262.5" y="-219.8" font-family="Times,serif" font-size="14.00">State</text>
<polyline fill="none" stroke="black" points="1235.5,-212 1289.5,-212 "/>
<polyline fill="none" stroke="black" points="1235.5,-188 1289.5,-188 "/>
<text text-anchor="start" x="1243.5" y="-172.8" font-family="Times,serif" font-size="14.00">get()</text>
</g>
<!-- 11 -->
<g id="node12" class="node"><title>11</title>
<polygon fill="none" stroke="black" points="1307.5,-0.5 1307.5,-399.5 1505.5,-399.5 1505.5,-0.5 1307.5,-0.5"/>
<text text-anchor="middle" x="1406.5" y="-384.3" font-family="Times,serif" font-size="14.00">V3BWFile</text>
<polyline fill="none" stroke="black" points="1307.5,-376.5 1505.5,-376.5 "/>
<text text-anchor="start" x="1315.5" y="-361.3" font-family="Times,serif" font-size="14.00">bw_lines</text>
<text text-anchor="start" x="1315.5" y="-346.3" font-family="Times,serif" font-size="14.00">header</text>
<text text-anchor="start" x="1315.5" y="-331.3" font-family="Times,serif" font-size="14.00">info_stats</text>
<text text-anchor="start" x="1315.5" y="-316.3" font-family="Times,serif" font-size="14.00">is_min_perc</text>
<text text-anchor="start" x="1315.5" y="-301.3" font-family="Times,serif" font-size="14.00">max_bw</text>
<text text-anchor="start" x="1315.5" y="-286.3" font-family="Times,serif" font-size="14.00">mean_bw</text>
<text text-anchor="start" x="1315.5" y="-271.3" font-family="Times,serif" font-size="14.00">median_bw</text>
<text text-anchor="start" x="1315.5" y="-256.3" font-family="Times,serif" font-size="14.00">min_bw</text>
<text text-anchor="start" x="1315.5" y="-241.3" font-family="Times,serif" font-size="14.00">num</text>
<text text-anchor="start" x="1315.5" y="-226.3" font-family="Times,serif" font-size="14.00">sum_bw</text>
<polyline fill="none" stroke="black" points="1307.5,-218.5 1505.5,-218.5 "/>
<text text-anchor="start" x="1315.5" y="-203.3" font-family="Times,serif" font-size="14.00">bw_kb()</text>
<text text-anchor="start" x="1315.5" y="-188.3" font-family="Times,serif" font-size="14.00">bw_line_for_node_id()</text>
<text text-anchor="start" x="1315.5" y="-173.3" font-family="Times,serif" font-size="14.00">bw_sbws_scale()</text>
<text text-anchor="start" x="1315.5" y="-158.3" font-family="Times,serif" font-size="14.00">bw_torflow_scale()</text>
<text text-anchor="start" x="1315.5" y="-143.3" font-family="Times,serif" font-size="14.00">from_results()</text>
<text text-anchor="start" x="1315.5" y="-128.3" font-family="Times,serif" font-size="14.00">from_v100_fpath()</text>
<text text-anchor="start" x="1315.5" y="-113.3" font-family="Times,serif" font-size="14.00">from_v110_fpath()</text>
<text text-anchor="start" x="1315.5" y="-98.3" font-family="Times,serif" font-size="14.00">is_max_bw_diff_perc_reached()</text>
<text text-anchor="start" x="1315.5" y="-83.3" font-family="Times,serif" font-size="14.00">measured_progress_stats()</text>
<text text-anchor="start" x="1315.5" y="-68.3" font-family="Times,serif" font-size="14.00">read_number_consensus_relays()</text>
<text text-anchor="start" x="1315.5" y="-53.3" font-family="Times,serif" font-size="14.00">to_plt()</text>
<text text-anchor="start" x="1315.5" y="-38.3" font-family="Times,serif" font-size="14.00">update_progress()</text>
<text text-anchor="start" x="1315.5" y="-23.3" font-family="Times,serif" font-size="14.00">warn_if_not_accurate_enough()</text>
<text text-anchor="start" x="1315.5" y="-8.3" font-family="Times,serif" font-size="14.00">write()</text>
</g>
<!-- 12 -->
<g id="node13" class="node"><title>12</title>
<polygon fill="none" stroke="black" points="1523.5,-23 1523.5,-377 1727.5,-377 1727.5,-23 1523.5,-23"/>
<text text-anchor="middle" x="1625.5" y="-361.8" font-family="Times,serif" font-size="14.00">V3BWHeader</text>
<polyline fill="none" stroke="black" points="1523.5,-354 1727.5,-354 "/>
<text text-anchor="start" x="1531.5" y="-338.8" font-family="Times,serif" font-size="14.00">file_created</text>
<text text-anchor="start" x="1531.5" y="-323.8" font-family="Times,serif" font-size="14.00">keyvalue_tuple_ls</text>
<text text-anchor="start" x="1531.5" y="-308.8" font-family="Times,serif" font-size="14.00">keyvalue_unordered_tuple_ls</text>
<text text-anchor="start" x="1531.5" y="-293.8" font-family="Times,serif" font-size="14.00">keyvalue_v110str_ls</text>
<text text-anchor="start" x="1531.5" y="-278.8" font-family="Times,serif" font-size="14.00">keyvalue_v200_ls</text>
<text text-anchor="start" x="1531.5" y="-263.8" font-family="Times,serif" font-size="14.00">latest_bandwidth</text>
<text text-anchor="start" x="1531.5" y="-248.8" font-family="Times,serif" font-size="14.00">num_lines</text>
<text text-anchor="start" x="1531.5" y="-233.8" font-family="Times,serif" font-size="14.00">software</text>
<text text-anchor="start" x="1531.5" y="-218.8" font-family="Times,serif" font-size="14.00">software_version</text>
<text text-anchor="start" x="1531.5" y="-203.8" font-family="Times,serif" font-size="14.00">strv110</text>
<text text-anchor="start" x="1531.5" y="-188.8" font-family="Times,serif" font-size="14.00">strv200</text>
<text text-anchor="start" x="1531.5" y="-173.8" font-family="Times,serif" font-size="14.00">timestamp</text>
<text text-anchor="start" x="1531.5" y="-158.8" font-family="Times,serif" font-size="14.00">version</text>
<polyline fill="none" stroke="black" points="1523.5,-151 1727.5,-151 "/>
<text text-anchor="start" x="1531.5" y="-135.8" font-family="Times,serif" font-size="14.00">add_stats()</text>
<text text-anchor="start" x="1531.5" y="-120.8" font-family="Times,serif" font-size="14.00">earliest_bandwidth_from_results()</text>
<text text-anchor="start" x="1531.5" y="-105.8" font-family="Times,serif" font-size="14.00">from_lines_v100()</text>
<text text-anchor="start" x="1531.5" y="-90.8" font-family="Times,serif" font-size="14.00">from_lines_v110()</text>
<text text-anchor="start" x="1531.5" y="-75.8" font-family="Times,serif" font-size="14.00">from_results()</text>
<text text-anchor="start" x="1531.5" y="-60.8" font-family="Times,serif" font-size="14.00">from_text_v110()</text>
<text text-anchor="start" x="1531.5" y="-45.8" font-family="Times,serif" font-size="14.00">generator_started_from_file()</text>
<text text-anchor="start" x="1531.5" y="-30.8" font-family="Times,serif" font-size="14.00">latest_bandwidth_from_results()</text>
</g>
<!-- 13 -->
<g id="node14" class="node"><title>13</title>
<polygon fill="none" stroke="black" points="1746,-53 1746,-347 1957,-347 1957,-53 1746,-53"/>
<text text-anchor="middle" x="1851.5" y="-331.8" font-family="Times,serif" font-size="14.00">V3BWLine</text>
<polyline fill="none" stroke="black" points="1746,-324 1957,-324 "/>
<text text-anchor="start" x="1754" y="-308.8" font-family="Times,serif" font-size="14.00">bw</text>
<text text-anchor="start" x="1754" y="-293.8" font-family="Times,serif" font-size="14.00">bw_keyvalue_tuple_ls</text>
<text text-anchor="start" x="1754" y="-278.8" font-family="Times,serif" font-size="14.00">bw_keyvalue_v110str_ls</text>
<text text-anchor="start" x="1754" y="-263.8" font-family="Times,serif" font-size="14.00">bw_strv110</text>
<text text-anchor="start" x="1754" y="-248.8" font-family="Times,serif" font-size="14.00">node_id</text>
<polyline fill="none" stroke="black" points="1746,-241 1957,-241 "/>
<text text-anchor="start" x="1754" y="-225.8" font-family="Times,serif" font-size="14.00">bw_mean_from_results()</text>
<text text-anchor="start" x="1754" y="-210.8" font-family="Times,serif" font-size="14.00">bw_median_from_results()</text>
<text text-anchor="start" x="1754" y="-195.8" font-family="Times,serif" font-size="14.00">desc_bw_obs_last_from_results()</text>
<text text-anchor="start" x="1754" y="-180.8" font-family="Times,serif" font-size="14.00">desc_bw_obs_mean_from_results()</text>
<text text-anchor="start" x="1754" y="-165.8" font-family="Times,serif" font-size="14.00">from_bw_line_v110()</text>
<text text-anchor="start" x="1754" y="-150.8" font-family="Times,serif" font-size="14.00">from_data()</text>
<text text-anchor="start" x="1754" y="-135.8" font-family="Times,serif" font-size="14.00">from_results()</text>
<text text-anchor="start" x="1754" y="-120.8" font-family="Times,serif" font-size="14.00">last_time_from_results()</text>
<text text-anchor="start" x="1754" y="-105.8" font-family="Times,serif" font-size="14.00">result_types_from_results()</text>
<text text-anchor="start" x="1754" y="-90.8" font-family="Times,serif" font-size="14.00">results_away_each_other()</text>
<text text-anchor="start" x="1754" y="-75.8" font-family="Times,serif" font-size="14.00">results_recent_than()</text>
<text text-anchor="start" x="1754" y="-60.8" font-family="Times,serif" font-size="14.00">rtt_from_results()</text>
</g>
</g>
</svg>
