<?xml version="1.0" encoding="UTF-8" standalone="no"?><svg xmlns="http://www.w3.org/2000/svg" xmlns:xlink="http://www.w3.org/1999/xlink" contentScriptType="application/ecmascript" contentStyleType="text/css" height="1055px" preserveAspectRatio="none" style="width:1434px;height:1055px;" version="1.1" viewBox="0 0 1434 1055" width="1434px" zoomAndPan="magnify"><defs><filter height="300%" id="f89aw80" width="300%" x="-1" y="-1"><feGaussianBlur result="blurOut" stdDeviation="2.0"/><feColorMatrix in="blurOut" result="blurOut2" type="matrix" values="0 0 0 0 0 0 0 0 0 0 0 0 0 0 0 0 0 0 .4 0"/><feOffset dx="4.0" dy="4.0" in="blurOut2" result="blurOut3"/><feBlend in="SourceGraphic" in2="blurOut3" mode="normal"/></filter></defs><g><!--class RelayList--><rect fill="#FEFECE" filter="url(#f89aw80)" height="124.8281" style="stroke: #A80036; stroke-width: 1.5;" width="258" x="915" y="640.5"/><ellipse cx="1012.75" cy="656.5" fill="#ADD1B2" rx="11" ry="11" style="stroke: #A80036; stroke-width: 1.0;"/><path d="M1015.7188,662.1406 Q1015.1406,662.4375 1014.5,662.5859 Q1013.8594,662.7344 1013.1563,662.7344 Q1010.6563,662.7344 1009.3359,661.0859 Q1008.0156,659.4375 1008.0156,656.3125 Q1008.0156,653.1875 1009.3359,651.5313 Q1010.6563,649.875 1013.1563,649.875 Q1013.8594,649.875 1014.5078,650.0313 Q1015.1563,650.1875 1015.7188,650.4844 L1015.7188,653.2031 Q1015.0938,652.625 1014.5,652.3516 Q1013.9063,652.0781 1013.2813,652.0781 Q1011.9375,652.0781 1011.25,653.1484 Q1010.5625,654.2188 1010.5625,656.3125 Q1010.5625,658.4063 1011.25,659.4766 Q1011.9375,660.5469 1013.2813,660.5469 Q1013.9063,660.5469 1014.5,660.2734 Q1015.0938,660 1015.7188,659.4219 L1015.7188,662.1406 Z "/><text fill="#000000" font-family="sans-serif" font-size="12" lengthAdjust="spacingAndGlyphs" textLength="54" x="1033.25" y="660.6543">RelayList</text><line style="stroke: #A80036; stroke-width: 1.5;" x1="916" x2="1172" y1="672.5" y2="672.5"/><text fill="#000000" font-family="sans-serif" font-size="11" lengthAdjust="spacingAndGlyphs" textLength="56" x="921" y="686.7104">list relays</text><text fill="#000000" font-family="sans-serif" font-size="11" lengthAdjust="spacingAndGlyphs" textLength="75" x="921" y="699.5151">list bad_exits</text><text fill="#000000" font-family="sans-serif" font-size="11" lengthAdjust="spacingAndGlyphs" textLength="48" x="921" y="712.3198">list exits</text><text fill="#000000" font-family="sans-serif" font-size="11" lengthAdjust="spacingAndGlyphs" textLength="75" x="921" y="725.1245">list non_exits</text><line style="stroke: #A80036; stroke-width: 1.5;" x1="916" x2="1172" y1="731.7188" y2="731.7188"/><text fill="#000000" font-family="sans-serif" font-size="11" lengthAdjust="spacingAndGlyphs" textLength="120" x="921" y="745.9292">Relay random_relay()</text><text fill="#000000" font-family="sans-serif" font-size="11" lengthAdjust="spacingAndGlyphs" textLength="246" x="921" y="758.7339">list exits_not_bad_can_exit_to_port(int port)</text><!--class Relay--><rect fill="#FEFECE" filter="url(#f89aw80)" height="214.4609" style="stroke: #A80036; stroke-width: 1.5;" width="257" x="915.5" y="832"/><ellipse cx="1023.25" cy="848" fill="#ADD1B2" rx="11" ry="11" style="stroke: #A80036; stroke-width: 1.0;"/><path d="M1026.2188,853.6406 Q1025.6406,853.9375 1025,854.0859 Q1024.3594,854.2344 1023.6563,854.2344 Q1021.1563,854.2344 1019.8359,852.5859 Q1018.5156,850.9375 1018.5156,847.8125 Q1018.5156,844.6875 1019.8359,843.0313 Q1021.1563,841.375 1023.6563,841.375 Q1024.3594,841.375 1025.0078,841.5313 Q1025.6563,841.6875 1026.2188,841.9844 L1026.2188,844.7031 Q1025.5938,844.125 1025,843.8516 Q1024.4063,843.5781 1023.7813,843.5781 Q1022.4375,843.5781 1021.75,844.6484 Q1021.0625,845.7188 1021.0625,847.8125 Q1021.0625,849.9063 1021.75,850.9766 Q1022.4375,852.0469 1023.7813,852.0469 Q1024.4063,852.0469 1025,851.7734 Q1025.5938,851.5 1026.2188,850.9219 L1026.2188,853.6406 Z "/><text fill="#000000" font-family="sans-serif" font-size="12" lengthAdjust="spacingAndGlyphs" textLength="33" x="1043.75" y="852.1543">Relay</text><line style="stroke: #A80036; stroke-width: 1.5;" x1="916.5" x2="1171.5" y1="864" y2="864"/><text fill="#000000" font-family="sans-serif" font-size="11" lengthAdjust="spacingAndGlyphs" textLength="74" x="921.5" y="878.2104">str nickname</text><text fill="#000000" font-family="sans-serif" font-size="11" lengthAdjust="spacingAndGlyphs" textLength="79" x="921.5" y="891.0151">str fingerprint</text><text fill="#000000" font-family="sans-serif" font-size="11" lengthAdjust="spacingAndGlyphs" textLength="49" x="921.5" y="903.8198">list flags</text><text fill="#000000" font-family="sans-serif" font-size="11" lengthAdjust="spacingAndGlyphs" textLength="114" x="921.5" y="916.6245">ExitPolicy exit_policy</text><text fill="#000000" font-family="sans-serif" font-size="11" lengthAdjust="spacingAndGlyphs" textLength="67" x="921.5" y="929.4292">str address</text><text fill="#000000" font-family="sans-serif" font-size="11" lengthAdjust="spacingAndGlyphs" textLength="141" x="921.5" y="942.2339">str master_key_ed25519</text><text fill="#000000" font-family="sans-serif" font-size="11" lengthAdjust="spacingAndGlyphs" textLength="135" x="921.5" y="955.0386">int observed_bandwidth</text><text fill="#000000" font-family="sans-serif" font-size="11" lengthAdjust="spacingAndGlyphs" textLength="128" x="921.5" y="967.8433">int average_bandwidth</text><text fill="#000000" font-family="sans-serif" font-size="11" lengthAdjust="spacingAndGlyphs" textLength="112" x="921.5" y="980.6479">int burst_bandwidth</text><text fill="#000000" font-family="sans-serif" font-size="11" lengthAdjust="spacingAndGlyphs" textLength="144" x="921.5" y="993.4526">int consensus_bandwidth</text><text fill="#000000" font-family="sans-serif" font-size="11" lengthAdjust="spacingAndGlyphs" textLength="238" x="921.5" y="1006.2573">int consensus_bandwidth_is_unmeasured</text><line style="stroke: #A80036; stroke-width: 1.5;" x1="916.5" x2="1171.5" y1="1012.8516" y2="1012.8516"/><text fill="#000000" font-family="sans-serif" font-size="11" lengthAdjust="spacingAndGlyphs" textLength="169" x="921.5" y="1027.062">bool can_exit_to_port(int port)</text><text fill="#000000" font-family="sans-serif" font-size="11" lengthAdjust="spacingAndGlyphs" textLength="245" x="921.5" y="1039.8667">bool is_exit_not_bad_allowing_port(int port)</text><!--class RelayPrioritizer--><rect fill="#FEFECE" filter="url(#f89aw80)" height="86.4141" style="stroke: #A80036; stroke-width: 1.5;" width="155" x="887.5" y="117"/><ellipse cx="916.9" cy="133" fill="#ADD1B2" rx="11" ry="11" style="stroke: #A80036; stroke-width: 1.0;"/><path d="M919.8688,138.6406 Q919.2906,138.9375 918.65,139.0859 Q918.0094,139.2344 917.3063,139.2344 Q914.8063,139.2344 913.4859,137.5859 Q912.1656,135.9375 912.1656,132.8125 Q912.1656,129.6875 913.4859,128.0313 Q914.8063,126.375 917.3063,126.375 Q918.0094,126.375 918.6578,126.5313 Q919.3063,126.6875 919.8688,126.9844 L919.8688,129.7031 Q919.2438,129.125 918.65,128.8516 Q918.0563,128.5781 917.4313,128.5781 Q916.0875,128.5781 915.4,129.6484 Q914.7125,130.7188 914.7125,132.8125 Q914.7125,134.9063 915.4,135.9766 Q916.0875,137.0469 917.4313,137.0469 Q918.0563,137.0469 918.65,136.7734 Q919.2438,136.5 919.8688,135.9219 L919.8688,138.6406 Z "/><text fill="#000000" font-family="sans-serif" font-size="12" lengthAdjust="spacingAndGlyphs" textLength="91" x="934.1" y="137.1543">RelayPrioritizer</text><line style="stroke: #A80036; stroke-width: 1.5;" x1="888.5" x2="1041.5" y1="149" y2="149"/><text fill="#000000" font-family="sans-serif" font-size="11" lengthAdjust="spacingAndGlyphs" textLength="143" x="893.5" y="163.2104">ResultDump result_dump</text><text fill="#000000" font-family="sans-serif" font-size="11" lengthAdjust="spacingAndGlyphs" textLength="105" x="893.5" y="176.0151">RelayList relay_list</text><line style="stroke: #A80036; stroke-width: 1.5;" x1="888.5" x2="1041.5" y1="182.6094" y2="182.6094"/><text fill="#000000" font-family="sans-serif" font-size="11" lengthAdjust="spacingAndGlyphs" textLength="139" x="893.5" y="196.8198">generator best_priority()</text><!--class ResultDump--><rect fill="#FEFECE" filter="url(#f89aw80)" height="150.4375" style="stroke: #A80036; stroke-width: 1.5;" width="199" x="788.5" y="398"/><ellipse cx="846.25" cy="414" fill="#ADD1B2" rx="11" ry="11" style="stroke: #A80036; stroke-width: 1.0;"/><path d="M849.2188,419.6406 Q848.6406,419.9375 848,420.0859 Q847.3594,420.2344 846.6563,420.2344 Q844.1563,420.2344 842.8359,418.5859 Q841.5156,416.9375 841.5156,413.8125 Q841.5156,410.6875 842.8359,409.0313 Q844.1563,407.375 846.6563,407.375 Q847.3594,407.375 848.0078,407.5313 Q848.6563,407.6875 849.2188,407.9844 L849.2188,410.7031 Q848.5938,410.125 848,409.8516 Q847.4063,409.5781 846.7813,409.5781 Q845.4375,409.5781 844.75,410.6484 Q844.0625,411.7188 844.0625,413.8125 Q844.0625,415.9063 844.75,416.9766 Q845.4375,418.0469 846.7813,418.0469 Q847.4063,418.0469 848,417.7734 Q848.5938,417.5 849.2188,416.9219 L849.2188,419.6406 Z "/><text fill="#000000" font-family="sans-serif" font-size="12" lengthAdjust="spacingAndGlyphs" textLength="75" x="866.75" y="418.1543">ResultDump</text><line style="stroke: #A80036; stroke-width: 1.5;" x1="789.5" x2="986.5" y1="430" y2="430"/><text fill="#000000" font-family="sans-serif" font-size="11" lengthAdjust="spacingAndGlyphs" textLength="49" x="794.5" y="444.2104">dict data</text><text fill="#000000" font-family="sans-serif" font-size="11" lengthAdjust="spacingAndGlyphs" textLength="82" x="794.5" y="457.0151">Lock data_lock</text><text fill="#000000" font-family="sans-serif" font-size="11" lengthAdjust="spacingAndGlyphs" textLength="81" x="794.5" y="469.8198">Thread thread</text><text fill="#000000" font-family="sans-serif" font-size="11" lengthAdjust="spacingAndGlyphs" textLength="76" x="794.5" y="482.6245">Queue queue</text><line style="stroke: #A80036; stroke-width: 1.5;" x1="789.5" x2="986.5" y1="489.2188" y2="489.2188"/><text fill="#000000" font-family="sans-serif" font-size="11" lengthAdjust="spacingAndGlyphs" textLength="149" x="794.5" y="503.4292">store_result(Result result)</text><text fill="#000000" font-family="sans-serif" font-size="11" lengthAdjust="spacingAndGlyphs" textLength="157" x="794.5" y="516.2339">handle_result(Result result)</text><text fill="#000000" font-family="sans-serif" font-size="11" lengthAdjust="spacingAndGlyphs" textLength="38" x="794.5" y="529.0386">enter()</text><text fill="#000000" font-family="sans-serif" font-size="11" lengthAdjust="spacingAndGlyphs" textLength="187" x="794.5" y="541.8433">list results_for_relay(Relay relay)</text><!--class Result--><rect fill="#FEFECE" filter="url(#f89aw80)" height="137.6328" style="stroke: #A80036; stroke-width: 1.5;" width="143" x="632.5" y="634"/><ellipse cx="680.25" cy="650" fill="#ADD1B2" rx="11" ry="11" style="stroke: #A80036; stroke-width: 1.0;"/><path d="M683.2188,655.6406 Q682.6406,655.9375 682,656.0859 Q681.3594,656.2344 680.6563,656.2344 Q678.1563,656.2344 676.8359,654.5859 Q675.5156,652.9375 675.5156,649.8125 Q675.5156,646.6875 676.8359,645.0313 Q678.1563,643.375 680.6563,643.375 Q681.3594,643.375 682.0078,643.5313 Q682.6563,643.6875 683.2188,643.9844 L683.2188,646.7031 Q682.5938,646.125 682,645.8516 Q681.4063,645.5781 680.7813,645.5781 Q679.4375,645.5781 678.75,646.6484 Q678.0625,647.7188 678.0625,649.8125 Q678.0625,651.9063 678.75,652.9766 Q679.4375,654.0469 680.7813,654.0469 Q681.4063,654.0469 682,653.7734 Q682.5938,653.5 683.2188,652.9219 L683.2188,655.6406 Z "/><text fill="#000000" font-family="sans-serif" font-size="12" lengthAdjust="spacingAndGlyphs" textLength="39" x="700.75" y="654.1543">Result</text><line style="stroke: #A80036; stroke-width: 1.5;" x1="633.5" x2="774.5" y1="666" y2="666"/><text fill="#000000" font-family="sans-serif" font-size="11" lengthAdjust="spacingAndGlyphs" textLength="68" x="638.5" y="680.2104">Relay _relay</text><text fill="#000000" font-family="sans-serif" font-size="11" lengthAdjust="spacingAndGlyphs" textLength="41" x="638.5" y="693.0151">list circ</text><text fill="#000000" font-family="sans-serif" font-size="11" lengthAdjust="spacingAndGlyphs" textLength="66" x="638.5" y="705.8198">str dest_url</text><text fill="#000000" font-family="sans-serif" font-size="11" lengthAdjust="spacingAndGlyphs" textLength="66" x="638.5" y="718.6245">str scanner</text><text fill="#000000" font-family="sans-serif" font-size="11" lengthAdjust="spacingAndGlyphs" textLength="43" x="638.5" y="731.4292">int time</text><line style="stroke: #A80036; stroke-width: 1.5;" x1="633.5" x2="774.5" y1="738.0234" y2="738.0234"/><text fill="#000000" font-family="sans-serif" font-size="11" lengthAdjust="spacingAndGlyphs" textLength="69" x="638.5" y="752.2339">dict to_dict()</text><text fill="#000000" font-family="sans-serif" font-size="11" lengthAdjust="spacingAndGlyphs" textLength="131" x="638.5" y="765.0386">Result from_dict(dict d)</text><!--class ResultError--><rect fill="#FEFECE" filter="url(#f89aw80)" height="48" style="stroke: #A80036; stroke-width: 1.5;" width="102" x="620" y="915"/><ellipse cx="635" cy="931" fill="#ADD1B2" rx="11" ry="11" style="stroke: #A80036; stroke-width: 1.0;"/><path d="M637.9688,936.6406 Q637.3906,936.9375 636.75,937.0859 Q636.1094,937.2344 635.4063,937.2344 Q632.9063,937.2344 631.5859,935.5859 Q630.2656,933.9375 630.2656,930.8125 Q630.2656,927.6875 631.5859,926.0313 Q632.9063,924.375 635.4063,924.375 Q636.1094,924.375 636.7578,924.5313 Q637.4063,924.6875 637.9688,924.9844 L637.9688,927.7031 Q637.3438,927.125 636.75,926.8516 Q636.1563,926.5781 635.5313,926.5781 Q634.1875,926.5781 633.5,927.6484 Q632.8125,928.7188 632.8125,930.8125 Q632.8125,932.9063 633.5,933.9766 Q634.1875,935.0469 635.5313,935.0469 Q636.1563,935.0469 636.75,934.7734 Q637.3438,934.5 637.9688,933.9219 L637.9688,936.6406 Z "/><text fill="#000000" font-family="sans-serif" font-size="12" lengthAdjust="spacingAndGlyphs" textLength="70" x="649" y="935.1543">ResultError</text><line style="stroke: #A80036; stroke-width: 1.5;" x1="621" x2="721" y1="947" y2="947"/><line style="stroke: #A80036; stroke-width: 1.5;" x1="621" x2="721" y1="955" y2="955"/><!--class ResultSuccess--><rect fill="#FEFECE" filter="url(#f89aw80)" height="48" style="stroke: #A80036; stroke-width: 1.5;" width="123" x="757.5" y="915"/><ellipse cx="772.5" cy="931" fill="#ADD1B2" rx="11" ry="11" style="stroke: #A80036; stroke-width: 1.0;"/><path d="M775.4688,936.6406 Q774.8906,936.9375 774.25,937.0859 Q773.6094,937.2344 772.9063,937.2344 Q770.4063,937.2344 769.0859,935.5859 Q767.7656,933.9375 767.7656,930.8125 Q767.7656,927.6875 769.0859,926.0313 Q770.4063,924.375 772.9063,924.375 Q773.6094,924.375 774.2578,924.5313 Q774.9063,924.6875 775.4688,924.9844 L775.4688,927.7031 Q774.8438,927.125 774.25,926.8516 Q773.6563,926.5781 773.0313,926.5781 Q771.6875,926.5781 771,927.6484 Q770.3125,928.7188 770.3125,930.8125 Q770.3125,932.9063 771,933.9766 Q771.6875,935.0469 773.0313,935.0469 Q773.6563,935.0469 774.25,934.7734 Q774.8438,934.5 775.4688,933.9219 L775.4688,936.6406 Z "/><text fill="#000000" font-family="sans-serif" font-size="12" lengthAdjust="spacingAndGlyphs" textLength="91" x="786.5" y="935.1543">ResultSuccess</text><line style="stroke: #A80036; stroke-width: 1.5;" x1="758.5" x2="879.5" y1="947" y2="947"/><line style="stroke: #A80036; stroke-width: 1.5;" x1="758.5" x2="879.5" y1="955" y2="955"/><!--class Destination--><rect fill="#FEFECE" filter="url(#f89aw80)" height="124.8281" style="stroke: #A80036; stroke-width: 1.5;" width="155" x="429.5" y="876.5"/><ellipse cx="467.45" cy="892.5" fill="#ADD1B2" rx="11" ry="11" style="stroke: #A80036; stroke-width: 1.0;"/><path d="M470.4188,898.1406 Q469.8406,898.4375 469.2,898.5859 Q468.5594,898.7344 467.8563,898.7344 Q465.3563,898.7344 464.0359,897.0859 Q462.7156,895.4375 462.7156,892.3125 Q462.7156,889.1875 464.0359,887.5313 Q465.3563,885.875 467.8563,885.875 Q468.5594,885.875 469.2078,886.0313 Q469.8563,886.1875 470.4188,886.4844 L470.4188,889.2031 Q469.7938,888.625 469.2,888.3516 Q468.6063,888.0781 467.9813,888.0781 Q466.6375,888.0781 465.95,889.1484 Q465.2625,890.2188 465.2625,892.3125 Q465.2625,894.4063 465.95,895.4766 Q466.6375,896.5469 467.9813,896.5469 Q468.6063,896.5469 469.2,896.2734 Q469.7938,896 470.4188,895.4219 L470.4188,898.1406 Z "/><text fill="#000000" font-family="sans-serif" font-size="12" lengthAdjust="spacingAndGlyphs" textLength="72" x="486.55" y="896.6543">Destination</text><line style="stroke: #A80036; stroke-width: 1.5;" x1="430.5" x2="583.5" y1="908.5" y2="908.5"/><text fill="#000000" font-family="sans-serif" font-size="11" lengthAdjust="spacingAndGlyphs" textLength="77" x="435.5" y="922.7104">str hostname</text><text fill="#000000" font-family="sans-serif" font-size="11" lengthAdjust="spacingAndGlyphs" textLength="41" x="435.5" y="935.5151">int port</text><text fill="#000000" font-family="sans-serif" font-size="11" lengthAdjust="spacingAndGlyphs" textLength="35" x="435.5" y="948.3198">str url</text><text fill="#000000" font-family="sans-serif" font-size="11" lengthAdjust="spacingAndGlyphs" textLength="59" x="435.5" y="961.1245">bool verify</text><line style="stroke: #A80036; stroke-width: 1.5;" x1="430.5" x2="583.5" y1="967.7188" y2="967.7188"/><text fill="#000000" font-family="sans-serif" font-size="11" lengthAdjust="spacingAndGlyphs" textLength="90" x="435.5" y="981.9292">bool is_usable()</text><text fill="#000000" font-family="sans-serif" font-size="11" lengthAdjust="spacingAndGlyphs" textLength="143" x="435.5" y="994.7339">Destination from_config()</text><!--class DestinationList--><rect fill="#FEFECE" filter="url(#f89aw80)" height="86.4141" style="stroke: #A80036; stroke-width: 1.5;" width="175" x="419.5" y="660"/><ellipse cx="457" cy="676" fill="#ADD1B2" rx="11" ry="11" style="stroke: #A80036; stroke-width: 1.0;"/><path d="M459.9688,681.6406 Q459.3906,681.9375 458.75,682.0859 Q458.1094,682.2344 457.4063,682.2344 Q454.9063,682.2344 453.5859,680.5859 Q452.2656,678.9375 452.2656,675.8125 Q452.2656,672.6875 453.5859,671.0313 Q454.9063,669.375 457.4063,669.375 Q458.1094,669.375 458.7578,669.5313 Q459.4063,669.6875 459.9688,669.9844 L459.9688,672.7031 Q459.3438,672.125 458.75,671.8516 Q458.1563,671.5781 457.5313,671.5781 Q456.1875,671.5781 455.5,672.6484 Q454.8125,673.7188 454.8125,675.8125 Q454.8125,677.9063 455.5,678.9766 Q456.1875,680.0469 457.5313,680.0469 Q458.1563,680.0469 458.75,679.7734 Q459.3438,679.5 459.9688,678.9219 L459.9688,681.6406 Z "/><text fill="#000000" font-family="sans-serif" font-size="12" lengthAdjust="spacingAndGlyphs" textLength="93" x="476" y="680.1543">DestinationList</text><line style="stroke: #A80036; stroke-width: 1.5;" x1="420.5" x2="593.5" y1="692" y2="692"/><text fill="#000000" font-family="sans-serif" font-size="11" lengthAdjust="spacingAndGlyphs" textLength="105" x="425.5" y="706.2104">list DestinationList</text><line style="stroke: #A80036; stroke-width: 1.5;" x1="420.5" x2="593.5" y1="712.8047" y2="712.8047"/><text fill="#000000" font-family="sans-serif" font-size="11" lengthAdjust="spacingAndGlyphs" textLength="100" x="425.5" y="727.0151">Destination next()</text><text fill="#000000" font-family="sans-serif" font-size="11" lengthAdjust="spacingAndGlyphs" textLength="163" x="425.5" y="739.8198">DestinationList from_config()</text><!--class V3BWHeader--><rect fill="#FEFECE" filter="url(#f89aw80)" height="201.6563" style="stroke: #A80036; stroke-width: 1.5;" width="288" x="6" y="372"/><ellipse cx="105.25" cy="388" fill="#ADD1B2" rx="11" ry="11" style="stroke: #A80036; stroke-width: 1.0;"/><path d="M108.2188,393.6406 Q107.6406,393.9375 107,394.0859 Q106.3594,394.2344 105.6563,394.2344 Q103.1563,394.2344 101.8359,392.5859 Q100.5156,390.9375 100.5156,387.8125 Q100.5156,384.6875 101.8359,383.0313 Q103.1563,381.375 105.6563,381.375 Q106.3594,381.375 107.0078,381.5313 Q107.6563,381.6875 108.2188,381.9844 L108.2188,384.7031 Q107.5938,384.125 107,383.8516 Q106.4063,383.5781 105.7813,383.5781 Q104.4375,383.5781 103.75,384.6484 Q103.0625,385.7188 103.0625,387.8125 Q103.0625,389.9063 103.75,390.9766 Q104.4375,392.0469 105.7813,392.0469 Q106.4063,392.0469 107,391.7734 Q107.5938,391.5 108.2188,390.9219 L108.2188,393.6406 Z "/><text fill="#000000" font-family="sans-serif" font-size="12" lengthAdjust="spacingAndGlyphs" textLength="81" x="125.75" y="392.1543">V3BWHeader</text><line style="stroke: #A80036; stroke-width: 1.5;" x1="7" x2="293" y1="404" y2="404"/><text fill="#000000" font-family="sans-serif" font-size="11" lengthAdjust="spacingAndGlyphs" textLength="79" x="12" y="418.2104">int timestamp</text><text fill="#000000" font-family="sans-serif" font-size="11" lengthAdjust="spacingAndGlyphs" textLength="62" x="12" y="431.0151">str version</text><text fill="#000000" font-family="sans-serif" font-size="11" lengthAdjust="spacingAndGlyphs" textLength="86" x="12" y="443.8198">str file_created</text><text fill="#000000" font-family="sans-serif" font-size="11" lengthAdjust="spacingAndGlyphs" textLength="116" x="12" y="456.6245">str latest_bandwidth</text><text fill="#000000" font-family="sans-serif" font-size="11" lengthAdjust="spacingAndGlyphs" textLength="76" x="12" y="469.4292">int num_lines</text><text fill="#000000" font-family="sans-serif" font-size="11" lengthAdjust="spacingAndGlyphs" textLength="70" x="12" y="482.2339">str software</text><text fill="#000000" font-family="sans-serif" font-size="11" lengthAdjust="spacingAndGlyphs" textLength="118" x="12" y="495.0386">str software_version</text><line style="stroke: #A80036; stroke-width: 1.5;" x1="7" x2="293" y1="501.6328" y2="501.6328"/><text fill="#000000" font-family="sans-serif" font-size="11" lengthAdjust="spacingAndGlyphs" textLength="221" x="12" y="515.8433">V3BWHeader from_results(dict results)</text><text fill="#000000" font-family="sans-serif" font-size="11" lengthAdjust="spacingAndGlyphs" textLength="117" x="12" y="528.6479">add_stats(**kwargs)</text><text fill="#000000" font-family="sans-serif" font-size="11" lengthAdjust="spacingAndGlyphs" textLength="276" x="12" y="541.4526">int earliest_bandwidth_from_results(dict results)</text><text fill="#000000" font-family="sans-serif" font-size="11" lengthAdjust="spacingAndGlyphs" textLength="251" x="12" y="554.2573">str generator_started_from_file(dict results)</text><text fill="#000000" font-family="sans-serif" font-size="11" lengthAdjust="spacingAndGlyphs" textLength="265" x="12" y="567.062">int latest_bandwidth_from_results(dict results)</text><!--class V3BWLine--><rect fill="#FEFECE" filter="url(#f89aw80)" height="188.8516" style="stroke: #A80036; stroke-width: 1.5;" width="292" x="329" y="378.5"/><ellipse cx="440.75" cy="394.5" fill="#ADD1B2" rx="11" ry="11" style="stroke: #A80036; stroke-width: 1.0;"/><path d="M443.7188,400.1406 Q443.1406,400.4375 442.5,400.5859 Q441.8594,400.7344 441.1563,400.7344 Q438.6563,400.7344 437.3359,399.0859 Q436.0156,397.4375 436.0156,394.3125 Q436.0156,391.1875 437.3359,389.5313 Q438.6563,387.875 441.1563,387.875 Q441.8594,387.875 442.5078,388.0313 Q443.1563,388.1875 443.7188,388.4844 L443.7188,391.2031 Q443.0938,390.625 442.5,390.3516 Q441.9063,390.0781 441.2813,390.0781 Q439.9375,390.0781 439.25,391.1484 Q438.5625,392.2188 438.5625,394.3125 Q438.5625,396.4063 439.25,397.4766 Q439.9375,398.5469 441.2813,398.5469 Q441.9063,398.5469 442.5,398.2734 Q443.0938,398 443.7188,397.4219 L443.7188,400.1406 Z "/><text fill="#000000" font-family="sans-serif" font-size="12" lengthAdjust="spacingAndGlyphs" textLength="60" x="461.25" y="398.6543">V3BWLine</text><line style="stroke: #A80036; stroke-width: 1.5;" x1="330" x2="620" y1="410.5" y2="410.5"/><text fill="#000000" font-family="sans-serif" font-size="11" lengthAdjust="spacingAndGlyphs" textLength="34" x="335" y="424.7104">int bw</text><text fill="#000000" font-family="sans-serif" font-size="11" lengthAdjust="spacingAndGlyphs" textLength="64" x="335" y="437.5151">str node_id</text><line style="stroke: #A80036; stroke-width: 1.5;" x1="330" x2="620" y1="444.1094" y2="444.1094"/><text fill="#000000" font-family="sans-serif" font-size="11" lengthAdjust="spacingAndGlyphs" textLength="220" x="335" y="458.3198">int bw_mean_from_results(list results)</text><text fill="#000000" font-family="sans-serif" font-size="11" lengthAdjust="spacingAndGlyphs" textLength="230" x="335" y="471.1245">int bw_median_from_results(list results)</text><text fill="#000000" font-family="sans-serif" font-size="11" lengthAdjust="spacingAndGlyphs" textLength="269" x="335" y="483.9292">int desc_bw_obs_last_from_results(list results)</text><text fill="#000000" font-family="sans-serif" font-size="11" lengthAdjust="spacingAndGlyphs" textLength="280" x="335" y="496.7339">int desc_bw_obs_mean_from_results(list results)</text><text fill="#000000" font-family="sans-serif" font-size="11" lengthAdjust="spacingAndGlyphs" textLength="200" x="335" y="509.5386">V3BWLine from_results(list results)</text><text fill="#000000" font-family="sans-serif" font-size="11" lengthAdjust="spacingAndGlyphs" textLength="220" x="335" y="522.3433">str last_time_from_results(list results)</text><text fill="#000000" font-family="sans-serif" font-size="11" lengthAdjust="spacingAndGlyphs" textLength="242" x="335" y="535.1479">dict result_types_from_results(list results)</text><text fill="#000000" font-family="sans-serif" font-size="11" lengthAdjust="spacingAndGlyphs" textLength="234" x="335" y="547.9526">list results_away_each_other(list results)</text><text fill="#000000" font-family="sans-serif" font-size="11" lengthAdjust="spacingAndGlyphs" textLength="203" x="335" y="560.7573">list results_recent_than(list results)</text><!--class V3BWFile--><rect fill="#FEFECE" filter="url(#f89aw80)" height="304.0938" style="stroke: #A80036; stroke-width: 1.5;" width="336" x="145" y="8"/><ellipse cx="280.75" cy="24" fill="#ADD1B2" rx="11" ry="11" style="stroke: #A80036; stroke-width: 1.0;"/><path d="M283.7188,29.6406 Q283.1406,29.9375 282.5,30.0859 Q281.8594,30.2344 281.1563,30.2344 Q278.6563,30.2344 277.3359,28.5859 Q276.0156,26.9375 276.0156,23.8125 Q276.0156,20.6875 277.3359,19.0313 Q278.6563,17.375 281.1563,17.375 Q281.8594,17.375 282.5078,17.5313 Q283.1563,17.6875 283.7188,17.9844 L283.7188,20.7031 Q283.0938,20.125 282.5,19.8516 Q281.9063,19.5781 281.2813,19.5781 Q279.9375,19.5781 279.25,20.6484 Q278.5625,21.7188 278.5625,23.8125 Q278.5625,25.9063 279.25,26.9766 Q279.9375,28.0469 281.2813,28.0469 Q281.9063,28.0469 282.5,27.7734 Q283.0938,27.5 283.7188,26.9219 L283.7188,29.6406 Z "/><text fill="#000000" font-family="sans-serif" font-size="12" lengthAdjust="spacingAndGlyphs" textLength="56" x="301.25" y="28.1543">V3BWFile</text><line style="stroke: #A80036; stroke-width: 1.5;" x1="146" x2="480" y1="40" y2="40"/><text fill="#000000" font-family="sans-serif" font-size="11" lengthAdjust="spacingAndGlyphs" textLength="116" x="151" y="54.2104">V3BWHeader header</text><text fill="#000000" font-family="sans-serif" font-size="11" lengthAdjust="spacingAndGlyphs" textLength="70" x="151" y="67.0151">list bw_lines</text><text fill="#000000" font-family="sans-serif" font-size="11" lengthAdjust="spacingAndGlyphs" textLength="56" x="151" y="79.8198">info_stats</text><text fill="#000000" font-family="sans-serif" font-size="11" lengthAdjust="spacingAndGlyphs" textLength="96" x="151" y="92.6245">bool is_min_perc</text><text fill="#000000" font-family="sans-serif" font-size="11" lengthAdjust="spacingAndGlyphs" textLength="64" x="151" y="105.4292">int max_bw</text><text fill="#000000" font-family="sans-serif" font-size="11" lengthAdjust="spacingAndGlyphs" textLength="72" x="151" y="118.2339">int mean_bw</text><text fill="#000000" font-family="sans-serif" font-size="11" lengthAdjust="spacingAndGlyphs" textLength="82" x="151" y="131.0386">int median_bw</text><text fill="#000000" font-family="sans-serif" font-size="11" lengthAdjust="spacingAndGlyphs" textLength="61" x="151" y="143.8433">int min_bw</text><text fill="#000000" font-family="sans-serif" font-size="11" lengthAdjust="spacingAndGlyphs" textLength="43" x="151" y="156.6479">int num</text><text fill="#000000" font-family="sans-serif" font-size="11" lengthAdjust="spacingAndGlyphs" textLength="65" x="151" y="169.4526">int sum_bw</text><line style="stroke: #A80036; stroke-width: 1.5;" x1="146" x2="480" y1="176.0469" y2="176.0469"/><text fill="#000000" font-family="sans-serif" font-size="11" lengthAdjust="spacingAndGlyphs" textLength="199" x="151" y="190.2573">V3BWFile from_results(dict results)</text><text fill="#000000" font-family="sans-serif" font-size="11" lengthAdjust="spacingAndGlyphs" textLength="113" x="151" y="203.062">list bw_kb(bw_lines)</text><text fill="#000000" font-family="sans-serif" font-size="11" lengthAdjust="spacingAndGlyphs" textLength="166" x="151" y="215.8667">list bw_sbws_scale(bw_lines)</text><text fill="#000000" font-family="sans-serif" font-size="11" lengthAdjust="spacingAndGlyphs" textLength="175" x="151" y="228.6714">list bw_torflow_scale(bw_lines)</text><text fill="#000000" font-family="sans-serif" font-size="11" lengthAdjust="spacingAndGlyphs" textLength="254" x="151" y="241.4761">bool is_max_bw_diff_perc_reached(bw_lines)</text><text fill="#000000" font-family="sans-serif" font-size="11" lengthAdjust="spacingAndGlyphs" textLength="272" x="151" y="254.2808">(dict, bool) measured_progress_stats(bw_lines)</text><text fill="#000000" font-family="sans-serif" font-size="11" lengthAdjust="spacingAndGlyphs" textLength="324" x="151" y="267.0854">int read_number_consensus_relays(str consensus_path)</text><text fill="#000000" font-family="sans-serif" font-size="11" lengthAdjust="spacingAndGlyphs" textLength="118" x="151" y="279.8901">(list, list, list) to_plt()</text><text fill="#000000" font-family="sans-serif" font-size="11" lengthAdjust="spacingAndGlyphs" textLength="175" x="151" y="292.6948">list update_progress(bw_lines)</text><text fill="#000000" font-family="sans-serif" font-size="11" lengthAdjust="spacingAndGlyphs" textLength="225" x="151" y="305.4995">warn_if_not_accurate_enough(bw_lines)</text><!--class V3BWHFile--><rect fill="#FEFECE" filter="url(#f89aw80)" height="48" style="stroke: #A80036; stroke-width: 1.5;" width="97" x="656.5" y="449"/><ellipse cx="671.5" cy="465" fill="#ADD1B2" rx="11" ry="11" style="stroke: #A80036; stroke-width: 1.0;"/><path d="M674.4688,470.6406 Q673.8906,470.9375 673.25,471.0859 Q672.6094,471.2344 671.9063,471.2344 Q669.4063,471.2344 668.0859,469.5859 Q666.7656,467.9375 666.7656,464.8125 Q666.7656,461.6875 668.0859,460.0313 Q669.4063,458.375 671.9063,458.375 Q672.6094,458.375 673.2578,458.5313 Q673.9063,458.6875 674.4688,458.9844 L674.4688,461.7031 Q673.8438,461.125 673.25,460.8516 Q672.6563,460.5781 672.0313,460.5781 Q670.6875,460.5781 670,461.6484 Q669.3125,462.7188 669.3125,464.8125 Q669.3125,466.9063 670,467.9766 Q670.6875,469.0469 672.0313,469.0469 Q672.6563,469.0469 673.25,468.7734 Q673.8438,468.5 674.4688,467.9219 L674.4688,470.6406 Z "/><text fill="#000000" font-family="sans-serif" font-size="12" lengthAdjust="spacingAndGlyphs" textLength="65" x="685.5" y="469.1543">V3BWHFile</text><line style="stroke: #A80036; stroke-width: 1.5;" x1="657.5" x2="752.5" y1="481" y2="481"/><line style="stroke: #A80036; stroke-width: 1.5;" x1="657.5" x2="752.5" y1="489" y2="489"/><!--class CircuitBuilder--><rect fill="#FEFECE" filter="url(#f89aw80)" height="124.8281" style="stroke: #A80036; stroke-width: 1.5;" width="126" x="1163" y="410.5"/><ellipse cx="1183.4" cy="426.5" fill="#ADD1B2" rx="11" ry="11" style="stroke: #A80036; stroke-width: 1.0;"/><path d="M1186.3688,432.1406 Q1185.7906,432.4375 1185.15,432.5859 Q1184.5094,432.7344 1183.8063,432.7344 Q1181.3063,432.7344 1179.9859,431.0859 Q1178.6656,429.4375 1178.6656,426.3125 Q1178.6656,423.1875 1179.9859,421.5313 Q1181.3063,419.875 1183.8063,419.875 Q1184.5094,419.875 1185.1578,420.0313 Q1185.8063,420.1875 1186.3688,420.4844 L1186.3688,423.2031 Q1185.7438,422.625 1185.15,422.3516 Q1184.5563,422.0781 1183.9313,422.0781 Q1182.5875,422.0781 1181.9,423.1484 Q1181.2125,424.2188 1181.2125,426.3125 Q1181.2125,428.4063 1181.9,429.4766 Q1182.5875,430.5469 1183.9313,430.5469 Q1184.5563,430.5469 1185.15,430.2734 Q1185.7438,430 1186.3688,429.4219 L1186.3688,432.1406 Z "/><text fill="#000000" font-family="sans-serif" font-size="12" lengthAdjust="spacingAndGlyphs" textLength="82" x="1198.6" y="430.6543">CircuitBuilder</text><line style="stroke: #A80036; stroke-width: 1.5;" x1="1164" x2="1288" y1="442.5" y2="442.5"/><text fill="#000000" font-family="sans-serif" font-size="11" lengthAdjust="spacingAndGlyphs" textLength="93" x="1169" y="456.7104">set built_circuits</text><text fill="#000000" font-family="sans-serif" font-size="11" lengthAdjust="spacingAndGlyphs" textLength="105" x="1169" y="469.5151">RelayList relay_list</text><text fill="#000000" font-family="sans-serif" font-size="11" lengthAdjust="spacingAndGlyphs" textLength="56" x="1169" y="482.3198">list relays</text><text fill="#000000" font-family="sans-serif" font-size="11" lengthAdjust="spacingAndGlyphs" textLength="114" x="1169" y="495.1245">Controller controller</text><line style="stroke: #A80036; stroke-width: 1.5;" x1="1164" x2="1288" y1="501.7188" y2="501.7188"/><text fill="#000000" font-family="sans-serif" font-size="11" lengthAdjust="spacingAndGlyphs" textLength="93" x="1169" y="515.9292">int build_circuit()</text><text fill="#000000" font-family="sans-serif" font-size="11" lengthAdjust="spacingAndGlyphs" textLength="105" x="1169" y="528.7339">void close_circuit()</text><!--class GapsCircuitBuilder--><rect fill="#FEFECE" filter="url(#f89aw80)" height="48" style="stroke: #A80036; stroke-width: 1.5;" width="146" x="1279" y="679"/><ellipse cx="1294" cy="695" fill="#ADD1B2" rx="11" ry="11" style="stroke: #A80036; stroke-width: 1.0;"/><path d="M1296.9688,700.6406 Q1296.3906,700.9375 1295.75,701.0859 Q1295.1094,701.2344 1294.4063,701.2344 Q1291.9063,701.2344 1290.5859,699.5859 Q1289.2656,697.9375 1289.2656,694.8125 Q1289.2656,691.6875 1290.5859,690.0313 Q1291.9063,688.375 1294.4063,688.375 Q1295.1094,688.375 1295.7578,688.5313 Q1296.4063,688.6875 1296.9688,688.9844 L1296.9688,691.7031 Q1296.3438,691.125 1295.75,690.8516 Q1295.1563,690.5781 1294.5313,690.5781 Q1293.1875,690.5781 1292.5,691.6484 Q1291.8125,692.7188 1291.8125,694.8125 Q1291.8125,696.9063 1292.5,697.9766 Q1293.1875,699.0469 1294.5313,699.0469 Q1295.1563,699.0469 1295.75,698.7734 Q1296.3438,698.5 1296.9688,697.9219 L1296.9688,700.6406 Z "/><text fill="#000000" font-family="sans-serif" font-size="12" lengthAdjust="spacingAndGlyphs" textLength="114" x="1308" y="699.1543">GapsCircuitBuilder</text><line style="stroke: #A80036; stroke-width: 1.5;" x1="1280" x2="1424" y1="711" y2="711"/><line style="stroke: #A80036; stroke-width: 1.5;" x1="1280" x2="1424" y1="719" y2="719"/><!--class State--><rect fill="#FEFECE" filter="url(#f89aw80)" height="60.8047" style="stroke: #A80036; stroke-width: 1.5;" width="66" x="1078" y="129.5"/><ellipse cx="1093" cy="145.5" fill="#ADD1B2" rx="11" ry="11" style="stroke: #A80036; stroke-width: 1.0;"/><path d="M1095.9688,151.1406 Q1095.3906,151.4375 1094.75,151.5859 Q1094.1094,151.7344 1093.4063,151.7344 Q1090.9063,151.7344 1089.5859,150.0859 Q1088.2656,148.4375 1088.2656,145.3125 Q1088.2656,142.1875 1089.5859,140.5313 Q1090.9063,138.875 1093.4063,138.875 Q1094.1094,138.875 1094.7578,139.0313 Q1095.4063,139.1875 1095.9688,139.4844 L1095.9688,142.2031 Q1095.3438,141.625 1094.75,141.3516 Q1094.1563,141.0781 1093.5313,141.0781 Q1092.1875,141.0781 1091.5,142.1484 Q1090.8125,143.2188 1090.8125,145.3125 Q1090.8125,147.4063 1091.5,148.4766 Q1092.1875,149.5469 1093.5313,149.5469 Q1094.1563,149.5469 1094.75,149.2734 Q1095.3438,149 1095.9688,148.4219 L1095.9688,151.1406 Z "/><text fill="#000000" font-family="sans-serif" font-size="12" lengthAdjust="spacingAndGlyphs" textLength="34" x="1107" y="149.6543">State</text><line style="stroke: #A80036; stroke-width: 1.5;" x1="1079" x2="1143" y1="161.5" y2="161.5"/><line style="stroke: #A80036; stroke-width: 1.5;" x1="1079" x2="1143" y1="169.5" y2="169.5"/><text fill="#000000" font-family="sans-serif" font-size="11" lengthAdjust="spacingAndGlyphs" textLength="26" x="1084" y="183.7104">get()</text><path d="M1044,778.992 C1044,795.857 1044,814.064 1044,831.929 " fill="none" style="stroke: #A80036; stroke-width: 1.0;"/><polygon fill="#A80036" points="1044,765.787,1040,771.787,1044,777.787,1048,771.787,1044,765.787" style="stroke: #A80036; stroke-width: 1.0;"/><path d="M976.544,216.142 C985.17,258.609 996.831,318.847 1005,372 C1019.33,465.229 1031.26,573.98 1038.02,640.398 " fill="none" style="stroke: #A80036; stroke-width: 1.0;"/><polygon fill="#A80036" points="973.915,203.286,971.198,209.9657,976.3188,215.0428,979.0358,208.3631,973.915,203.286" style="stroke: #A80036; stroke-width: 1.0;"/><path d="M951.332,216.203 C938.81,266.782 920.173,342.056 906.355,397.864 " fill="none" style="stroke: #A80036; stroke-width: 1.0;"/><polygon fill="#A80036" points="954.535,203.267,949.2103,208.1299,951.6513,214.9153,956.9759,210.0524,954.535,203.267" style="stroke: #A80036; stroke-width: 1.0;"/><path d="M691.532,792.409 C685.308,836.54 678.27,886.452 674.261,914.88 " fill="none" style="stroke: #A80036; stroke-width: 1.0;"/><polygon fill="none" points="684.642,791.138,694.366,772.312,698.505,793.093,684.642,791.138" style="stroke: #A80036; stroke-width: 1.0;"/><path d="M746.423,790.321 C768.359,834.957 793.446,886.003 807.638,914.88 " fill="none" style="stroke: #A80036; stroke-width: 1.0;"/><polygon fill="none" points="740.111,793.349,737.572,772.312,752.676,787.174,740.111,793.349" style="stroke: #A80036; stroke-width: 1.0;"/><path d="M646.49,772.312 C618.779,805.227 585.8,844.4 558.868,876.39 " fill="none" style="stroke: #A80036; stroke-width: 1.0;"/><path d="M786.925,757.546 C821.501,780.173 861.928,807.024 898,832 C903.666,835.923 909.436,839.954 915.25,844.047 " fill="none" style="stroke: #A80036; stroke-width: 1.0;"/><polygon fill="#A80036" points="775.917,750.355,778.7529,756.9851,785.9637,756.9174,783.1278,750.2873,775.917,750.355" style="stroke: #A80036; stroke-width: 1.0;"/><path d="M820.063,558.183 C799.977,583.072 778.246,610 759.078,633.752 " fill="none" style="stroke: #A80036; stroke-width: 1.0;"/><polygon fill="#A80036" points="828.26,548.025,821.3791,550.1823,820.724,557.3636,827.6049,555.2063,828.26,548.025" style="stroke: #A80036; stroke-width: 1.0;"/><path d="M876.601,548.153 C870.206,610.221 868.431,699.947 897,772 C905.371,793.113 917.692,813.312 931.697,831.896 " fill="none" style="stroke: #A80036; stroke-width: 1.0;"/><path d="M507,759.511 C507,794.663 507,840.16 507,876.421 " fill="none" style="stroke: #A80036; stroke-width: 1.0;"/><polygon fill="#A80036" points="507,746.105,503,752.105,507,758.105,511,752.105,507,746.105" style="stroke: #A80036; stroke-width: 1.0;"/><path d="M294.441,566.943 C299.962,569.459 305.492,571.824 311,574 C437.866,624.126 487.259,578.797 612,634 C618.902,637.054 625.782,640.7 632.494,644.695 " fill="none" style="stroke: #A80036; stroke-width: 1.0;"/><path d="M569.134,567.723 C591.34,589.832 614.601,612.991 635.431,633.73 " fill="none" style="stroke: #A80036; stroke-width: 1.0;"/><path d="M227.481,324.168 C219.018,340.315 210.613,356.352 202.632,371.579 " fill="none" style="stroke: #A80036; stroke-width: 1.0;"/><polygon fill="#A80036" points="233.649,312.4,227.3206,315.8571,228.0777,323.0283,234.4061,319.5712,233.649,312.4" style="stroke: #A80036; stroke-width: 1.0;"/><path d="M397.881,323.951 C407.536,342.487 417.118,360.881 426.076,378.078 " fill="none" style="stroke: #A80036; stroke-width: 1.0;"/><polygon fill="#A80036" points="391.864,312.4,391.0882,319.5692,397.4076,323.0428,398.1834,315.8735,391.864,312.4" style="stroke: #A80036; stroke-width: 1.0;"/><path d="M704.899,497.117 C704.759,528.929 704.502,587.536 704.298,633.944 " fill="none" style="stroke: #A80036; stroke-width: 1.0;"/><path d="M1168.38,546.189 C1144.24,576.428 1116.46,611.223 1093.29,640.251 " fill="none" style="stroke: #A80036; stroke-width: 1.0;"/><polygon fill="#A80036" points="1176.75,535.7,1169.8804,537.8929,1169.2625,545.0775,1176.1321,542.8846,1176.75,535.7" style="stroke: #A80036; stroke-width: 1.0;"/><path d="M1228.97,535.599 C1229.64,597.906 1224.17,695.656 1190,772 C1180.67,792.844 1167.79,812.966 1153.52,831.576 " fill="none" style="stroke: #A80036; stroke-width: 1.0;"/><path d="M1269.9,553.445 C1294.32,597.621 1322.95,649.442 1339.14,678.73 " fill="none" style="stroke: #A80036; stroke-width: 1.0;"/><polygon fill="none" points="1263.64,556.591,1260.1,535.7,1275.9,549.819,1263.64,556.591" style="stroke: #A80036; stroke-width: 1.0;"/></g></svg>