<?xml version="1.0" encoding="UTF-8" standalone="no"?>
<!DOCTYPE svg PUBLIC "-//W3C//DTD SVG 1.1//EN"
 "http://www.w3.org/Graphics/SVG/1.1/DTD/svg11.dtd">
<!-- Generated by graphviz version 2.38.0 (20140413.2041)
 -->
<!-- Title: packages_sbws Pages: 1 -->
<svg width="8800pt" height="44pt"
 viewBox="0.00 0.00 8800.00 44.00" xmlns="http://www.w3.org/2000/svg" xmlns:xlink="http://www.w3.org/1999/xlink">
<g id="graph0" class="graph" transform="scale(1 1) rotate(0) translate(4 40)">
<title>packages_sbws</title>
<polygon fill="white" stroke="none" points="-4,4 -4,-40 8796,-40 8796,4 -4,4"/>
<!-- 0 -->
<g id="node1" class="node"><title>0</title>
<polygon fill="none" stroke="black" points="347,-36 0,-36 0,-0 347,-0 347,-36"/>
<text text-anchor="middle" x="173.5" y="-14.3" font-family="Times,serif" font-size="14.00">/home/user/_my/code/bwauth&#45;related/sbws/sbws/__init__.py</text>
</g>
<!-- 1 -->
<g id="node2" class="node"><title>1</title>
<polygon fill="none" stroke="black" points="738.5,-36 364.5,-36 364.5,-0 738.5,-0 738.5,-36"/>
<text text-anchor="middle" x="551.5" y="-14.3" font-family="Times,serif" font-size="14.00">/home/user/_my/code/bwauth&#45;related/sbws/sbws/core/__init__.py</text>
</g>
<!-- 2 -->
<g id="node3" class="node"><title>2</title>
<polygon fill="none" stroke="black" points="1128,-36 757,-36 757,-0 1128,-0 1128,-36"/>
<text text-anchor="middle" x="942.5" y="-14.3" font-family="Times,serif" font-size="14.00">/home/user/_my/code/bwauth&#45;related/sbws/sbws/core/cleanup.py</text>
</g>
<!-- 3 -->
<g id="node4" class="node"><title>3</title>
<polygon fill="none" stroke="black" points="1521,-36 1146,-36 1146,-0 1521,-0 1521,-36"/>
<text text-anchor="middle" x="1333.5" y="-14.3" font-family="Times,serif" font-size="14.00">/home/user/_my/code/bwauth&#45;related/sbws/sbws/core/generate.py</text>
</g>
<!-- 4 -->
<g id="node5" class="node"><title>4</title>
<polygon fill="none" stroke="black" points="1910,-36 1539,-36 1539,-0 1910,-0 1910,-36"/>
<text text-anchor="middle" x="1724.5" y="-14.3" font-family="Times,serif" font-size="14.00">/home/user/_my/code/bwauth&#45;related/sbws/sbws/core/scanner.py</text>
</g>
<!-- 5 -->
<g id="node6" class="node"><title>5</title>
<polygon fill="none" stroke="black" points="2281,-36 1928,-36 1928,-0 2281,-0 2281,-36"/>
<text text-anchor="middle" x="2104.5" y="-14.3" font-family="Times,serif" font-size="14.00">/home/user/_my/code/bwauth&#45;related/sbws/sbws/core/stats.py</text>
</g>
<!-- 6 -->
<g id="node7" class="node"><title>6</title>
<polygon fill="none" stroke="black" points="2640,-36 2299,-36 2299,-0 2640,-0 2640,-36"/>
<text text-anchor="middle" x="2469.5" y="-14.3" font-family="Times,serif" font-size="14.00">/home/user/_my/code/bwauth&#45;related/sbws/sbws/globals.py</text>
</g>
<!-- 7 -->
<g id="node8" class="node"><title>7</title>
<polygon fill="none" stroke="black" points="3023,-36 2658,-36 2658,-0 3023,-0 3023,-36"/>
<text text-anchor="middle" x="2840.5" y="-14.3" font-family="Times,serif" font-size="14.00">/home/user/_my/code/bwauth&#45;related/sbws/sbws/lib/__init__.py</text>
</g>
<!-- 8 -->
<g id="node9" class="node"><title>8</title>
<polygon fill="none" stroke="black" points="3434,-36 3041,-36 3041,-0 3434,-0 3434,-36"/>
<text text-anchor="middle" x="3237.5" y="-14.3" font-family="Times,serif" font-size="14.00">/home/user/_my/code/bwauth&#45;related/sbws/sbws/lib/circuitbuilder.py</text>
</g>
<!-- 9 -->
<g id="node10" class="node"><title>9</title>
<polygon fill="none" stroke="black" points="3832.5,-36 3452.5,-36 3452.5,-0 3832.5,-0 3832.5,-36"/>
<text text-anchor="middle" x="3642.5" y="-14.3" font-family="Times,serif" font-size="14.00">/home/user/_my/code/bwauth&#45;related/sbws/sbws/lib/destination.py</text>
</g>
<!-- 10 -->
<g id="node11" class="node"><title>10</title>
<polygon fill="none" stroke="black" points="4214.5,-36 3850.5,-36 3850.5,-0 4214.5,-0 4214.5,-36"/>
<text text-anchor="middle" x="4032.5" y="-14.3" font-family="Times,serif" font-size="14.00">/home/user/_my/code/bwauth&#45;related/sbws/sbws/lib/relaylist.py</text>
</g>
<!-- 11 -->
<g id="node12" class="node"><title>11</title>
<polygon fill="none" stroke="black" points="4634,-36 4233,-36 4233,-0 4634,-0 4634,-36"/>
<text text-anchor="middle" x="4433.5" y="-14.3" font-family="Times,serif" font-size="14.00">/home/user/_my/code/bwauth&#45;related/sbws/sbws/lib/relayprioritizer.py</text>
</g>
<!-- 12 -->
<g id="node13" class="node"><title>12</title>
<polygon fill="none" stroke="black" points="5020.5,-36 4652.5,-36 4652.5,-0 5020.5,-0 5020.5,-36"/>
<text text-anchor="middle" x="4836.5" y="-14.3" font-family="Times,serif" font-size="14.00">/home/user/_my/code/bwauth&#45;related/sbws/sbws/lib/v3bwfile.py</text>
</g>
<!-- 13 -->
<g id="node14" class="node"><title>13</title>
<polygon fill="none" stroke="black" points="5368,-36 5039,-36 5039,-0 5368,-0 5368,-36"/>
<text text-anchor="middle" x="5203.5" y="-14.3" font-family="Times,serif" font-size="14.00">/home/user/_my/code/bwauth&#45;related/sbws/sbws/sbws.py</text>
</g>
<!-- 14 -->
<g id="node15" class="node"><title>14</title>
<polygon fill="none" stroke="black" points="5755,-36 5386,-36 5386,-0 5755,-0 5755,-36"/>
<text text-anchor="middle" x="5570.5" y="-14.3" font-family="Times,serif" font-size="14.00">/home/user/_my/code/bwauth&#45;related/sbws/sbws/util/__init__.py</text>
</g>
<!-- 15 -->
<g id="node16" class="node"><title>15</title>
<polygon fill="none" stroke="black" points="6132,-36 5773,-36 5773,-0 6132,-0 6132,-36"/>
<text text-anchor="middle" x="5952.5" y="-14.3" font-family="Times,serif" font-size="14.00">/home/user/_my/code/bwauth&#45;related/sbws/sbws/util/config.py</text>
</g>
<!-- 16 -->
<g id="node17" class="node"><title>16</title>
<polygon fill="none" stroke="black" points="6515,-36 6150,-36 6150,-0 6515,-0 6515,-36"/>
<text text-anchor="middle" x="6332.5" y="-14.3" font-family="Times,serif" font-size="14.00">/home/user/_my/code/bwauth&#45;related/sbws/sbws/util/filelock.py</text>
</g>
<!-- 17 -->
<g id="node18" class="node"><title>17</title>
<polygon fill="none" stroke="black" points="6866.5,-36 6532.5,-36 6532.5,-0 6866.5,-0 6866.5,-36"/>
<text text-anchor="middle" x="6699.5" y="-14.3" font-family="Times,serif" font-size="14.00">/home/user/_my/code/bwauth&#45;related/sbws/sbws/util/fs.py</text>
</g>
<!-- 18 -->
<g id="node19" class="node"><title>18</title>
<polygon fill="none" stroke="black" points="7242,-36 6885,-36 6885,-0 7242,-0 7242,-36"/>
<text text-anchor="middle" x="7063.5" y="-14.3" font-family="Times,serif" font-size="14.00">/home/user/_my/code/bwauth&#45;related/sbws/sbws/util/parser.py</text>
</g>
<!-- 19 -->
<g id="node20" class="node"><title>19</title>
<polygon fill="none" stroke="black" points="7628.5,-36 7260.5,-36 7260.5,-0 7628.5,-0 7628.5,-36"/>
<text text-anchor="middle" x="7444.5" y="-14.3" font-family="Times,serif" font-size="14.00">/home/user/_my/code/bwauth&#45;related/sbws/sbws/util/requests.py</text>
</g>
<!-- 20 -->
<g id="node21" class="node"><title>20</title>
<polygon fill="none" stroke="black" points="7996,-36 7647,-36 7647,-0 7996,-0 7996,-36"/>
<text text-anchor="middle" x="7821.5" y="-14.3" font-family="Times,serif" font-size="14.00">/home/user/_my/code/bwauth&#45;related/sbws/sbws/util/state.py</text>
</g>
<!-- 21 -->
<g id="node22" class="node"><title>21</title>
<polygon fill="none" stroke="black" points="8396.5,-36 8014.5,-36 8014.5,-0 8396.5,-0 8396.5,-36"/>
<text text-anchor="middle" x="8205.5" y="-14.3" font-family="Times,serif" font-size="14.00">/home/user/_my/code/bwauth&#45;related/sbws/sbws/util/timestamp.py</text>
</g>
<!-- 22 -->
<g id="node23" class="node"><title>22</title>
<polygon fill="none" stroke="black" points="8792,-36 8415,-36 8415,-0 8792,-0 8792,-36"/>
<text text-anchor="middle" x="8603.5" y="-14.3" font-family="Times,serif" font-size="14.00">/home/user/_my/code/bwauth&#45;related/sbws/sbws/util/userquery.py</text>
</g>
</g>
</svg>
