<?xml version="1.0" encoding="UTF-8" standalone="no"?>
<!DOCTYPE svg PUBLIC "-//W3C//DTD SVG 1.1//EN"
 "http://www.w3.org/Graphics/SVG/1.1/DTD/svg11.dtd">
<!-- Generated by graphviz version 2.40.1 (20161225.0304)
 -->
<!-- Title: packages_sbws Pages: 1 -->
<svg width="1540pt" height="404pt"
 viewBox="0.00 0.00 1540.00 404.00" xmlns="http://www.w3.org/2000/svg" xmlns:xlink="http://www.w3.org/1999/xlink">
<g id="graph0" class="graph" transform="scale(1 1) rotate(0) translate(4 400)">
<title>packages_sbws</title>
<polygon fill="#ffffff" stroke="transparent" points="-4,4 -4,-400 1536,-400 1536,4 -4,4"/>
<!-- 0 -->
<g id="node1" class="node">
<title>0</title>
<polygon fill="none" stroke="#000000" points="847,-396 793,-396 793,-360 847,-360 847,-396"/>
<text text-anchor="middle" x="820" y="-374.3" font-family="Times,serif" font-size="14.00" fill="#000000">sbws</text>
</g>
<!-- 1 -->
<g id="node2" class="node">
<title>1</title>
<polygon fill="none" stroke="#000000" points="930.5,-36 841.5,-36 841.5,0 930.5,0 930.5,-36"/>
<text text-anchor="middle" x="886" y="-14.3" font-family="Times,serif" font-size="14.00" fill="#000000">sbws.core</text>
</g>
<!-- 2 -->
<g id="node3" class="node">
<title>2</title>
<polygon fill="none" stroke="#000000" points="921.5,-108 772.5,-108 772.5,-72 921.5,-72 921.5,-108"/>
<text text-anchor="middle" x="847" y="-86.3" font-family="Times,serif" font-size="14.00" fill="#000000">sbws.core.cleanup</text>
</g>
<!-- 6 -->
<g id="node7" class="node">
<title>6</title>
<polygon fill="none" stroke="#000000" points="874,-324 766,-324 766,-288 874,-288 874,-324"/>
<text text-anchor="middle" x="820" y="-302.3" font-family="Times,serif" font-size="14.00" fill="#000000">sbws.globals</text>
</g>
<!-- 2&#45;&gt;6 -->
<g id="edge1" class="edge">
<title>2&#45;&gt;6</title>
<path fill="none" stroke="#000000" d="M867.9033,-108.4281C877.3071,-118.0209 887.5093,-130.545 893,-144 911.1552,-188.4896 920.301,-209.4371 898,-252 891.5415,-264.3265 880.8495,-274.3987 869.4222,-282.3618"/>
<polygon fill="#000000" stroke="#000000" points="861.0213,-287.7895 866.9787,-278.5829 865.2211,-285.0761 869.4208,-282.3627 869.4208,-282.3627 869.4208,-282.3627 865.2211,-285.0761 871.8628,-286.1424 861.0213,-287.7895 861.0213,-287.7895"/>
</g>
<!-- 18 -->
<g id="node19" class="node">
<title>18</title>
<polygon fill="none" stroke="#000000" points="889,-252 751,-252 751,-216 889,-216 889,-252"/>
<text text-anchor="middle" x="820" y="-230.3" font-family="Times,serif" font-size="14.00" fill="#000000">sbws.util.filelock</text>
</g>
<!-- 2&#45;&gt;18 -->
<g id="edge2" class="edge">
<title>2&#45;&gt;18</title>
<path fill="none" stroke="#000000" d="M860.885,-108.2639C873.0907,-126.6878 887.4126,-155.7921 877,-180 872.2509,-191.0411 864.0115,-200.8824 855.2494,-209.0407"/>
<polygon fill="#000000" stroke="#000000" points="847.4894,-215.7646 852.1001,-205.8151 851.2682,-212.4903 855.047,-209.216 855.047,-209.216 855.047,-209.216 851.2682,-212.4903 857.9939,-212.6169 847.4894,-215.7646 847.4894,-215.7646"/>
</g>
<!-- 25 -->
<g id="node26" class="node">
<title>25</title>
<polygon fill="none" stroke="#000000" points="868,-180 706,-180 706,-144 868,-144 868,-180"/>
<text text-anchor="middle" x="787" y="-158.3" font-family="Times,serif" font-size="14.00" fill="#000000">sbws.util.timestamp</text>
</g>
<!-- 2&#45;&gt;25 -->
<g id="edge3" class="edge">
<title>2&#45;&gt;25</title>
<path fill="none" stroke="#000000" d="M831.8595,-108.1686C824.8783,-116.546 816.4609,-126.6469 808.8124,-135.8251"/>
<polygon fill="#000000" stroke="#000000" points="802.3444,-143.5867 805.2893,-133.0237 805.5453,-139.7456 808.7463,-135.9045 808.7463,-135.9045 808.7463,-135.9045 805.5453,-139.7456 812.2033,-138.7853 802.3444,-143.5867 802.3444,-143.5867"/>
</g>
<!-- 3 -->
<g id="node4" class="node">
<title>3</title>
<polygon fill="none" stroke="#000000" points="823.5,-36 666.5,-36 666.5,0 823.5,0 823.5,-36"/>
<text text-anchor="middle" x="745" y="-14.3" font-family="Times,serif" font-size="14.00" fill="#000000">sbws.core.generate</text>
</g>
<!-- 3&#45;&gt;6 -->
<g id="edge4" class="edge">
<title>3&#45;&gt;6</title>
<path fill="none" stroke="#000000" d="M666.307,-30.9037C618.8248,-40.2853 564.4249,-54.4042 548,-72 492.7068,-131.235 467.0064,-189.8486 519,-252 548.5455,-287.3178 676.2476,-299.5665 755.5223,-303.7935"/>
<polygon fill="#000000" stroke="#000000" points="765.894,-304.3157 755.6803,-308.3071 760.9003,-304.0643 755.9066,-303.8128 755.9066,-303.8128 755.9066,-303.8128 760.9003,-304.0643 756.133,-299.3185 765.894,-304.3157 765.894,-304.3157"/>
</g>
<!-- 7 -->
<g id="node8" class="node">
<title>7</title>
<polygon fill="none" stroke="#000000" points="1014.5,-108 939.5,-108 939.5,-72 1014.5,-72 1014.5,-108"/>
<text text-anchor="middle" x="977" y="-86.3" font-family="Times,serif" font-size="14.00" fill="#000000">sbws.lib</text>
</g>
<!-- 3&#45;&gt;7 -->
<g id="edge5" class="edge">
<title>3&#45;&gt;7</title>
<path fill="none" stroke="#000000" d="M811.7691,-36.066C844.7797,-45.3316 885.348,-57.2139 929.8366,-72.0696"/>
<polygon fill="#000000" stroke="#000000" points="939.3881,-75.2849 928.475,-76.3593 934.6494,-73.6897 929.9107,-72.0945 929.9107,-72.0945 929.9107,-72.0945 934.6494,-73.6897 931.3464,-67.8296 939.3881,-75.2849 939.3881,-75.2849"/>
</g>
<!-- 13 -->
<g id="node14" class="node">
<title>13</title>
<polygon fill="none" stroke="#000000" points="1124,-180 962,-180 962,-144 1124,-144 1124,-180"/>
<text text-anchor="middle" x="1043" y="-158.3" font-family="Times,serif" font-size="14.00" fill="#000000">sbws.lib.resultdump</text>
</g>
<!-- 3&#45;&gt;13 -->
<g id="edge6" class="edge">
<title>3&#45;&gt;13</title>
<path fill="none" stroke="#000000" d="M823.7072,-34.3529C826.5052,-34.9123 829.2761,-35.4629 832,-36 917.1803,-52.7959 961.9157,-11.3097 1024,-72 1040.1653,-87.8024 1044.2626,-113.6476 1044.6953,-133.5972"/>
<polygon fill="#000000" stroke="#000000" points="1044.6224,-143.6896 1040.1949,-133.6573 1044.6586,-138.6898 1044.6948,-133.6899 1044.6948,-133.6899 1044.6948,-133.6899 1044.6586,-138.6898 1049.1947,-133.7225 1044.6224,-143.6896 1044.6224,-143.6896"/>
</g>
<!-- 14 -->
<g id="node15" class="node">
<title>14</title>
<polygon fill="none" stroke="#000000" points="697,-108 557,-108 557,-72 697,-72 697,-108"/>
<text text-anchor="middle" x="627" y="-86.3" font-family="Times,serif" font-size="14.00" fill="#000000">sbws.lib.v3bwfile</text>
</g>
<!-- 3&#45;&gt;14 -->
<g id="edge7" class="edge">
<title>3&#45;&gt;14</title>
<path fill="none" stroke="#000000" d="M715.2236,-36.1686C700.1307,-45.3779 681.6243,-56.6699 665.4657,-66.5294"/>
<polygon fill="#000000" stroke="#000000" points="656.7669,-71.8372 662.9594,-62.7871 661.0351,-69.2328 665.3033,-66.6285 665.3033,-66.6285 665.3033,-66.6285 661.0351,-69.2328 667.6472,-70.4699 656.7669,-71.8372 656.7669,-71.8372"/>
</g>
<!-- 3&#45;&gt;25 -->
<g id="edge8" class="edge">
<title>3&#45;&gt;25</title>
<path fill="none" stroke="#000000" d="M747.4366,-36.2263C750.1755,-54.6211 755.2757,-83.7032 763,-108 765.8149,-116.8543 769.6417,-126.2019 773.4122,-134.5857"/>
<polygon fill="#000000" stroke="#000000" points="777.7486,-143.8975 769.4476,-136.732 775.6378,-139.3649 773.527,-134.8323 773.527,-134.8323 773.527,-134.8323 775.6378,-139.3649 777.6064,-132.9326 777.7486,-143.8975 777.7486,-143.8975"/>
</g>
<!-- 4 -->
<g id="node5" class="node">
<title>4</title>
<polygon fill="none" stroke="#000000" points="678,-252 528,-252 528,-216 678,-216 678,-252"/>
<text text-anchor="middle" x="603" y="-230.3" font-family="Times,serif" font-size="14.00" fill="#000000">sbws.core.scanner</text>
</g>
<!-- 4&#45;&gt;6 -->
<g id="edge9" class="edge">
<title>4&#45;&gt;6</title>
<path fill="none" stroke="#000000" d="M657.4782,-252.0757C687.5151,-262.0419 724.9679,-274.4686 756.3472,-284.8802"/>
<polygon fill="#000000" stroke="#000000" points="765.8757,-288.0417 754.9674,-289.1635 761.1301,-286.4671 756.3845,-284.8925 756.3845,-284.8925 756.3845,-284.8925 761.1301,-286.4671 757.8017,-280.6214 765.8757,-288.0417 765.8757,-288.0417"/>
</g>
<!-- 5 -->
<g id="node6" class="node">
<title>5</title>
<polygon fill="none" stroke="#000000" points="1207,-108 1079,-108 1079,-72 1207,-72 1207,-108"/>
<text text-anchor="middle" x="1143" y="-86.3" font-family="Times,serif" font-size="14.00" fill="#000000">sbws.core.stats</text>
</g>
<!-- 5&#45;&gt;6 -->
<g id="edge10" class="edge">
<title>5&#45;&gt;6</title>
<path fill="none" stroke="#000000" d="M1146.2454,-108.3494C1148.6654,-128.2043 1149.1916,-159.734 1133,-180 1102.4685,-218.2142 1071.8313,-192.3786 1029,-216 1006.5721,-228.3689 1006.521,-239.8014 984,-252 974.7079,-257.0331 925.8907,-272.9064 883.912,-286.1502"/>
<polygon fill="#000000" stroke="#000000" points="874.2487,-289.1909 882.4369,-281.8968 879.0182,-287.6901 883.7876,-286.1893 883.7876,-286.1893 883.7876,-286.1893 879.0182,-287.6901 885.1383,-290.4818 874.2487,-289.1909 874.2487,-289.1909"/>
</g>
<!-- 5&#45;&gt;13 -->
<g id="edge11" class="edge">
<title>5&#45;&gt;13</title>
<path fill="none" stroke="#000000" d="M1117.7658,-108.1686C1105.212,-117.2073 1089.8717,-128.2524 1076.3609,-137.9802"/>
<polygon fill="#000000" stroke="#000000" points="1068.2261,-143.8372 1073.7121,-134.3422 1072.2838,-140.9156 1076.3415,-137.9941 1076.3415,-137.9941 1076.3415,-137.9941 1072.2838,-140.9156 1078.9709,-141.646 1068.2261,-143.8372 1068.2261,-143.8372"/>
</g>
<!-- 6&#45;&gt;0 -->
<g id="edge12" class="edge">
<title>6&#45;&gt;0</title>
<path fill="none" stroke="#000000" d="M820,-324.1686C820,-331.869 820,-341.0257 820,-349.5834"/>
<polygon fill="#000000" stroke="#000000" points="820,-359.5867 815.5001,-349.5867 820,-354.5867 820.0001,-349.5867 820.0001,-349.5867 820.0001,-349.5867 820,-354.5867 824.5001,-349.5868 820,-359.5867 820,-359.5867"/>
</g>
<!-- 8 -->
<g id="node9" class="node">
<title>8</title>
<polygon fill="none" stroke="#000000" points="1532,-180 1354,-180 1354,-144 1532,-144 1532,-180"/>
<text text-anchor="middle" x="1443" y="-158.3" font-family="Times,serif" font-size="14.00" fill="#000000">sbws.lib.circuitbuilder</text>
</g>
<!-- 11 -->
<g id="node12" class="node">
<title>11</title>
<polygon fill="none" stroke="#000000" points="1512,-252 1374,-252 1374,-216 1512,-216 1512,-252"/>
<text text-anchor="middle" x="1443" y="-230.3" font-family="Times,serif" font-size="14.00" fill="#000000">sbws.lib.relaylist</text>
</g>
<!-- 8&#45;&gt;11 -->
<g id="edge13" class="edge">
<title>8&#45;&gt;11</title>
<path fill="none" stroke="#000000" d="M1443,-180.1686C1443,-187.869 1443,-197.0257 1443,-205.5834"/>
<polygon fill="#000000" stroke="#000000" points="1443,-215.5867 1438.5001,-205.5867 1443,-210.5867 1443.0001,-205.5867 1443.0001,-205.5867 1443.0001,-205.5867 1443,-210.5867 1447.5001,-205.5868 1443,-215.5867 1443,-215.5867"/>
</g>
<!-- 9 -->
<g id="node10" class="node">
<title>9</title>
<polygon fill="none" stroke="#000000" points="1198,-252 1038,-252 1038,-216 1198,-216 1198,-252"/>
<text text-anchor="middle" x="1118" y="-230.3" font-family="Times,serif" font-size="14.00" fill="#000000">sbws.lib.destination</text>
</g>
<!-- 9&#45;&gt;0 -->
<g id="edge14" class="edge">
<title>9&#45;&gt;0</title>
<path fill="none" stroke="#000000" d="M1041.1995,-252.0523C996.9734,-263.1359 946.251,-277.2229 926,-288 923.7869,-289.1778 879.7948,-326.7386 849.1878,-352.9588"/>
<polygon fill="#000000" stroke="#000000" points="841.3425,-359.6823 846.0072,-349.758 845.139,-356.4286 848.9356,-353.1749 848.9356,-353.1749 848.9356,-353.1749 845.139,-356.4286 851.8639,-356.5918 841.3425,-359.6823 841.3425,-359.6823"/>
</g>
<!-- 9&#45;&gt;6 -->
<g id="edge15" class="edge">
<title>9&#45;&gt;6</title>
<path fill="none" stroke="#000000" d="M1038.8304,-252.0082C994.4176,-262.2558 938.0417,-275.505 888,-288 886.7337,-288.3162 885.4546,-288.6373 884.166,-288.9625"/>
<polygon fill="#000000" stroke="#000000" points="874.1551,-291.5178 882.7315,-284.6843 878.9998,-290.2811 883.8444,-289.0445 883.8444,-289.0445 883.8444,-289.0445 878.9998,-290.2811 884.9574,-293.4047 874.1551,-291.5178 874.1551,-291.5178"/>
</g>
<!-- 10 -->
<g id="node11" class="node">
<title>10</title>
<polygon fill="none" stroke="#000000" points="1097.5,-36 948.5,-36 948.5,0 1097.5,0 1097.5,-36"/>
<text text-anchor="middle" x="1023" y="-14.3" font-family="Times,serif" font-size="14.00" fill="#000000">sbws.lib.heartbeat</text>
</g>
<!-- 12 -->
<g id="node13" class="node">
<title>12</title>
<polygon fill="none" stroke="#000000" points="1304,-36 1116,-36 1116,0 1304,0 1304,-36"/>
<text text-anchor="middle" x="1210" y="-14.3" font-family="Times,serif" font-size="14.00" fill="#000000">sbws.lib.relayprioritizer</text>
</g>
<!-- 13&#45;&gt;6 -->
<g id="edge16" class="edge">
<title>13&#45;&gt;6</title>
<path fill="none" stroke="#000000" d="M1027.4177,-180.2585C1009.7748,-200.0337 979.3808,-231.4941 948,-252 928.2138,-264.9293 904.8191,-275.873 883.478,-284.4565"/>
<polygon fill="#000000" stroke="#000000" points="874.1569,-288.1109 881.8244,-280.2713 878.812,-286.2859 883.467,-284.4608 883.467,-284.4608 883.467,-284.4608 878.812,-286.2859 885.1096,-288.6503 874.1569,-288.1109 874.1569,-288.1109"/>
</g>
<!-- 13&#45;&gt;11 -->
<g id="edge17" class="edge">
<title>13&#45;&gt;11</title>
<path fill="none" stroke="#000000" d="M1124.3031,-174.2376C1187.1352,-184.0184 1276.4906,-198.6281 1363.6577,-215.7885"/>
<polygon fill="#000000" stroke="#000000" points="1373.7245,-217.7838 1363.0404,-220.2536 1368.8199,-216.8116 1363.9153,-215.8395 1363.9153,-215.8395 1363.9153,-215.8395 1368.8199,-216.8116 1364.7903,-211.4253 1373.7245,-217.7838 1373.7245,-217.7838"/>
</g>
<!-- 13&#45;&gt;18 -->
<g id="edge18" class="edge">
<title>13&#45;&gt;18</title>
<path fill="none" stroke="#000000" d="M987.0155,-180.0757C956.265,-190.0041 917.9512,-202.3745 885.7795,-212.7618"/>
<polygon fill="#000000" stroke="#000000" points="876.0075,-215.9169 884.1411,-208.5619 880.7657,-214.3806 885.5238,-212.8443 885.5238,-212.8443 885.5238,-212.8443 880.7657,-214.3806 886.9065,-217.1266 876.0075,-215.9169 876.0075,-215.9169"/>
</g>
<!-- 14&#45;&gt;0 -->
<g id="edge19" class="edge">
<title>14&#45;&gt;0</title>
<path fill="none" stroke="#000000" d="M581.8903,-108.1537C565.5776,-116.7805 548.3904,-128.6272 537,-144 508.0299,-183.099 492.0405,-211.4884 519,-252 578.7319,-341.7582 716.0103,-367.6973 782.5211,-375.099"/>
<polygon fill="#000000" stroke="#000000" points="792.5653,-376.1347 782.1564,-379.5852 787.5917,-375.6218 782.618,-375.1089 782.618,-375.1089 782.618,-375.1089 787.5917,-375.6218 783.0797,-370.6326 792.5653,-376.1347 792.5653,-376.1347"/>
</g>
<!-- 14&#45;&gt;6 -->
<g id="edge20" class="edge">
<title>14&#45;&gt;6</title>
<path fill="none" stroke="#000000" d="M584.532,-108.2295C569.9156,-116.8139 555.1789,-128.6114 547,-144 539.4908,-158.1284 537.1958,-167.3557 547,-180 586.3679,-230.7718 628.4241,-189.6094 687,-216 692.3096,-218.3922 747.3562,-256.0086 784.946,-281.8449"/>
<polygon fill="#000000" stroke="#000000" points="793.6154,-287.8073 782.8259,-285.8483 789.4957,-284.9739 785.3759,-282.1405 785.3759,-282.1405 785.3759,-282.1405 789.4957,-284.9739 787.926,-278.4328 793.6154,-287.8073 793.6154,-287.8073"/>
</g>
<!-- 14&#45;&gt;13 -->
<g id="edge21" class="edge">
<title>14&#45;&gt;13</title>
<path fill="none" stroke="#000000" d="M697.0983,-102.1324C767.126,-114.2526 875.1086,-132.9419 951.7767,-146.2114"/>
<polygon fill="#000000" stroke="#000000" points="961.9078,-147.9648 951.2868,-150.6934 956.9811,-147.1121 952.0543,-146.2593 952.0543,-146.2593 952.0543,-146.2593 956.9811,-147.1121 952.8218,-141.8252 961.9078,-147.9648 961.9078,-147.9648"/>
</g>
<!-- 14&#45;&gt;18 -->
<g id="edge22" class="edge">
<title>14&#45;&gt;18</title>
<path fill="none" stroke="#000000" d="M591.5646,-108.1158C578.1659,-116.9675 564.3802,-128.9858 557,-144 549.9419,-158.3591 546.8878,-167.6006 557,-180 559.9823,-183.6569 664.4803,-204.3046 740.837,-218.978"/>
<polygon fill="#000000" stroke="#000000" points="750.9398,-220.9163 740.271,-223.4515 746.0294,-219.9742 741.1189,-219.0321 741.1189,-219.0321 741.1189,-219.0321 746.0294,-219.9742 741.9668,-214.6127 750.9398,-220.9163 750.9398,-220.9163"/>
</g>
<!-- 23 -->
<g id="node24" class="node">
<title>23</title>
<polygon fill="none" stroke="#000000" points="688,-180 566,-180 566,-144 688,-144 688,-180"/>
<text text-anchor="middle" x="627" y="-158.3" font-family="Times,serif" font-size="14.00" fill="#000000">sbws.util.state</text>
</g>
<!-- 14&#45;&gt;23 -->
<g id="edge23" class="edge">
<title>14&#45;&gt;23</title>
<path fill="none" stroke="#000000" d="M627,-108.1686C627,-115.869 627,-125.0257 627,-133.5834"/>
<polygon fill="#000000" stroke="#000000" points="627,-143.5867 622.5001,-133.5867 627,-138.5867 627.0001,-133.5867 627.0001,-133.5867 627.0001,-133.5867 627,-138.5867 631.5001,-133.5868 627,-143.5867 627,-143.5867"/>
</g>
<!-- 14&#45;&gt;25 -->
<g id="edge24" class="edge">
<title>14&#45;&gt;25</title>
<path fill="none" stroke="#000000" d="M667.3748,-108.1686C688.6787,-117.7554 714.9983,-129.5992 737.5211,-139.7345"/>
<polygon fill="#000000" stroke="#000000" points="746.9156,-143.962 735.9497,-143.962 742.356,-141.9102 737.7964,-139.8583 737.7964,-139.8583 737.7964,-139.8583 742.356,-141.9102 739.643,-135.7547 746.9156,-143.962 746.9156,-143.962"/>
</g>
<!-- 15 -->
<g id="node16" class="node">
<title>15</title>
<polygon fill="none" stroke="#000000" points="245.5,-180 152.5,-180 152.5,-144 245.5,-144 245.5,-180"/>
<text text-anchor="middle" x="199" y="-158.3" font-family="Times,serif" font-size="14.00" fill="#000000">sbws.sbws</text>
</g>
<!-- 15&#45;&gt;0 -->
<g id="edge25" class="edge">
<title>15&#45;&gt;0</title>
<path fill="none" stroke="#000000" d="M188.023,-180.2018C178.1714,-199.0921 166.9657,-229.0318 179,-252 205.0913,-301.797 230.2459,-304.5707 283,-324 375.1255,-357.9298 676.2473,-372.4948 782.4814,-376.663"/>
<polygon fill="#000000" stroke="#000000" points="792.7208,-377.056 782.5555,-381.1691 787.7245,-376.8642 782.7282,-376.6724 782.7282,-376.6724 782.7282,-376.6724 787.7245,-376.8642 782.9008,-372.1757 792.7208,-377.056 792.7208,-377.056"/>
</g>
<!-- 17 -->
<g id="node18" class="node">
<title>17</title>
<polygon fill="none" stroke="#000000" points="434,-252 304,-252 304,-216 434,-216 434,-252"/>
<text text-anchor="middle" x="369" y="-230.3" font-family="Times,serif" font-size="14.00" fill="#000000">sbws.util.config</text>
</g>
<!-- 15&#45;&gt;17 -->
<g id="edge26" class="edge">
<title>15&#45;&gt;17</title>
<path fill="none" stroke="#000000" d="M241.8982,-180.1686C264.7357,-189.841 292.998,-201.8109 317.0687,-212.0056"/>
<polygon fill="#000000" stroke="#000000" points="326.4103,-215.962 315.4471,-216.2057 321.8062,-214.012 317.2021,-212.062 317.2021,-212.062 317.2021,-212.062 321.8062,-214.012 318.9571,-207.9183 326.4103,-215.962 326.4103,-215.962"/>
</g>
<!-- 19 -->
<g id="node20" class="node">
<title>19</title>
<polygon fill="none" stroke="#000000" points="286,-252 188,-252 188,-216 286,-216 286,-252"/>
<text text-anchor="middle" x="237" y="-230.3" font-family="Times,serif" font-size="14.00" fill="#000000">sbws.util.fs</text>
</g>
<!-- 15&#45;&gt;19 -->
<g id="edge27" class="edge">
<title>15&#45;&gt;19</title>
<path fill="none" stroke="#000000" d="M208.589,-180.1686C212.8317,-188.2075 217.9121,-197.8334 222.596,-206.7082"/>
<polygon fill="#000000" stroke="#000000" points="227.2819,-215.5867 218.6345,-208.8433 224.9481,-211.1648 222.6142,-206.7429 222.6142,-206.7429 222.6142,-206.7429 224.9481,-211.1648 226.594,-204.6424 227.2819,-215.5867 227.2819,-215.5867"/>
</g>
<!-- 21 -->
<g id="node22" class="node">
<title>21</title>
<polygon fill="none" stroke="#000000" points="132,-324 0,-324 0,-288 132,-288 132,-324"/>
<text text-anchor="middle" x="66" y="-302.3" font-family="Times,serif" font-size="14.00" fill="#000000">sbws.util.parser</text>
</g>
<!-- 15&#45;&gt;21 -->
<g id="edge28" class="edge">
<title>15&#45;&gt;21</title>
<path fill="none" stroke="#000000" d="M180.6196,-180.2756C170.3141,-190.6343 157.2984,-203.9047 146,-216 126.1995,-237.197 104.362,-261.8548 88.5121,-279.9952"/>
<polygon fill="#000000" stroke="#000000" points="81.6798,-287.8355 84.857,-277.34 84.9647,-284.0659 88.2496,-280.2964 88.2496,-280.2964 88.2496,-280.2964 84.9647,-284.0659 91.6422,-283.2528 81.6798,-287.8355 81.6798,-287.8355"/>
</g>
<!-- 16 -->
<g id="node17" class="node">
<title>16</title>
<polygon fill="none" stroke="#000000" points="1082.5,-396 1001.5,-396 1001.5,-360 1082.5,-360 1082.5,-396"/>
<text text-anchor="middle" x="1042" y="-374.3" font-family="Times,serif" font-size="14.00" fill="#000000">sbws.util</text>
</g>
<!-- 17&#45;&gt;6 -->
<g id="edge29" class="edge">
<title>17&#45;&gt;6</title>
<path fill="none" stroke="#000000" d="M434.0976,-244.3925C520.0082,-258.1077 670.3196,-282.1042 755.786,-295.7485"/>
<polygon fill="#000000" stroke="#000000" points="765.8786,-297.3598 755.2942,-300.2269 760.9411,-296.5715 756.0036,-295.7832 756.0036,-295.7832 756.0036,-295.7832 760.9411,-296.5715 756.7131,-291.3395 765.8786,-297.3598 765.8786,-297.3598"/>
</g>
<!-- 20 -->
<g id="node21" class="node">
<title>20</title>
<polygon fill="none" stroke="#000000" points="434,-324 292,-324 292,-288 434,-288 434,-324"/>
<text text-anchor="middle" x="363" y="-302.3" font-family="Times,serif" font-size="14.00" fill="#000000">sbws.util.iso3166</text>
</g>
<!-- 17&#45;&gt;20 -->
<g id="edge30" class="edge">
<title>17&#45;&gt;20</title>
<path fill="none" stroke="#000000" d="M367.4859,-252.1686C366.8442,-259.869 366.0812,-269.0257 365.3681,-277.5834"/>
<polygon fill="#000000" stroke="#000000" points="364.5344,-287.5867 360.8805,-277.2475 364.9497,-282.604 365.365,-277.6213 365.365,-277.6213 365.365,-277.6213 364.9497,-282.604 369.8494,-277.995 364.5344,-287.5867 364.5344,-287.5867"/>
</g>
<!-- 18&#45;&gt;6 -->
<g id="edge31" class="edge">
<title>18&#45;&gt;6</title>
<path fill="none" stroke="#000000" d="M820,-252.1686C820,-259.869 820,-269.0257 820,-277.5834"/>
<polygon fill="#000000" stroke="#000000" points="820,-287.5867 815.5001,-277.5867 820,-282.5867 820.0001,-277.5867 820.0001,-277.5867 820.0001,-277.5867 820,-282.5867 824.5001,-277.5868 820,-287.5867 820,-287.5867"/>
</g>
<!-- 21&#45;&gt;0 -->
<g id="edge32" class="edge">
<title>21&#45;&gt;0</title>
<path fill="none" stroke="#000000" d="M132.2174,-321.6564C136.8681,-322.5224 141.496,-323.3164 146,-324 386.9993,-360.5791 680.4862,-373.3458 782.7469,-376.8634"/>
<polygon fill="#000000" stroke="#000000" points="792.8745,-377.2027 782.7293,-381.3652 787.8773,-377.0352 782.8801,-376.8678 782.8801,-376.8678 782.8801,-376.8678 787.8773,-377.0352 783.0308,-372.3703 792.8745,-377.2027 792.8745,-377.2027"/>
</g>
<!-- 22 -->
<g id="node23" class="node">
<title>22</title>
<polygon fill="none" stroke="#000000" points="1116,-324 968,-324 968,-288 1116,-288 1116,-324"/>
<text text-anchor="middle" x="1042" y="-302.3" font-family="Times,serif" font-size="14.00" fill="#000000">sbws.util.requests</text>
</g>
<!-- 22&#45;&gt;0 -->
<g id="edge33" class="edge">
<title>22&#45;&gt;0</title>
<path fill="none" stroke="#000000" d="M986.2666,-324.0757C945.8194,-337.1937 892.2278,-354.5748 856.9627,-366.0121"/>
<polygon fill="#000000" stroke="#000000" points="847.0854,-369.2156 855.2093,-361.8499 851.8415,-367.673 856.5976,-366.1304 856.5976,-366.1304 856.5976,-366.1304 851.8415,-367.673 857.9859,-370.411 847.0854,-369.2156 847.0854,-369.2156"/>
</g>
<!-- 22&#45;&gt;16 -->
<g id="edge34" class="edge">
<title>22&#45;&gt;16</title>
<path fill="none" stroke="#000000" d="M1042,-324.1686C1042,-331.869 1042,-341.0257 1042,-349.5834"/>
<polygon fill="#000000" stroke="#000000" points="1042,-359.5867 1037.5001,-349.5867 1042,-354.5867 1042.0001,-349.5867 1042.0001,-349.5867 1042.0001,-349.5867 1042,-354.5867 1046.5001,-349.5868 1042,-359.5867 1042,-359.5867"/>
</g>
<!-- 23&#45;&gt;18 -->
<g id="edge35" class="edge">
<title>23&#45;&gt;18</title>
<path fill="none" stroke="#000000" d="M675.702,-180.1686C701.9736,-189.9694 734.5683,-202.1291 762.1284,-212.4106"/>
<polygon fill="#000000" stroke="#000000" points="771.6482,-215.962 760.706,-216.6828 766.9635,-214.2143 762.2789,-212.4667 762.2789,-212.4667 762.2789,-212.4667 766.9635,-214.2143 763.8518,-208.2505 771.6482,-215.962 771.6482,-215.962"/>
</g>
<!-- 24 -->
<g id="node25" class="node">
<title>24</title>
<polygon fill="none" stroke="#000000" points="1337.5,-252 1216.5,-252 1216.5,-216 1337.5,-216 1337.5,-252"/>
<text text-anchor="middle" x="1277" y="-230.3" font-family="Times,serif" font-size="14.00" fill="#000000">sbws.util.stem</text>
</g>
<!-- 24&#45;&gt;0 -->
<g id="edge36" class="edge">
<title>24&#45;&gt;0</title>
<path fill="none" stroke="#000000" d="M1216.3855,-250.0118C1213.2184,-250.7151 1210.0758,-251.3832 1207,-252 1097.7969,-273.9004 1059.5407,-240.0781 959,-288 937.7061,-298.1496 939.1949,-310.2886 920,-324 900.1317,-338.1924 876.1046,-351.2821 856.5821,-361.0187"/>
<polygon fill="#000000" stroke="#000000" points="847.3982,-365.5193 854.3977,-357.0778 851.8881,-363.319 856.3779,-361.1187 856.3779,-361.1187 856.3779,-361.1187 851.8881,-363.319 858.3582,-365.1596 847.3982,-365.5193 847.3982,-365.5193"/>
</g>
<!-- 24&#45;&gt;6 -->
<g id="edge37" class="edge">
<title>24&#45;&gt;6</title>
<path fill="none" stroke="#000000" d="M1216.3978,-250.0747C1213.2275,-250.7616 1210.0808,-251.4089 1207,-252 1083.3456,-275.7241 1050.5366,-269.4566 926,-288 912.4061,-290.0241 897.8634,-292.3729 884.042,-294.6921"/>
<polygon fill="#000000" stroke="#000000" points="874.1293,-296.3706 883.2377,-290.2642 879.0592,-295.5358 883.989,-294.701 883.989,-294.701 883.989,-294.701 879.0592,-295.5358 884.7403,-299.1379 874.1293,-296.3706 874.1293,-296.3706"/>
</g>
<!-- 24&#45;&gt;24 -->
<g id="edge38" class="edge">
<title>24&#45;&gt;24</title>
<path fill="none" stroke="#000000" d="M1337.5615,-221.3438C1348.1406,-223.0313 1355.5,-227.25 1355.5,-234 1355.5,-238.3242 1352.4797,-241.6096 1347.5275,-243.8562"/>
<polygon fill="#000000" stroke="#000000" points="1337.5615,-246.6563 1345.9715,-239.619 1342.3751,-245.3038 1347.1888,-243.9513 1347.1888,-243.9513 1347.1888,-243.9513 1342.3751,-245.3038 1348.406,-248.2835 1337.5615,-246.6563 1337.5615,-246.6563"/>
</g>
</g>
</svg>
