<?xml version="1.0" encoding="UTF-8" standalone="no"?>
<!DOCTYPE svg PUBLIC "-//W3C//DTD SVG 1.1//EN"
 "http://www.w3.org/Graphics/SVG/1.1/DTD/svg11.dtd">
<!-- Generated by graphviz version 2.38.0 (20140413.2041)
 -->
<!-- Title: packages_sbws Pages: 1 -->
<svg width="1263pt" height="404pt"
 viewBox="0.00 0.00 1263.00 404.00" xmlns="http://www.w3.org/2000/svg" xmlns:xlink="http://www.w3.org/1999/xlink">
<g id="graph0" class="graph" transform="scale(1 1) rotate(0) translate(4 400)">
<title>packages_sbws</title>
<polygon fill="white" stroke="none" points="-4,4 -4,-400 1259,-400 1259,4 -4,4"/>
<!-- 0 -->
<g id="node1" class="node"><title>0</title>
<polygon fill="none" stroke="black" points="931,-252 877,-252 877,-216 931,-216 931,-252"/>
<text text-anchor="middle" x="904" y="-230.3" font-family="Times,serif" font-size="14.00">sbws</text>
</g>
<!-- 1 -->
<g id="node2" class="node"><title>1</title>
<polygon fill="none" stroke="black" points="827.5,-36 756.5,-36 756.5,-0 827.5,-0 827.5,-36"/>
<text text-anchor="middle" x="792" y="-14.3" font-family="Times,serif" font-size="14.00">sbws.core</text>
</g>
<!-- 2 -->
<g id="node3" class="node"><title>2</title>
<polygon fill="none" stroke="black" points="1065,-252 949,-252 949,-216 1065,-216 1065,-252"/>
<text text-anchor="middle" x="1007" y="-230.3" font-family="Times,serif" font-size="14.00">sbws.core.cleanup</text>
</g>
<!-- 7 -->
<g id="node8" class="node"><title>7</title>
<polygon fill="none" stroke="black" points="617,-396 531,-396 531,-360 617,-360 617,-396"/>
<text text-anchor="middle" x="574" y="-374.3" font-family="Times,serif" font-size="14.00">sbws.globals</text>
</g>
<!-- 2&#45;&gt;7 -->
<g id="edge1" class="edge"><title>2&#45;&gt;7</title>
<path fill="none" stroke="black" d="M993.59,-252.311C975.153,-275.63 942.398,-315.234 926,-324 875.33,-351.088 712.565,-366.787 627.274,-373.351"/>
<polygon fill="black" stroke="black" points="617.269,-374.106 626.902,-368.866 622.255,-373.729 627.241,-373.353 627.241,-373.353 627.241,-373.353 622.255,-373.729 627.58,-377.84 617.269,-374.106 617.269,-374.106"/>
</g>
<!-- 18 -->
<g id="node19" class="node"><title>18</title>
<polygon fill="none" stroke="black" points="917,-324 807,-324 807,-288 917,-288 917,-324"/>
<text text-anchor="middle" x="862" y="-302.3" font-family="Times,serif" font-size="14.00">sbws.util.filelock</text>
</g>
<!-- 2&#45;&gt;18 -->
<g id="edge2" class="edge"><title>2&#45;&gt;18</title>
<path fill="none" stroke="black" d="M971.529,-252.124C951.883,-261.608 927.278,-273.487 906.368,-283.581"/>
<polygon fill="black" stroke="black" points="897.356,-287.932 904.405,-279.532 901.859,-285.758 906.361,-283.584 906.361,-283.584 906.361,-283.584 901.859,-285.758 908.318,-287.637 897.356,-287.932 897.356,-287.932"/>
</g>
<!-- 3 -->
<g id="node4" class="node"><title>3</title>
<polygon fill="none" stroke="black" points="738,-36 618,-36 618,-0 738,-0 738,-36"/>
<text text-anchor="middle" x="678" y="-14.3" font-family="Times,serif" font-size="14.00">sbws.core.generate</text>
</g>
<!-- 3&#45;&gt;7 -->
<g id="edge3" class="edge"><title>3&#45;&gt;7</title>
<path fill="none" stroke="black" d="M617.707,-23.3661C577.412,-29.0683 525.329,-42.1364 489,-72 454.76,-100.147 444,-116.676 444,-161 444,-161 444,-161 444,-235 444,-288.377 494.589,-330.418 532.651,-354.495"/>
<polygon fill="black" stroke="black" points="541.531,-359.935 530.653,-358.548 537.267,-357.323 533.004,-354.711 533.004,-354.711 533.004,-354.711 537.267,-357.323 535.355,-350.874 541.531,-359.935 541.531,-359.935"/>
</g>
<!-- 13 -->
<g id="node14" class="node"><title>13</title>
<polygon fill="none" stroke="black" points="637.5,-180 510.5,-180 510.5,-144 637.5,-144 637.5,-180"/>
<text text-anchor="middle" x="574" y="-158.3" font-family="Times,serif" font-size="14.00">sbws.lib.resultdump</text>
</g>
<!-- 3&#45;&gt;13 -->
<g id="edge4" class="edge"><title>3&#45;&gt;13</title>
<path fill="none" stroke="black" d="M665.455,-36.1285C647.34,-60.8628 613.727,-106.758 592.685,-135.488"/>
<polygon fill="black" stroke="black" points="586.589,-143.811 588.868,-133.084 589.544,-139.777 592.498,-135.743 592.498,-135.743 592.498,-135.743 589.544,-139.777 596.129,-138.402 586.589,-143.811 586.589,-143.811"/>
</g>
<!-- 14 -->
<g id="node15" class="node"><title>14</title>
<polygon fill="none" stroke="black" points="857.5,-108 744.5,-108 744.5,-72 857.5,-72 857.5,-108"/>
<text text-anchor="middle" x="801" y="-86.3" font-family="Times,serif" font-size="14.00">sbws.lib.v3bwfile</text>
</g>
<!-- 3&#45;&gt;14 -->
<g id="edge5" class="edge"><title>3&#45;&gt;14</title>
<path fill="none" stroke="black" d="M708.089,-36.1239C724.32,-45.3612 744.542,-56.8692 761.971,-66.7884"/>
<polygon fill="black" stroke="black" points="770.795,-71.8102 759.878,-70.775 766.45,-69.3371 762.104,-66.864 762.104,-66.864 762.104,-66.864 766.45,-69.3371 764.33,-62.953 770.795,-71.8102 770.795,-71.8102"/>
</g>
<!-- 22 -->
<g id="node23" class="node"><title>22</title>
<polygon fill="none" stroke="black" points="782.5,-180 655.5,-180 655.5,-144 782.5,-144 782.5,-180"/>
<text text-anchor="middle" x="719" y="-158.3" font-family="Times,serif" font-size="14.00">sbws.util.timestamp</text>
</g>
<!-- 3&#45;&gt;22 -->
<g id="edge6" class="edge"><title>3&#45;&gt;22</title>
<path fill="none" stroke="black" d="M682.946,-36.1285C689.964,-60.4364 702.883,-105.181 711.2,-133.987"/>
<polygon fill="black" stroke="black" points="714.037,-143.811 706.939,-135.452 712.65,-139.007 711.263,-134.203 711.263,-134.203 711.263,-134.203 712.65,-139.007 715.586,-132.955 714.037,-143.811 714.037,-143.811"/>
</g>
<!-- 4 -->
<g id="node5" class="node"><title>4</title>
<polygon fill="none" stroke="black" points="1175,-252 1083,-252 1083,-216 1175,-216 1175,-252"/>
<text text-anchor="middle" x="1129" y="-230.3" font-family="Times,serif" font-size="14.00">sbws.core.init</text>
</g>
<!-- 4&#45;&gt;7 -->
<g id="edge7" class="edge"><title>4&#45;&gt;7</title>
<path fill="none" stroke="black" d="M1082.72,-250.468C1057.9,-259.696 1027.32,-272.612 1002,-288 980.702,-300.947 981.79,-313.907 959,-324 900.712,-349.814 718.7,-366.397 627.378,-373.311"/>
<polygon fill="black" stroke="black" points="617.236,-374.068 626.873,-368.836 622.222,-373.696 627.208,-373.324 627.208,-373.324 627.208,-373.324 622.222,-373.696 627.543,-377.811 617.236,-374.068 617.236,-374.068"/>
</g>
<!-- 17 -->
<g id="node18" class="node"><title>17</title>
<polygon fill="none" stroke="black" points="1255,-324 1151,-324 1151,-288 1255,-288 1255,-324"/>
<text text-anchor="middle" x="1203" y="-302.3" font-family="Times,serif" font-size="14.00">sbws.util.config</text>
</g>
<!-- 4&#45;&gt;17 -->
<g id="edge8" class="edge"><title>4&#45;&gt;17</title>
<path fill="none" stroke="black" d="M1147.29,-252.303C1156.43,-260.95 1167.64,-271.551 1177.6,-280.973"/>
<polygon fill="black" stroke="black" points="1184.92,-287.896 1174.56,-284.293 1181.29,-284.46 1177.65,-281.024 1177.65,-281.024 1177.65,-281.024 1181.29,-284.46 1180.75,-277.755 1184.92,-287.896 1184.92,-287.896"/>
</g>
<!-- 23 -->
<g id="node24" class="node"><title>23</title>
<polygon fill="none" stroke="black" points="1133,-324 1011,-324 1011,-288 1133,-288 1133,-324"/>
<text text-anchor="middle" x="1072" y="-302.3" font-family="Times,serif" font-size="14.00">sbws.util.userquery</text>
</g>
<!-- 4&#45;&gt;23 -->
<g id="edge9" class="edge"><title>4&#45;&gt;23</title>
<path fill="none" stroke="black" d="M1114.91,-252.303C1108.08,-260.695 1099.74,-270.93 1092.24,-280.139"/>
<polygon fill="black" stroke="black" points="1085.93,-287.896 1088.75,-277.3 1089.08,-284.018 1092.24,-280.141 1092.24,-280.141 1092.24,-280.141 1089.08,-284.018 1095.73,-282.983 1085.93,-287.896 1085.93,-287.896"/>
</g>
<!-- 5 -->
<g id="node6" class="node"><title>5</title>
<polygon fill="none" stroke="black" points="116,-180 7.10543e-15,-180 7.10543e-15,-144 116,-144 116,-180"/>
<text text-anchor="middle" x="58" y="-158.3" font-family="Times,serif" font-size="14.00">sbws.core.scanner</text>
</g>
<!-- 5&#45;&gt;7 -->
<g id="edge10" class="edge"><title>5&#45;&gt;7</title>
<path fill="none" stroke="black" d="M54.6795,-180.339C51.9918,-199.546 50.6854,-230.621 65,-252 104.369,-310.797 139.534,-302.66 207,-324 315.082,-358.187 448.118,-370.419 520.64,-374.725"/>
<polygon fill="black" stroke="black" points="530.891,-375.304 520.653,-379.232 525.899,-375.022 520.907,-374.74 520.907,-374.74 520.907,-374.74 525.899,-375.022 521.161,-370.247 530.891,-375.304 530.891,-375.304"/>
</g>
<!-- 20 -->
<g id="node21" class="node"><title>20</title>
<polygon fill="none" stroke="black" points="211.5,-252 98.5,-252 98.5,-216 211.5,-216 211.5,-252"/>
<text text-anchor="middle" x="155" y="-230.3" font-family="Times,serif" font-size="14.00">sbws.util.requests</text>
</g>
<!-- 5&#45;&gt;20 -->
<g id="edge11" class="edge"><title>5&#45;&gt;20</title>
<path fill="none" stroke="black" d="M81.9775,-180.303C94.3113,-189.204 109.516,-200.177 122.853,-209.801"/>
<polygon fill="black" stroke="black" points="131.298,-215.896 120.556,-213.693 127.244,-212.97 123.189,-210.044 123.189,-210.044 123.189,-210.044 127.244,-212.97 125.823,-206.395 131.298,-215.896 131.298,-215.896"/>
</g>
<!-- 21 -->
<g id="node22" class="node"><title>21</title>
<polygon fill="none" stroke="black" points="311.5,-324 216.5,-324 216.5,-288 311.5,-288 311.5,-324"/>
<text text-anchor="middle" x="264" y="-302.3" font-family="Times,serif" font-size="14.00">sbws.util.stem</text>
</g>
<!-- 5&#45;&gt;21 -->
<g id="edge12" class="edge"><title>5&#45;&gt;21</title>
<path fill="none" stroke="black" d="M59.3951,-180.216C61.9301,-200.199 69.0498,-232.853 89,-252 120.298,-282.038 168.047,-295.109 205.766,-300.768"/>
<polygon fill="black" stroke="black" points="216.117,-302.176 205.601,-305.287 211.162,-301.502 206.208,-300.828 206.208,-300.828 206.208,-300.828 211.162,-301.502 206.814,-296.369 216.117,-302.176 216.117,-302.176"/>
</g>
<!-- 6 -->
<g id="node7" class="node"><title>6</title>
<polygon fill="none" stroke="black" points="596,-108 498,-108 498,-72 596,-72 596,-108"/>
<text text-anchor="middle" x="547" y="-86.3" font-family="Times,serif" font-size="14.00">sbws.core.stats</text>
</g>
<!-- 6&#45;&gt;7 -->
<g id="edge13" class="edge"><title>6&#45;&gt;7</title>
<path fill="none" stroke="black" d="M526.177,-108.385C516.542,-117.802 506.115,-130.303 501,-144 495.403,-158.989 498.176,-164.251 501,-180 512.435,-243.771 543.147,-313.889 560.879,-350.845"/>
<polygon fill="black" stroke="black" points="565.299,-359.929 556.877,-352.906 563.111,-355.433 560.924,-350.937 560.924,-350.937 560.924,-350.937 563.111,-355.433 564.97,-348.968 565.299,-359.929 565.299,-359.929"/>
</g>
<!-- 6&#45;&gt;13 -->
<g id="edge14" class="edge"><title>6&#45;&gt;13</title>
<path fill="none" stroke="black" d="M553.674,-108.303C556.715,-116.187 560.383,-125.696 563.761,-134.454"/>
<polygon fill="black" stroke="black" points="567.403,-143.896 559.605,-136.185 565.603,-139.231 563.804,-134.566 563.804,-134.566 563.804,-134.566 565.603,-139.231 568.002,-132.946 567.403,-143.896 567.403,-143.896"/>
</g>
<!-- 8 -->
<g id="node9" class="node"><title>8</title>
<polygon fill="none" stroke="black" points="908,-36 846,-36 846,-0 908,-0 908,-36"/>
<text text-anchor="middle" x="877" y="-14.3" font-family="Times,serif" font-size="14.00">sbws.lib</text>
</g>
<!-- 9 -->
<g id="node10" class="node"><title>9</title>
<polygon fill="none" stroke="black" points="416,-180 278,-180 278,-144 416,-144 416,-180"/>
<text text-anchor="middle" x="347" y="-158.3" font-family="Times,serif" font-size="14.00">sbws.lib.circuitbuilder</text>
</g>
<!-- 11 -->
<g id="node12" class="node"><title>11</title>
<polygon fill="none" stroke="black" points="415.5,-252 306.5,-252 306.5,-216 415.5,-216 415.5,-252"/>
<text text-anchor="middle" x="361" y="-230.3" font-family="Times,serif" font-size="14.00">sbws.lib.relaylist</text>
</g>
<!-- 9&#45;&gt;11 -->
<g id="edge15" class="edge"><title>9&#45;&gt;11</title>
<path fill="none" stroke="black" d="M350.461,-180.303C352.003,-188.017 353.858,-197.288 355.578,-205.888"/>
<polygon fill="black" stroke="black" points="357.579,-215.896 351.205,-206.972 356.599,-210.993 355.618,-206.09 355.618,-206.09 355.618,-206.09 356.599,-210.993 360.031,-205.207 357.579,-215.896 357.579,-215.896"/>
</g>
<!-- 9&#45;&gt;21 -->
<g id="edge16" class="edge"><title>9&#45;&gt;21</title>
<path fill="none" stroke="black" d="M327.428,-180.113C317.264,-189.823 305.275,-202.674 297,-216 285.027,-235.283 276.385,-259.579 270.955,-277.913"/>
<polygon fill="black" stroke="black" points="268.199,-287.674 266.586,-276.828 269.558,-282.862 270.916,-278.051 270.916,-278.051 270.916,-278.051 269.558,-282.862 275.247,-279.273 268.199,-287.674 268.199,-287.674"/>
</g>
<!-- 10 -->
<g id="node11" class="node"><title>10</title>
<polygon fill="none" stroke="black" points="259.5,-180 134.5,-180 134.5,-144 259.5,-144 259.5,-180"/>
<text text-anchor="middle" x="197" y="-158.3" font-family="Times,serif" font-size="14.00">sbws.lib.destination</text>
</g>
<!-- 10&#45;&gt;20 -->
<g id="edge17" class="edge"><title>10&#45;&gt;20</title>
<path fill="none" stroke="black" d="M186.618,-180.303C181.735,-188.441 175.813,-198.311 170.421,-207.299"/>
<polygon fill="black" stroke="black" points="165.263,-215.896 166.549,-205.005 167.835,-211.608 170.408,-207.321 170.408,-207.321 170.408,-207.321 167.835,-211.608 174.266,-209.636 165.263,-215.896 165.263,-215.896"/>
</g>
<!-- 10&#45;&gt;21 -->
<g id="edge18" class="edge"><title>10&#45;&gt;21</title>
<path fill="none" stroke="black" d="M205.082,-180.129C216.652,-204.65 238.034,-249.968 251.61,-278.741"/>
<polygon fill="black" stroke="black" points="255.89,-287.811 247.553,-280.687 253.756,-283.289 251.622,-278.767 251.622,-278.767 251.622,-278.767 253.756,-283.289 255.692,-276.847 255.89,-287.811 255.89,-287.811"/>
</g>
<!-- 11&#45;&gt;7 -->
<g id="edge19" class="edge"><title>11&#45;&gt;7</title>
<path fill="none" stroke="black" d="M370.254,-252.087C381.809,-271.946 403.34,-304.481 430,-324 457.014,-343.779 492.211,-356.912 521.045,-365.157"/>
<polygon fill="black" stroke="black" points="530.955,-367.872 520.121,-369.569 526.133,-366.551 521.311,-365.229 521.311,-365.229 521.311,-365.229 526.133,-366.551 522.5,-360.889 530.955,-367.872 530.955,-367.872"/>
</g>
<!-- 11&#45;&gt;21 -->
<g id="edge20" class="edge"><title>11&#45;&gt;21</title>
<path fill="none" stroke="black" d="M337.022,-252.303C324.689,-261.204 309.484,-272.177 296.147,-281.801"/>
<polygon fill="black" stroke="black" points="287.702,-287.896 293.177,-278.395 291.756,-284.97 295.811,-282.044 295.811,-282.044 295.811,-282.044 291.756,-284.97 298.444,-285.693 287.702,-287.896 287.702,-287.896"/>
</g>
<!-- 12 -->
<g id="node13" class="node"><title>12</title>
<polygon fill="none" stroke="black" points="1072,-36 926,-36 926,-0 1072,-0 1072,-36"/>
<text text-anchor="middle" x="999" y="-14.3" font-family="Times,serif" font-size="14.00">sbws.lib.relayprioritizer</text>
</g>
<!-- 13&#45;&gt;7 -->
<g id="edge21" class="edge"><title>13&#45;&gt;7</title>
<path fill="none" stroke="black" d="M574,-180.151C574,-217.168 574,-304.819 574,-349.614"/>
<polygon fill="black" stroke="black" points="574,-359.768 569.5,-349.768 574,-354.768 574,-349.768 574,-349.768 574,-349.768 574,-354.768 578.5,-349.768 574,-359.768 574,-359.768"/>
</g>
<!-- 13&#45;&gt;11 -->
<g id="edge22" class="edge"><title>13&#45;&gt;11</title>
<path fill="none" stroke="black" d="M522.167,-180.034C492.147,-189.9 454.177,-202.378 422.633,-212.745"/>
<polygon fill="black" stroke="black" points="413.066,-215.889 421.161,-208.492 417.816,-214.328 422.566,-212.767 422.566,-212.767 422.566,-212.767 417.816,-214.328 423.971,-217.042 413.066,-215.889 413.066,-215.889"/>
</g>
<!-- 13&#45;&gt;18 -->
<g id="edge23" class="edge"><title>13&#45;&gt;18</title>
<path fill="none" stroke="black" d="M608.74,-180.129C661.175,-205.982 760.501,-254.955 817.948,-283.28"/>
<polygon fill="black" stroke="black" points="827.137,-287.811 816.178,-287.425 822.653,-285.6 818.168,-283.388 818.168,-283.388 818.168,-283.388 822.653,-285.6 820.158,-279.352 827.137,-287.811 827.137,-287.811"/>
</g>
<!-- 14&#45;&gt;0 -->
<g id="edge24" class="edge"><title>14&#45;&gt;0</title>
<path fill="none" stroke="black" d="M825.611,-108.037C838.008,-117.539 852.578,-130.222 863,-144 877.288,-162.889 888.161,-187.555 895.108,-206.128"/>
<polygon fill="black" stroke="black" points="898.56,-215.744 890.946,-207.852 896.871,-211.038 895.181,-206.332 895.181,-206.332 895.181,-206.332 896.871,-211.038 899.417,-204.811 898.56,-215.744 898.56,-215.744"/>
</g>
<!-- 14&#45;&gt;7 -->
<g id="edge25" class="edge"><title>14&#45;&gt;7</title>
<path fill="none" stroke="black" d="M802.536,-108.084C803.46,-126.789 802.682,-157.159 791,-180 750.345,-259.487 663.477,-322.56 612.845,-354.377"/>
<polygon fill="black" stroke="black" points="604.134,-359.767 610.27,-350.678 608.386,-357.136 612.638,-354.505 612.638,-354.505 612.638,-354.505 608.386,-357.136 615.006,-358.332 604.134,-359.767 604.134,-359.767"/>
</g>
<!-- 14&#45;&gt;13 -->
<g id="edge26" class="edge"><title>14&#45;&gt;13</title>
<path fill="none" stroke="black" d="M745.76,-108.034C713.629,-117.943 672.952,-130.486 639.25,-140.879"/>
<polygon fill="black" stroke="black" points="629.488,-143.889 637.718,-136.642 634.266,-142.416 639.044,-140.942 639.044,-140.942 639.044,-140.942 634.266,-142.416 640.37,-145.243 629.488,-143.889 629.488,-143.889"/>
</g>
<!-- 14&#45;&gt;18 -->
<g id="edge27" class="edge"><title>14&#45;&gt;18</title>
<path fill="none" stroke="black" d="M809.899,-108.313C814.865,-118.5 820.865,-131.75 825,-144 840.493,-189.898 851.649,-245.317 857.446,-277.713"/>
<polygon fill="black" stroke="black" points="859.205,-287.769 853.049,-278.694 858.344,-282.844 857.482,-277.919 857.482,-277.919 857.482,-277.919 858.344,-282.844 861.915,-277.144 859.205,-287.769 859.205,-287.769"/>
</g>
<!-- 14&#45;&gt;22 -->
<g id="edge28" class="edge"><title>14&#45;&gt;22</title>
<path fill="none" stroke="black" d="M780.73,-108.303C770.502,-117.035 757.939,-127.76 746.822,-137.25"/>
<polygon fill="black" stroke="black" points="739.037,-143.896 743.72,-133.98 742.839,-140.649 746.642,-137.403 746.642,-137.403 746.642,-137.403 742.839,-140.649 749.564,-140.826 739.037,-143.896 739.037,-143.896"/>
</g>
<!-- 15 -->
<g id="node16" class="node"><title>15</title>
<polygon fill="none" stroke="black" points="1142,-108 1068,-108 1068,-72 1142,-72 1142,-108"/>
<text text-anchor="middle" x="1105" y="-86.3" font-family="Times,serif" font-size="14.00">sbws.sbws</text>
</g>
<!-- 15&#45;&gt;17 -->
<g id="edge29" class="edge"><title>15&#45;&gt;17</title>
<path fill="none" stroke="black" d="M1118.63,-108.128C1136.35,-131.26 1167.05,-174.396 1184,-216 1192.09,-235.843 1196.94,-259.64 1199.71,-277.632"/>
<polygon fill="black" stroke="black" points="1201.15,-287.739 1195.29,-278.472 1200.44,-282.789 1199.74,-277.839 1199.74,-277.839 1199.74,-277.839 1200.44,-282.789 1204.2,-277.206 1201.15,-287.739 1201.15,-287.739"/>
</g>
<!-- 19 -->
<g id="node20" class="node"><title>19</title>
<polygon fill="none" stroke="black" points="1058,-180 956,-180 956,-144 1058,-144 1058,-180"/>
<text text-anchor="middle" x="1007" y="-158.3" font-family="Times,serif" font-size="14.00">sbws.util.parser</text>
</g>
<!-- 15&#45;&gt;19 -->
<g id="edge30" class="edge"><title>15&#45;&gt;19</title>
<path fill="none" stroke="black" d="M1081.03,-108.124C1068.45,-117.107 1052.87,-128.237 1039.25,-137.966"/>
<polygon fill="black" stroke="black" points="1031.07,-143.81 1036.59,-134.336 1035.13,-140.904 1039.2,-137.998 1039.2,-137.998 1039.2,-137.998 1035.13,-140.904 1041.82,-141.66 1031.07,-143.81 1031.07,-143.81"/>
</g>
<!-- 16 -->
<g id="node17" class="node"><title>16</title>
<polygon fill="none" stroke="black" points="1155.5,-36 1090.5,-36 1090.5,-0 1155.5,-0 1155.5,-36"/>
<text text-anchor="middle" x="1123" y="-14.3" font-family="Times,serif" font-size="14.00">sbws.util</text>
</g>
<!-- 17&#45;&gt;7 -->
<g id="edge31" class="edge"><title>17&#45;&gt;7</title>
<path fill="none" stroke="black" d="M1150.9,-322.18C1147.9,-322.848 1144.92,-323.462 1142,-324 954.806,-358.531 728.533,-371.086 627.374,-375.199"/>
<polygon fill="black" stroke="black" points="617.111,-375.605 626.926,-370.714 622.108,-375.407 627.104,-375.21 627.104,-375.21 627.104,-375.21 622.108,-375.407 627.281,-379.706 617.111,-375.605 617.111,-375.605"/>
</g>
<!-- 18&#45;&gt;7 -->
<g id="edge32" class="edge"><title>18&#45;&gt;7</title>
<path fill="none" stroke="black" d="M806.643,-320.66C802.029,-321.792 797.435,-322.917 793,-324 736.415,-337.818 671.564,-353.492 627.207,-364.188"/>
<polygon fill="black" stroke="black" points="617.228,-366.594 625.895,-359.876 622.089,-365.422 626.95,-364.25 626.95,-364.25 626.95,-364.25 622.089,-365.422 628.004,-368.625 617.228,-366.594 617.228,-366.594"/>
</g>
<!-- 19&#45;&gt;0 -->
<g id="edge33" class="edge"><title>19&#45;&gt;0</title>
<path fill="none" stroke="black" d="M981.803,-180.124C968.586,-189.107 952.208,-200.237 937.893,-209.966"/>
<polygon fill="black" stroke="black" points="929.293,-215.81 935.035,-206.467 933.429,-213 937.564,-210.189 937.564,-210.189 937.564,-210.189 933.429,-213 940.094,-213.911 929.293,-215.81 929.293,-215.81"/>
</g>
<!-- 19&#45;&gt;2 -->
<g id="edge34" class="edge"><title>19&#45;&gt;2</title>
<path fill="none" stroke="black" d="M1007,-180.303C1007,-188.017 1007,-197.288 1007,-205.888"/>
<polygon fill="black" stroke="black" points="1007,-215.896 1002.5,-205.896 1007,-210.896 1007,-205.896 1007,-205.896 1007,-205.896 1007,-210.896 1011.5,-205.896 1007,-215.896 1007,-215.896"/>
</g>
<!-- 20&#45;&gt;21 -->
<g id="edge35" class="edge"><title>20&#45;&gt;21</title>
<path fill="none" stroke="black" d="M181.664,-252.124C195.784,-261.192 213.311,-272.448 228.561,-282.241"/>
<polygon fill="black" stroke="black" points="237.233,-287.81 226.387,-286.193 233.026,-285.108 228.819,-282.407 228.819,-282.407 228.819,-282.407 233.026,-285.108 231.25,-278.62 237.233,-287.81 237.233,-287.81"/>
</g>
<!-- 21&#45;&gt;7 -->
<g id="edge36" class="edge"><title>21&#45;&gt;7</title>
<path fill="none" stroke="black" d="M311.758,-317.784C368.272,-330.545 462.093,-351.731 520.859,-365"/>
<polygon fill="black" stroke="black" points="530.692,-367.221 519.946,-369.408 525.815,-366.119 520.938,-365.018 520.938,-365.018 520.938,-365.018 525.815,-366.119 521.929,-360.629 530.692,-367.221 530.692,-367.221"/>
</g>
<!-- 21&#45;&gt;21 -->
<g id="edge37" class="edge"><title>21&#45;&gt;21</title>
<path fill="none" stroke="black" d="M311.69,-292.899C322.013,-294.18 329.5,-298.547 329.5,-306 329.5,-310.775 326.428,-314.283 321.505,-316.524"/>
<polygon fill="black" stroke="black" points="311.69,-319.101 320.22,-312.209 316.526,-317.831 321.362,-316.562 321.362,-316.562 321.362,-316.562 316.526,-317.831 322.505,-320.914 311.69,-319.101 311.69,-319.101"/>
</g>
</g>
</svg>
