<?xml version="1.0" encoding="UTF-8" standalone="no"?><svg xmlns="http://www.w3.org/2000/svg" xmlns:xlink="http://www.w3.org/1999/xlink" contentScriptType="application/ecmascript" contentStyleType="text/css" height="266px" preserveAspectRatio="none" style="width:874px;height:266px;" version="1.1" viewBox="0 0 874 266" width="874px" zoomAndPan="magnify"><defs><filter height="300%" id="ft70fwu" width="300%" x="-1" y="-1"><feGaussianBlur result="blurOut" stdDeviation="2.0"/><feColorMatrix in="blurOut" result="blurOut2" type="matrix" values="0 0 0 0 0 0 0 0 0 0 0 0 0 0 0 0 0 0 .4 0"/><feOffset dx="4.0" dy="4.0" in="blurOut2" result="blurOut3"/><feBlend in="SourceGraphic" in2="blurOut3" mode="normal"/></filter></defs><g><ellipse cx="438.5" cy="20" fill="#000000" filter="url(#ft70fwu)" rx="10" ry="10" style="stroke: none; stroke-width: 1.0;"/><rect fill="#FEFECE" filter="url(#ft70fwu)" height="33.9688" rx="12.5" ry="12.5" style="stroke: #A80036; stroke-width: 1.5;" width="93" x="392" y="50"/><text fill="#000000" font-family="sans-serif" font-size="12" lengthAdjust="spacingAndGlyphs" textLength="73" x="402" y="71.1387">MainThread</text><rect fill="#000000" filter="url(#ft70fwu)" height="6" rx="2.5" ry="2.5" style="stroke: #000000; stroke-width: 1.0;" width="857" x="10" y="103.9688"/><rect fill="#FEFECE" filter="url(#ft70fwu)" height="33.9688" rx="12.5" ry="12.5" style="stroke: #A80036; stroke-width: 1.5;" width="125" x="24" y="165.9688"/><text fill="#000000" font-family="sans-serif" font-size="12" lengthAdjust="spacingAndGlyphs" textLength="105" x="34" y="187.1074">TorEventListener</text><rect fill="#FEFECE" filter="url(#ft70fwu)" height="33.9688" rx="12.5" ry="12.5" style="stroke: #A80036; stroke-width: 1.5;" width="95" x="177" y="165.9688"/><text fill="#000000" font-family="sans-serif" font-size="12" lengthAdjust="spacingAndGlyphs" textLength="75" x="187" y="187.1074">ResultDump</text><rect fill="#FEFECE" filter="url(#ft70fwu)" height="33.9688" rx="12.5" ry="12.5" style="stroke: #A80036; stroke-width: 1.5;" width="117" x="300" y="165.9688"/><text fill="#000000" font-family="sans-serif" font-size="12" lengthAdjust="spacingAndGlyphs" textLength="97" x="310" y="187.1074">workers_thread</text><rect fill="#FEFECE" filter="url(#ft70fwu)" height="33.9688" rx="12.5" ry="12.5" style="stroke: #A80036; stroke-width: 1.5;" width="102" x="445" y="165.9688"/><text fill="#000000" font-family="sans-serif" font-size="12" lengthAdjust="spacingAndGlyphs" textLength="82" x="455" y="187.1074">tasks_thread</text><rect fill="#FEFECE" filter="url(#ft70fwu)" height="33.9688" rx="12.5" ry="12.5" style="stroke: #A80036; stroke-width: 1.5;" width="103" x="575" y="165.9688"/><text fill="#000000" font-family="sans-serif" font-size="12" lengthAdjust="spacingAndGlyphs" textLength="83" x="585" y="187.1074">resutls_tread</text><rect fill="#FEFECE" filter="url(#ft70fwu)" height="33.9688" rx="12.5" ry="12.5" style="stroke: #A80036; stroke-width: 1.5;" width="111" x="730" y="177.9688"/><text fill="#000000" font-family="sans-serif" font-size="12" lengthAdjust="spacingAndGlyphs" textLength="91" x="740" y="199.1074">measure_relay</text><polygon fill="#FEFECE" filter="url(#ft70fwu)" points="748.5,129.9688,822.5,129.9688,834.5,141.9688,822.5,153.9688,748.5,153.9688,736.5,141.9688,748.5,129.9688" style="stroke: #A80036; stroke-width: 1.5;"/><text fill="#000000" font-family="sans-serif" font-size="11" lengthAdjust="spacingAndGlyphs" textLength="74" x="748.5" y="145.7769">threads &lt; 3?</text><rect fill="#000000" filter="url(#ft70fwu)" height="6" rx="2.5" ry="2.5" style="stroke: #000000; stroke-width: 1.0;" width="857" x="10" y="253.9375"/><line style="stroke: #A80036; stroke-width: 1.5;" x1="438.5" x2="438.5" y1="30" y2="50"/><polygon fill="#A80036" points="434.5,40,438.5,50,442.5,40,438.5,44" style="stroke: #A80036; stroke-width: 1.0;"/><line style="stroke: #A80036; stroke-width: 1.5;" x1="785.5" x2="785.5" y1="153.9688" y2="177.9688"/><polygon fill="#A80036" points="781.5,167.9688,785.5,177.9688,789.5,167.9688,785.5,171.9688" style="stroke: #A80036; stroke-width: 1.0;"/><line style="stroke: #A80036; stroke-width: 1.5;" x1="785.5" x2="785.5" y1="211.9375" y2="221.9375"/><line style="stroke: #A80036; stroke-width: 1.5;" x1="785.5" x2="853" y1="221.9375" y2="221.9375"/><polygon fill="#A80036" points="849,192.9531,853,182.9531,857,192.9531,853,188.9531" style="stroke: #A80036; stroke-width: 1.5;"/><line style="stroke: #A80036; stroke-width: 1.5;" x1="853" x2="853" y1="141.9688" y2="221.9375"/><line style="stroke: #A80036; stroke-width: 1.5;" x1="853" x2="834.5" y1="141.9688" y2="141.9688"/><polygon fill="#A80036" points="844.5,137.9688,834.5,141.9688,844.5,145.9688,840.5,141.9688" style="stroke: #A80036; stroke-width: 1.0;"/><line style="stroke: #A80036; stroke-width: 1.5;" x1="736.5" x2="718" y1="141.9688" y2="141.9688"/><polygon fill="#A80036" points="714,178.9531,718,188.9531,722,178.9531,718,182.9531" style="stroke: #A80036; stroke-width: 1.5;"/><line style="stroke: #A80036; stroke-width: 1.5;" x1="718" x2="718" y1="141.9688" y2="233.9375"/><line style="stroke: #A80036; stroke-width: 1.5;" x1="718" x2="785.5" y1="233.9375" y2="233.9375"/><line style="stroke: #A80036; stroke-width: 1.5;" x1="785.5" x2="785.5" y1="233.9375" y2="253.9375"/><polygon fill="#A80036" points="781.5,243.9375,785.5,253.9375,789.5,243.9375,785.5,247.9375" style="stroke: #A80036; stroke-width: 1.0;"/><line style="stroke: #A80036; stroke-width: 1.5;" x1="86.5" x2="86.5" y1="109.9688" y2="165.9688"/><polygon fill="#A80036" points="82.5,155.9688,86.5,165.9688,90.5,155.9688,86.5,159.9688" style="stroke: #A80036; stroke-width: 1.0;"/><line style="stroke: #A80036; stroke-width: 1.5;" x1="86.5" x2="86.5" y1="199.9375" y2="253.9375"/><polygon fill="#A80036" points="82.5,243.9375,86.5,253.9375,90.5,243.9375,86.5,247.9375" style="stroke: #A80036; stroke-width: 1.0;"/><line style="stroke: #A80036; stroke-width: 1.5;" x1="224.5" x2="224.5" y1="109.9688" y2="165.9688"/><polygon fill="#A80036" points="220.5,155.9688,224.5,165.9688,228.5,155.9688,224.5,159.9688" style="stroke: #A80036; stroke-width: 1.0;"/><line style="stroke: #A80036; stroke-width: 1.5;" x1="224.5" x2="224.5" y1="199.9375" y2="253.9375"/><polygon fill="#A80036" points="220.5,243.9375,224.5,253.9375,228.5,243.9375,224.5,247.9375" style="stroke: #A80036; stroke-width: 1.0;"/><line style="stroke: #A80036; stroke-width: 1.5;" x1="358.5" x2="358.5" y1="109.9688" y2="165.9688"/><polygon fill="#A80036" points="354.5,155.9688,358.5,165.9688,362.5,155.9688,358.5,159.9688" style="stroke: #A80036; stroke-width: 1.0;"/><line style="stroke: #A80036; stroke-width: 1.5;" x1="358.5" x2="358.5" y1="199.9375" y2="253.9375"/><polygon fill="#A80036" points="354.5,243.9375,358.5,253.9375,362.5,243.9375,358.5,247.9375" style="stroke: #A80036; stroke-width: 1.0;"/><line style="stroke: #A80036; stroke-width: 1.5;" x1="496" x2="496" y1="109.9688" y2="165.9688"/><polygon fill="#A80036" points="492,155.9688,496,165.9688,500,155.9688,496,159.9688" style="stroke: #A80036; stroke-width: 1.0;"/><line style="stroke: #A80036; stroke-width: 1.5;" x1="496" x2="496" y1="199.9375" y2="253.9375"/><polygon fill="#A80036" points="492,243.9375,496,253.9375,500,243.9375,496,247.9375" style="stroke: #A80036; stroke-width: 1.0;"/><line style="stroke: #A80036; stroke-width: 1.5;" x1="626.5" x2="626.5" y1="109.9688" y2="165.9688"/><polygon fill="#A80036" points="622.5,155.9688,626.5,165.9688,630.5,155.9688,626.5,159.9688" style="stroke: #A80036; stroke-width: 1.0;"/><line style="stroke: #A80036; stroke-width: 1.5;" x1="626.5" x2="626.5" y1="199.9375" y2="253.9375"/><polygon fill="#A80036" points="622.5,243.9375,626.5,253.9375,630.5,243.9375,626.5,247.9375" style="stroke: #A80036; stroke-width: 1.0;"/><line style="stroke: #A80036; stroke-width: 1.5;" x1="785.5" x2="785.5" y1="109.9688" y2="129.9688"/><polygon fill="#A80036" points="781.5,119.9688,785.5,129.9688,789.5,119.9688,785.5,123.9688" style="stroke: #A80036; stroke-width: 1.0;"/><line style="stroke: #A80036; stroke-width: 1.5;" x1="438.5" x2="438.5" y1="83.9688" y2="103.9688"/><polygon fill="#A80036" points="434.5,93.9688,438.5,103.9688,442.5,93.9688,438.5,97.9688" style="stroke: #A80036; stroke-width: 1.0;"/></g></svg>